<?xml version="1.0" standalone="yes"?>

<svg version="1.1" viewBox="0.0 0.0 810.2099737532808 343.7821522309711" fill="none" stroke="none" stroke-linecap="square" stroke-miterlimit="10" xmlns="http://www.w3.org/2000/svg" xmlns:xlink="http://www.w3.org/1999/xlink"><clipPath id="p.0"><path d="m0 0l810.20996 0l0 343.78217l-810.20996 0l0 -343.78217z" clip-rule="nonzero"></path></clipPath><g clip-path="url(#p.0)"><path fill="#000000" fill-opacity="0.0" d="m0 0l810.20996 0l0 343.78217l-810.20996 0z" fill-rule="evenodd"></path><path fill="#cfe2f3" d="m293.20996 87.61054l0 0c0 -8.404755 6.8134155 -15.218155 15.21817 -15.218155l75.42197 0c4.0361023 0 7.906891 1.6033401 10.760864 4.4572983c2.8539429 2.8539505 4.4572754 6.7247467 4.4572754 10.760857l0 60.87078c0 8.404755 -6.813385 15.218155 -15.21814 15.218155l-75.42197 0c-8.404755 0 -15.21817 -6.8134003 -15.21817 -15.218155z" fill-rule="evenodd"></path><path stroke="#0b5394" stroke-width="1.0" stroke-linejoin="round" stroke-linecap="butt" d="m293.20996 87.61054l0 0c0 -8.404755 6.8134155 -15.218155 15.21817 -15.218155l75.42197 0c4.0361023 0 7.906891 1.6033401 10.760864 4.4572983c2.8539429 2.8539505 4.4572754 6.7247467 4.4572754 10.760857l0 60.87078c0 8.404755 -6.813385 15.218155 -15.21814 15.218155l-75.42197 0c-8.404755 0 -15.21817 -6.8134003 -15.21817 -15.218155z" fill-rule="evenodd"></path><path fill="#000000" fill-opacity="0.0" d="m293.19684 72.39239l105.85828 0l0 91.30709l-105.85828 0z" fill-rule="evenodd"></path><path fill="#000000" d="m348.5907 121.46593l-4.515625 0l-1.078125 3.5l-1.71875 0l4.359375 -13.515625l1.4375 0l4.296875 13.515625l-1.71875 0l-1.0625 -3.5zm-4.046875 -1.484375l3.59375 0l-1.78125 -5.875l-1.8125 5.875z" fill-rule="nonzero"></path><path fill="#cfe2f3" d="m462.57742 87.61054l0 0c0 -8.404755 6.8134155 -15.218155 15.21817 -15.218155l75.421936 0c4.036133 0 7.9069214 1.6033401 10.760864 4.4572983c2.8539429 2.8539505 4.4572754 6.7247467 4.4572754 10.760857l0 60.87078c0 8.404755 -6.8133545 15.218155 -15.21814 15.218155l-75.421936 0c-8.404755 0 -15.21817 -6.8134003 -15.21817 -15.218155z" fill-rule="evenodd"></path><path stroke="#0b5394" stroke-width="1.0" stroke-linejoin="round" stroke-linecap="butt" d="m462.57742 87.61054l0 0c0 -8.404755 6.8134155 -15.218155 15.21817 -15.218155l75.421936 0c4.036133 0 7.9069214 1.6033401 10.760864 4.4572983c2.8539429 2.8539505 4.4572754 6.7247467 4.4572754 10.760857l0 60.87078c0 8.404755 -6.8133545 15.218155 -15.21814 15.218155l-75.421936 0c-8.404755 0 -15.21817 -6.8134003 -15.21817 -15.218155z" fill-rule="evenodd"></path><path fill="#000000" fill-opacity="0.0" d="m462.5643 72.39239l105.858246 0l0 91.30709l-105.858246 0z" fill-rule="evenodd"></path><path fill="#000000" d="m511.4894 124.96593l0 -13.515625l4.0155945 0q0.84375 0.015625 1.640625 0.234375q0.796875 0.203125 1.40625 0.640625q0.625 0.4375 1.0 1.109375q0.375 0.671875 0.359375 1.625q0 0.53125 -0.171875 0.96875q-0.15625 0.4375 -0.4375 0.78125q-0.28125 0.34375 -0.671875 0.609375q-0.375 0.25 -0.796875 0.4375q0.53125 0.15625 0.984375 0.453125q0.453125 0.296875 0.765625 0.71875q0.328125 0.40625 0.5 0.921875q0.1875 0.515625 0.1875 1.125q0.015625 0.9375 -0.359375 1.671875q-0.359375 0.71875 -0.984375 1.203125q-0.625 0.484375 -1.4375 0.75q-0.8125 0.25 -1.671875 0.265625l-4.3280945 0zm1.7343445 -6.3125l0 4.859375l2.640625 0q0.53125 -0.015625 1.015625 -0.1875q0.484375 -0.171875 0.84375 -0.46875q0.375 -0.3125 0.59375 -0.75q0.21875 -0.453125 0.21875 -1.015625q0.015625 -0.578125 -0.1875 -1.015625q-0.203125 -0.453125 -0.5625 -0.765625q-0.34375 -0.3125 -0.8125 -0.46875q-0.46875 -0.171875 -1.015625 -0.1875l-2.734375 0zm0 -1.4375l2.390625 0q0.484375 0 0.9375 -0.140625q0.46875 -0.15625 0.828125 -0.421875q0.359375 -0.28125 0.578125 -0.671875q0.234375 -0.40625 0.234375 -0.9375q0 -0.5625 -0.21875 -0.953125q-0.21875 -0.40625 -0.59375 -0.65625q-0.359375 -0.265625 -0.84375 -0.375q-0.46875 -0.125 -0.96875 -0.140625l-2.34375 0l0 4.296875z" fill-rule="nonzero"></path><path fill="#cfe2f3" d="m631.958 87.61054l0 0c0 -8.404755 6.8134155 -15.218155 15.21814 -15.218155l75.422 0c4.036072 0 7.9068604 1.6033401 10.760864 4.4572983c2.8539429 2.8539505 4.4572754 6.7247467 4.4572754 10.760857l0 60.87078c0 8.404755 -6.8134155 15.218155 -15.21814 15.218155l-75.422 0c-8.404724 0 -15.21814 -6.8134003 -15.21814 -15.218155z" fill-rule="evenodd"></path><path stroke="#0b5394" stroke-width="1.0" stroke-linejoin="round" stroke-linecap="butt" d="m631.958 87.61054l0 0c0 -8.404755 6.8134155 -15.218155 15.21814 -15.218155l75.422 0c4.036072 0 7.9068604 1.6033401 10.760864 4.4572983c2.8539429 2.8539505 4.4572754 6.7247467 4.4572754 10.760857l0 60.87078c0 8.404755 -6.8134155 15.218155 -15.21814 15.218155l-75.422 0c-8.404724 0 -15.21814 -6.8134003 -15.21814 -15.218155z" fill-rule="evenodd"></path><path fill="#000000" fill-opacity="0.0" d="m631.9449 72.39239l105.85828 0l0 91.30709l-105.85828 0z" fill-rule="evenodd"></path><path fill="#000000" d="m689.6356 120.90343q-0.109375 0.9375 -0.484375 1.71875q-0.359375 0.78125 -0.9375 1.34375q-0.578125 0.5625 -1.375 0.875q-0.796875 0.3125 -1.765625 0.3125q-0.828125 0 -1.515625 -0.234375q-0.6875 -0.234375 -1.21875 -0.65625q-0.53125 -0.421875 -0.921875 -0.984375q-0.375 -0.5625 -0.640625 -1.234375q-0.25 -0.671875 -0.375 -1.40625q-0.125 -0.734375 -0.125 -1.484375l0 -1.875q0 -0.75 0.125 -1.484375q0.125 -0.734375 0.375 -1.40625q0.265625 -0.671875 0.640625 -1.234375q0.390625 -0.578125 0.921875 -0.984375q0.53125 -0.421875 1.203125 -0.65625q0.6875 -0.234375 1.53125 -0.234375q1.015625 0 1.8125 0.3125q0.796875 0.296875 1.375 0.875q0.578125 0.5625 0.921875 1.375q0.34375 0.796875 0.453125 1.75l-1.71875 0q-0.078125 -0.609375 -0.28125 -1.140625q-0.203125 -0.53125 -0.546875 -0.921875q-0.34375 -0.40625 -0.84375 -0.625q-0.5 -0.234375 -1.171875 -0.234375q-0.609375 0 -1.078125 0.203125q-0.46875 0.203125 -0.8125 0.546875q-0.328125 0.34375 -0.5625 0.796875q-0.21875 0.453125 -0.359375 0.96875q-0.140625 0.5 -0.203125 1.046875q-0.0625 0.53125 -0.0625 1.03125l0 1.890625q0 0.5 0.0625 1.046875q0.0625 0.53125 0.203125 1.046875q0.140625 0.515625 0.359375 0.96875q0.21875 0.453125 0.5625 0.796875q0.34375 0.34375 0.796875 0.546875q0.46875 0.203125 1.09375 0.203125q0.671875 0 1.171875 -0.21875q0.5 -0.21875 0.84375 -0.59375q0.34375 -0.390625 0.546875 -0.90625q0.203125 -0.53125 0.28125 -1.140625l1.71875 0z" fill-rule="nonzero"></path><path fill="#cfe2f3" d="m462.56955 224.94388l0 0c0 -8.404755 6.8134155 -15.218155 15.21817 -15.218155l75.421936 0c4.036133 0 7.9069214 1.6033325 10.760864 4.4572906c2.8539429 2.8539581 4.4572754 6.724762 4.4572754 10.760864l0 60.87079c0 8.404755 -6.8133545 15.21814 -15.21814 15.21814l-75.421936 0c-8.404755 0 -15.21817 -6.813385 -15.21817 -15.21814z" fill-rule="evenodd"></path><path stroke="#0b5394" stroke-width="1.0" stroke-linejoin="round" stroke-linecap="butt" d="m462.56955 224.94388l0 0c0 -8.404755 6.8134155 -15.218155 15.21817 -15.218155l75.421936 0c4.036133 0 7.9069214 1.6033325 10.760864 4.4572906c2.8539429 2.8539581 4.4572754 6.724762 4.4572754 10.760864l0 60.87079c0 8.404755 -6.8133545 15.21814 -15.21814 15.21814l-75.421936 0c-8.404755 0 -15.21817 -6.813385 -15.21817 -15.21814z" fill-rule="evenodd"></path><path fill="#000000" fill-opacity="0.0" d="m462.55643 209.72572l105.858246 0l0 91.30708l-105.858246 0z" fill-rule="evenodd"></path><path fill="#000000" d="m511.3253 262.29926l0 -13.515625l3.1249695 0q1.40625 0.03125 2.515625 0.484375q1.109375 0.453125 1.875 1.28125q0.765625 0.828125 1.171875 1.96875q0.40625 1.140625 0.421875 2.53125l0 1.0q-0.015625 1.390625 -0.421875 2.546875q-0.40625 1.140625 -1.171875 1.96875q-0.765625 0.8125 -1.875 1.265625q-1.109375 0.453125 -2.515625 0.46875l-3.1249695 0zm1.7499695 -12.09375l0 10.6875l1.375 0q1.09375 0 1.890625 -0.375q0.796875 -0.375 1.3125 -1.015625q0.53125 -0.65625 0.78125 -1.53125q0.265625 -0.890625 0.28125 -1.921875l0 -1.015625q-0.015625 -1.03125 -0.28125 -1.90625q-0.25 -0.875 -0.78125 -1.515625q-0.515625 -0.65625 -1.3125 -1.015625q-0.796875 -0.375 -1.890625 -0.390625l-1.375 0z" fill-rule="nonzero"></path><path fill="#000000" fill-opacity="0.0" d="m399.0551 118.04593l63.496063 0" fill-rule="evenodd"></path><path stroke="#000000" stroke-width="1.0" stroke-linejoin="round" stroke-linecap="butt" d="m399.0551 118.04593l57.496063 0" fill-rule="evenodd"></path><path fill="#000000" stroke="#000000" stroke-width="1.0" stroke-linecap="butt" d="m456.55118 119.69766l4.538086 -1.6517334l-4.538086 -1.6517334z" fill-rule="evenodd"></path><path fill="#000000" fill-opacity="0.0" d="m399.0551 118.04593c15.875275 0 23.813568 34.33072 31.75058 68.66142c7.9370117 34.330704 15.872742 68.66141 31.745483 68.66141" fill-rule="evenodd"></path><path stroke="#000000" stroke-width="1.0" stroke-linejoin="round" stroke-linecap="butt" d="m399.0551 118.04593c15.875305 0 23.813568 34.33072 31.75058 68.66142c3.9685059 17.165344 7.936676 34.330704 12.896851 47.204727c2.480072 6.4369965 5.20813 11.801178 8.308228 15.556091c0.7750244 0.93873596 1.5733032 1.776886 2.396759 2.506073c0.41174316 0.36460876 0.82974243 0.70196533 1.2543335 1.0110321c0.21228027 0.15452576 0.426239 0.3019867 0.6418152 0.44226074c0.107788086 0.070129395 0.21600342 0.138443 0.32461548 0.20497131l0.1529541 0.0907135" fill-rule="evenodd"></path><path fill="#000000" stroke="#000000" stroke-width="1.0" stroke-linecap="butt" d="m456.32825 255.31163l4.8170776 -0.34379578l-3.9110718 -2.8330078z" fill-rule="evenodd"></path><path fill="#000000" fill-opacity="0.0" d="m568.42255 118.04593c15.880615 0 23.820312 0.01574707 31.761292 0.03150177c7.940918 0.01574707 15.883118 0.03149414 31.766296 0.03149414" fill-rule="evenodd"></path><path stroke="#000000" stroke-width="1.0" stroke-linejoin="round" stroke-linecap="butt" d="m568.42255 118.04593c15.880615 0 23.820312 0.01574707 31.761292 0.03150177c3.970459 0.007873535 7.941223 0.01574707 12.904785 0.021652222c2.4818115 0.0029525757 5.211792 0.0054092407 8.314026 0.007133484l4.5474854 0.0011672974" fill-rule="evenodd"></path><path fill="#000000" stroke="#000000" stroke-width="1.0" stroke-linecap="butt" d="m625.9497 119.75912l4.538513 -1.6505661l-4.5376587 -1.6529007z" fill-rule="evenodd"></path><path fill="#cfe2f3" d="m138.38058 171.00656l0 -105.85827c0 -2.2888184E-4 9.1552734E-5 -4.5776367E-4 2.4414062E-4 -6.2561035E-4c1.6784668E-4 -1.6021729E-4 3.9672852E-4 -2.5177002E-4 6.2561035E-4 -2.5177002E-4l46.655212 8.773804E-4l0 0c24.660065 0 44.651 19.990929 44.651 44.650993l0 16.556282c0 24.660057 -19.990936 44.650993 -44.651 44.650993l-46.656082 0l0 0c-4.8828125E-4 0 -8.8500977E-4 -3.9672852E-4 -8.8500977E-4 -8.8500977E-4z" fill-rule="evenodd"></path><path stroke="#0b5394" stroke-width="1.0" stroke-linejoin="round" stroke-linecap="butt" d="m138.38058 171.00656l0 -105.85827c0 -2.2888184E-4 9.1552734E-5 -4.5776367E-4 2.4414062E-4 -6.2561035E-4c1.6784668E-4 -1.6021729E-4 3.9672852E-4 -2.5177002E-4 6.2561035E-4 -2.5177002E-4l46.655212 8.773804E-4l0 0c24.660065 0 44.651 19.990929 44.651 44.650993l0 16.556282c0 24.660057 -19.990936 44.650993 -44.651 44.650993l-46.656082 0l0 0c-4.8828125E-4 0 -8.8500977E-4 -3.9672852E-4 -8.8500977E-4 -8.8500977E-4z" fill-rule="evenodd"></path><path fill="#000000" fill-opacity="0.0" d="m229.68767 118.07743c15.877182 0 23.817368 0.01574707 31.75438 0.03149414c7.9370117 0.01574707 15.87085 0.03149414 31.741669 0.03149414" fill-rule="evenodd"></path><path stroke="#000000" stroke-width="1.0" stroke-linejoin="round" stroke-linecap="butt" d="m229.68767 118.07743c15.877197 0 23.817383 0.01574707 31.75438 0.03149414c3.9685059 0.007873535 7.9362183 0.01574707 12.89566 0.021652222c2.4797058 0.0029525757 5.207367 0.00541687 8.307007 0.007133484l4.5390015 0.0011749268" fill-rule="evenodd"></path><path fill="#000000" stroke="#000000" stroke-width="1.0" stroke-linecap="butt" d="m287.1833 119.79061l4.5385437 -1.6505661l-4.537689 -1.6529007z" fill-rule="evenodd"></path><path fill="#ea9999" d="m128.67455 43.232285l44.661407 0l0 54.362206l-44.661407 0z" fill-rule="evenodd"></path><path stroke="#cc0000" stroke-width="1.0" stroke-linejoin="round" stroke-linecap="butt" d="m128.67455 43.232285l44.661407 0l0 54.362206l-44.661407 0z" fill-rule="evenodd"></path><path fill="#000000" fill-opacity="0.0" d="m128.67455 44.200787l44.661407 0l0 54.36221l-44.661407 0z" fill-rule="evenodd"></path><path fill="#000000" d="m151.54607 78.30189l-1.6875 0l1.96875 -11.265625l-3.6875 1.328125l0.296875 -1.640625l5.21875 -1.9375l0.171875 0l-2.28125 13.515625z" fill-rule="nonzero"></path><path fill="#ea9999" d="m452.30185 42.74803l44.661407 0l0 54.362206l-44.661407 0z" fill-rule="evenodd"></path><path stroke="#cc0000" stroke-width="1.0" stroke-linejoin="round" stroke-linecap="butt" d="m452.30185 42.74803l44.661407 0l0 54.362206l-44.661407 0z" fill-rule="evenodd"></path><path fill="#000000" fill-opacity="0.0" d="m452.30185 43.716534l44.661407 0l0 54.36221l-44.661407 0z" fill-rule="evenodd"></path><path fill="#000000" d="m477.89212 77.817635l-8.59375 0l0.203125 -1.3125l4.984375 -4.84375q0.390625 -0.390625 0.828125 -0.8125q0.4375 -0.421875 0.8125 -0.890625q0.375 -0.46875 0.640625 -0.984375q0.28125 -0.53125 0.359375 -1.109375q0.0625 -0.46875 -0.046875 -0.890625q-0.09375 -0.421875 -0.359375 -0.734375q-0.25 -0.3125 -0.625 -0.5q-0.375 -0.203125 -0.875 -0.21875q-0.65625 -0.015625 -1.171875 0.1875q-0.5 0.203125 -0.875 0.578125q-0.375 0.359375 -0.609375 0.875q-0.234375 0.5 -0.3125 1.125l-1.671875 0q0.09375 -0.921875 0.484375 -1.6875q0.40625 -0.78125 1.03125 -1.328125q0.640625 -0.5625 1.453125 -0.859375q0.828125 -0.3125 1.765625 -0.28125q0.796875 0.015625 1.46875 0.28125q0.671875 0.265625 1.15625 0.75q0.484375 0.46875 0.71875 1.140625q0.234375 0.671875 0.171875 1.5q-0.046875 0.703125 -0.359375 1.359375q-0.3125 0.65625 -0.75 1.234375q-0.4375 0.578125 -0.96875 1.109375q-0.53125 0.515625 -1.015625 0.984375l-4.140625 3.921875l6.53125 0l-0.234375 1.40625z" fill-rule="nonzero"></path></g></svg>

