<?xml version="1.0" standalone="yes"?>

<svg version="1.1" viewBox="0.0 0.0 662.0 476.0" fill="none" stroke="none" stroke-linecap="square" stroke-miterlimit="10" xmlns="http://www.w3.org/2000/svg" xmlns:xlink="http://www.w3.org/1999/xlink"><clipPath id="p.0"><path d="m0 0l662.0 0l0 476.0l-662.0 0l0 -476.0z" clip-rule="nonzero"></path></clipPath><g clip-path="url(#p.0)"><path fill="#000000" fill-opacity="0.0" d="m0 0l662.0 0l0 476.0l-662.0 0z" fill-rule="evenodd"></path><path fill="#cfe2f3" d="m151.94751 69.77327l0 0c0 -8.404755 6.8134003 -15.218151 15.218155 -15.218151l75.42195 0c4.0361176 0 7.906906 1.6033363 10.760864 4.4572945c2.8539429 2.8539543 4.457306 6.7247543 4.457306 10.760857l0 60.87079c0 8.404755 -6.8134155 15.21814 -15.21817 15.21814l-75.42195 0c-8.404755 0 -15.218155 -6.813385 -15.218155 -15.21814z" fill-rule="evenodd"></path><path stroke="#0b5394" stroke-width="1.0" stroke-linejoin="round" stroke-linecap="butt" d="m151.94751 69.77327l0 0c0 -8.404755 6.8134003 -15.218151 15.218155 -15.218151l75.42195 0c4.0361176 0 7.906906 1.6033363 10.760864 4.4572945c2.8539429 2.8539543 4.457306 6.7247543 4.457306 10.760857l0 60.87079c0 8.404755 -6.8134155 15.21814 -15.21817 15.21814l-75.42195 0c-8.404755 0 -15.218155 -6.813385 -15.218155 -15.21814z" fill-rule="evenodd"></path><path fill="#000000" fill-opacity="0.0" d="m151.93439 54.55512l105.85828 0l0 91.30708l-105.85828 0z" fill-rule="evenodd"></path><path fill="#000000" d="m207.32823 103.628654l-4.515625 0l-1.078125 3.5l-1.71875 0l4.359375 -13.515625l1.4375 0l4.296875 13.515625l-1.71875 0l-1.0625 -3.5zm-4.046875 -1.484375l3.59375 0l-1.78125 -5.875l-1.8125 5.875z" fill-rule="nonzero"></path><path fill="#cfe2f3" d="m166.48557 275.93307l0 -105.85828c0 -2.2888184E-4 9.1552734E-5 -4.5776367E-4 2.593994E-4 -6.2561035E-4c1.6784668E-4 -1.5258789E-4 3.8146973E-4 -2.593994E-4 6.2561035E-4 -2.593994E-4l46.655212 8.8500977E-4l0 0c24.660065 0 44.651 19.990936 44.651 44.651l0 16.556274c0 24.660065 -19.990936 44.651 -44.651 44.651l-46.656097 0l0 0c-4.8828125E-4 0 -8.8500977E-4 -3.9672852E-4 -8.8500977E-4 -8.8500977E-4z" fill-rule="evenodd"></path><path stroke="#0b5394" stroke-width="1.0" stroke-linejoin="round" stroke-linecap="butt" d="m166.48557 275.93307l0 -105.85828c0 -2.2888184E-4 9.1552734E-5 -4.5776367E-4 2.593994E-4 -6.2561035E-4c1.6784668E-4 -1.5258789E-4 3.8146973E-4 -2.593994E-4 6.2561035E-4 -2.593994E-4l46.655212 8.8500977E-4l0 0c24.660065 0 44.651 19.990936 44.651 44.651l0 16.556274c0 24.660065 -19.990936 44.651 -44.651 44.651l-46.656097 0l0 0c-4.8828125E-4 0 -8.8500977E-4 -3.9672852E-4 -8.8500977E-4 -8.8500977E-4z" fill-rule="evenodd"></path><path fill="#ea9999" d="m182.54593 300.14566l44.661423 0l0 54.362213l-44.661423 0z" fill-rule="evenodd"></path><path stroke="#cc0000" stroke-width="1.0" stroke-linejoin="round" stroke-linecap="butt" d="m182.54593 300.14566l44.661423 0l0 54.362213l-44.661423 0z" fill-rule="evenodd"></path><path fill="#000000" fill-opacity="0.0" d="m182.54593 301.11417l44.661423 0l0 54.362213l-44.661423 0z" fill-rule="evenodd"></path><path fill="#000000" d="m205.41745 335.21527l-1.6875 0l1.96875 -11.265625l-3.6875 1.328125l0.296875 -1.640625l5.21875 -1.9375l0.171875 0l-2.28125 13.515625z" fill-rule="nonzero"></path><path fill="#efefef" d="m188.86089 384.563l32.03151 0l0 31.543213l-5.3386993 5.338684l-26.69281 0z" fill-rule="evenodd"></path><path fill="#bfbfbf" d="m215.5537 421.4449l1.0677338 -4.2709656l4.2709656 -1.0677185z" fill-rule="evenodd"></path><path fill="#000000" fill-opacity="0.0" d="m215.5537 421.4449l1.0677338 -4.2709656l4.2709656 -1.0677185l-5.3386993 5.338684l-26.69281 0l0 -36.881897l32.03151 0l0 31.543213" fill-rule="evenodd"></path><path stroke="#000000" stroke-width="1.0" stroke-linejoin="round" stroke-linecap="butt" d="m215.5537 421.4449l1.0677338 -4.2709656l4.2709656 -1.0677185l-5.3386993 5.338684l-26.69281 0l0 -36.881897l32.03151 0l0 31.543213" fill-rule="evenodd"></path><path fill="#000000" fill-opacity="0.0" d="m188.86089 380.65747l32.03151 0l0 40.787415l-32.03151 0z" fill-rule="evenodd"></path><path fill="#000000" d="m206.46635 407.9712l-1.71875 0l0 -11.3125l-3.53125 1.34375l0 -1.578125l5.109375 -1.96875l0.140625 0l0 13.515625z" fill-rule="nonzero"></path><path fill="#000000" fill-opacity="0.0" d="m274.50656 81.767715l215.68503 0l0 36.88189l-215.68503 0z" fill-rule="evenodd"></path><path fill="#000000" d="m286.25656 100.56647l0 4.28125l-1.34375 0l0 -10.671875l3.453125 0q0.71875 0.015625 1.359375 0.234375q0.640625 0.21875 1.125 0.625q0.484375 0.390625 0.765625 0.984375q0.28125 0.59375 0.28125 1.359375q0 0.78125 -0.28125 1.375q-0.28125 0.578125 -0.765625 0.984375q-0.484375 0.40625 -1.125 0.625q-0.640625 0.203125 -1.359375 0.203125l-2.109375 0zm0 -1.109375l2.109375 0q0.46875 0 0.859375 -0.140625q0.390625 -0.15625 0.6875 -0.421875q0.296875 -0.265625 0.453125 -0.640625q0.171875 -0.375 0.171875 -0.859375q0 -0.484375 -0.171875 -0.859375q-0.15625 -0.390625 -0.453125 -0.65625q-0.28125 -0.28125 -0.6875 -0.421875q-0.390625 -0.15625 -0.859375 -0.15625l-2.109375 0l0 4.15625zm7.5295715 -2.53125l4.046875 0l0 6.75l2.59375 0l0 1.171875l-6.640625 0l0 -1.171875l2.703125 0l0 -5.578125l-2.703125 0l0 -1.171875zm2.515625 -2.078125q0 -0.34375 0.203125 -0.5625q0.203125 -0.234375 0.609375 -0.234375q0.40625 0 0.609375 0.234375q0.203125 0.21875 0.203125 0.5625q0 0.328125 -0.203125 0.546875q-0.203125 0.21875 -0.609375 0.21875q-0.40625 0 -0.609375 -0.21875q-0.203125 -0.21875 -0.203125 -0.546875zm12.763916 6.125q0 0.84375 -0.21875 1.59375q-0.203125 0.734375 -0.59375 1.28125q-0.390625 0.53125 -0.984375 0.84375q-0.578125 0.296875 -1.328125 0.296875q-0.71875 0 -1.28125 -0.234375q-0.546875 -0.234375 -0.9375 -0.671875l0 3.8125l-1.359375 0l0 -10.96875l1.234375 0l0.078125 0.859375q0.390625 -0.484375 0.953125 -0.75q0.5625 -0.265625 1.296875 -0.265625q0.765625 0 1.34375 0.3125q0.59375 0.296875 0.984375 0.828125q0.390625 0.53125 0.59375 1.28125q0.21875 0.734375 0.21875 1.625l0 0.15625zm-1.359375 -0.15625q0 -0.578125 -0.140625 -1.09375q-0.125 -0.53125 -0.390625 -0.921875q-0.265625 -0.40625 -0.671875 -0.640625q-0.40625 -0.234375 -0.984375 -0.234375q-0.65625 0 -1.09375 0.3125q-0.4375 0.296875 -0.703125 0.765625l0 3.828125q0.265625 0.46875 0.703125 0.765625q0.4375 0.296875 1.109375 0.296875q0.5625 0 0.96875 -0.234375q0.421875 -0.25 0.671875 -0.640625q0.265625 -0.40625 0.390625 -0.9375q0.140625 -0.53125 0.140625 -1.109375l0 -0.15625zm6.9670715 4.171875q-0.84375 0 -1.546875 -0.28125q-0.6875 -0.28125 -1.1875 -0.796875q-0.5 -0.515625 -0.78125 -1.21875q-0.28125 -0.703125 -0.28125 -1.53125l0 -0.296875q0 -0.96875 0.3125 -1.71875q0.3125 -0.765625 0.8125 -1.28125q0.515625 -0.53125 1.15625 -0.8125q0.65625 -0.28125 1.328125 -0.28125q0.859375 0 1.5 0.296875q0.640625 0.296875 1.0625 0.828125q0.4375 0.515625 0.640625 1.234375q0.203125 0.703125 0.203125 1.53125l0 0.609375l-5.65625 0q0.015625 0.546875 0.203125 1.03125q0.1875 0.46875 0.515625 0.828125q0.328125 0.34375 0.78125 0.5625q0.453125 0.203125 1.0 0.203125q0.734375 0 1.296875 -0.296875q0.5625 -0.296875 0.9375 -0.78125l0.828125 0.640625q-0.203125 0.3125 -0.5 0.59375q-0.296875 0.265625 -0.6875 0.484375q-0.390625 0.203125 -0.875 0.328125q-0.484375 0.125 -1.0625 0.125zm-0.1875 -7.09375q-0.40625 0 -0.78125 0.15625q-0.359375 0.140625 -0.65625 0.4375q-0.28125 0.28125 -0.484375 0.703125q-0.203125 0.421875 -0.28125 0.96875l4.265625 0l0 -0.109375q-0.03125 -0.390625 -0.15625 -0.78125q-0.125 -0.390625 -0.375 -0.6875q-0.25 -0.3125 -0.625 -0.5q-0.375 -0.1875 -0.90625 -0.1875zm5.685791 -4.296875l4.046875 0l0 10.078125l2.59375 0l0 1.171875l-6.640625 0l0 -1.171875l2.703125 0l0 -8.90625l-2.703125 0l0 -1.171875zm8.795197 3.328125l4.046875 0l0 6.75l2.59375 0l0 1.171875l-6.640625 0l0 -1.171875l2.703125 0l0 -5.578125l-2.703125 0l0 -1.171875zm2.515625 -2.078125q0 -0.34375 0.203125 -0.5625q0.203125 -0.234375 0.609375 -0.234375q0.40625 0 0.609375 0.234375q0.203125 0.21875 0.203125 0.5625q0 0.328125 -0.203125 0.546875q-0.203125 0.21875 -0.609375 0.21875q-0.40625 0 -0.609375 -0.21875q-0.203125 -0.21875 -0.203125 -0.546875zm7.279541 2.078125l0.09375 1.171875q0.4375 -0.625 1.0625 -0.96875q0.640625 -0.34375 1.40625 -0.359375q0.625 0 1.125 0.1875q0.515625 0.171875 0.875 0.546875q0.359375 0.375 0.546875 0.953125q0.203125 0.5625 0.203125 1.359375l0 5.03125l-1.34375 0l0 -5.0q0 -0.53125 -0.125 -0.890625q-0.109375 -0.375 -0.34375 -0.59375q-0.234375 -0.234375 -0.578125 -0.328125q-0.328125 -0.109375 -0.75 -0.109375q-0.6875 0 -1.203125 0.34375q-0.515625 0.34375 -0.828125 0.890625l0 5.6875l-1.34375 0l0 -7.921875l1.203125 0zm11.092072 8.0625q-0.84375 0 -1.546875 -0.28125q-0.6875 -0.28125 -1.1875 -0.796875q-0.5 -0.515625 -0.78125 -1.21875q-0.28125 -0.703125 -0.28125 -1.53125l0 -0.296875q0 -0.96875 0.3125 -1.71875q0.3125 -0.765625 0.8125 -1.28125q0.515625 -0.53125 1.15625 -0.8125q0.65625 -0.28125 1.328125 -0.28125q0.859375 0 1.5 0.296875q0.640625 0.296875 1.0625 0.828125q0.4375 0.515625 0.640625 1.234375q0.203125 0.703125 0.203125 1.53125l0 0.609375l-5.65625 0q0.015625 0.546875 0.203125 1.03125q0.1875 0.46875 0.515625 0.828125q0.328125 0.34375 0.78125 0.5625q0.453125 0.203125 1.0 0.203125q0.734375 0 1.296875 -0.296875q0.5625 -0.296875 0.9375 -0.78125l0.828125 0.640625q-0.203125 0.3125 -0.5 0.59375q-0.296875 0.265625 -0.6875 0.484375q-0.390625 0.203125 -0.875 0.328125q-0.484375 0.125 -1.0625 0.125zm-0.1875 -7.09375q-0.40625 0 -0.78125 0.15625q-0.359375 0.140625 -0.65625 0.4375q-0.28125 0.28125 -0.484375 0.703125q-0.203125 0.421875 -0.28125 0.96875l4.265625 0l0 -0.109375q-0.03125 -0.390625 -0.15625 -0.78125q-0.125 -0.390625 -0.375 -0.6875q-0.25 -0.3125 -0.625 -0.5q-0.375 -0.1875 -0.90625 -0.1875zm19.543488 4.84375q0 -0.234375 -0.109375 -0.421875q-0.09375 -0.203125 -0.328125 -0.359375q-0.21875 -0.15625 -0.59375 -0.296875q-0.359375 -0.140625 -0.921875 -0.25q-0.6875 -0.140625 -1.25 -0.328125q-0.546875 -0.203125 -0.953125 -0.46875q-0.390625 -0.28125 -0.625 -0.65625q-0.21875 -0.375 -0.21875 -0.859375q0 -0.484375 0.21875 -0.90625q0.234375 -0.421875 0.640625 -0.734375q0.421875 -0.3125 0.984375 -0.5q0.578125 -0.1875 1.25 -0.1875q0.734375 0 1.3125 0.203125q0.59375 0.1875 1.0 0.53125q0.421875 0.328125 0.640625 0.78125q0.21875 0.453125 0.21875 0.96875l-1.359375 0q0 -0.265625 -0.125 -0.5q-0.125 -0.25 -0.359375 -0.4375q-0.234375 -0.1875 -0.578125 -0.296875q-0.328125 -0.125 -0.75 -0.125q-0.421875 0 -0.75 0.09375q-0.328125 0.09375 -0.546875 0.25q-0.21875 0.15625 -0.328125 0.375q-0.109375 0.21875 -0.109375 0.4375q0 0.234375 0.078125 0.421875q0.09375 0.1875 0.3125 0.328125q0.21875 0.140625 0.578125 0.265625q0.359375 0.109375 0.921875 0.21875q0.734375 0.15625 1.3125 0.359375q0.578125 0.203125 0.96875 0.484375q0.40625 0.28125 0.609375 0.65625q0.203125 0.375 0.203125 0.859375q0 0.53125 -0.234375 0.96875q-0.234375 0.421875 -0.671875 0.734375q-0.421875 0.3125 -1.015625 0.484375q-0.578125 0.15625 -1.28125 0.15625q-0.8125 0 -1.453125 -0.203125q-0.625 -0.21875 -1.0625 -0.578125q-0.421875 -0.359375 -0.65625 -0.828125q-0.234375 -0.46875 -0.234375 -0.96875l1.359375 0q0.03125 0.421875 0.21875 0.703125q0.1875 0.28125 0.484375 0.46875q0.296875 0.171875 0.640625 0.25q0.359375 0.0625 0.703125 0.0625q0.84375 0 1.34375 -0.3125q0.5 -0.3125 0.515625 -0.84375zm6.732666 -7.734375l0 1.921875l3.015625 0l0 1.046875l-3.015625 0l0 4.296875q0 0.46875 0.109375 0.765625q0.125 0.296875 0.328125 0.484375q0.203125 0.171875 0.46875 0.25q0.265625 0.078125 0.578125 0.078125q0.21875 0 0.453125 -0.03125q0.234375 -0.03125 0.453125 -0.0625q0.21875 -0.03125 0.40625 -0.0625q0.203125 -0.046875 0.328125 -0.078125l0.1875 0.953125q-0.171875 0.109375 -0.40625 0.1875q-0.234375 0.078125 -0.53125 0.125q-0.28125 0.0625 -0.609375 0.078125q-0.3125 0.03125 -0.625 0.03125q-0.53125 0 -0.984375 -0.140625q-0.453125 -0.15625 -0.796875 -0.484375q-0.328125 -0.328125 -0.53125 -0.84375q-0.1875 -0.515625 -0.1875 -1.25l0 -4.296875l-2.078125 0l0 -1.046875l2.078125 0l0 -1.921875l1.359375 0zm10.795197 9.84375q-0.078125 -0.15625 -0.125 -0.375q-0.046875 -0.234375 -0.078125 -0.484375q-0.203125 0.203125 -0.453125 0.390625q-0.25 0.171875 -0.5625 0.3125q-0.296875 0.140625 -0.640625 0.21875q-0.34375 0.078125 -0.734375 0.078125q-0.625 0 -1.140625 -0.171875q-0.515625 -0.1875 -0.875 -0.5q-0.34375 -0.3125 -0.546875 -0.734375q-0.1875 -0.4375 -0.1875 -0.9375q0 -0.640625 0.25 -1.125q0.265625 -0.5 0.734375 -0.828125q0.484375 -0.328125 1.15625 -0.484375q0.671875 -0.171875 1.5 -0.171875l1.484375 0l0 -0.609375q0 -0.359375 -0.140625 -0.640625q-0.125 -0.296875 -0.375 -0.5q-0.234375 -0.203125 -0.59375 -0.3125q-0.34375 -0.109375 -0.765625 -0.109375q-0.40625 0 -0.734375 0.109375q-0.3125 0.09375 -0.53125 0.265625q-0.21875 0.171875 -0.34375 0.40625q-0.109375 0.21875 -0.109375 0.46875l-1.375 0q0.015625 -0.421875 0.234375 -0.84375q0.21875 -0.421875 0.625 -0.75q0.40625 -0.328125 0.984375 -0.53125q0.578125 -0.21875 1.3125 -0.21875q0.6875 0 1.265625 0.171875q0.578125 0.171875 1.0 0.5q0.421875 0.328125 0.65625 0.828125q0.25 0.5 0.25 1.171875l0 3.671875q0 0.40625 0.0625 0.84375q0.078125 0.4375 0.203125 0.765625l0 0.125l-1.40625 0zm-2.390625 -1.03125q0.390625 0 0.734375 -0.09375q0.34375 -0.109375 0.625 -0.28125q0.28125 -0.171875 0.484375 -0.375q0.203125 -0.21875 0.328125 -0.453125l0 -1.609375l-1.265625 0q-1.1875 0 -1.84375 0.359375q-0.65625 0.34375 -0.65625 1.09375q0 0.296875 0.09375 0.546875q0.109375 0.25 0.296875 0.4375q0.203125 0.171875 0.5 0.28125q0.296875 0.09375 0.703125 0.09375zm5.732666 -3.0q0 -0.890625 0.203125 -1.625q0.21875 -0.75 0.625 -1.28125q0.421875 -0.53125 1.0 -0.828125q0.59375 -0.3125 1.328125 -0.3125q0.734375 0 1.28125 0.265625q0.5625 0.265625 0.953125 0.75l0.0625 -0.859375l1.234375 0l0 7.75q0 0.78125 -0.25 1.390625q-0.25 0.609375 -0.703125 1.03125q-0.4375 0.4375 -1.046875 0.65625q-0.609375 0.21875 -1.359375 0.21875q-0.3125 0 -0.703125 -0.078125q-0.390625 -0.0625 -0.796875 -0.21875q-0.40625 -0.15625 -0.796875 -0.421875q-0.375 -0.265625 -0.640625 -0.65625l0.703125 -0.8125q0.25 0.296875 0.515625 0.5q0.265625 0.21875 0.53125 0.34375q0.265625 0.125 0.53125 0.171875q0.28125 0.0625 0.546875 0.0625q0.484375 0 0.875 -0.140625q0.390625 -0.140625 0.65625 -0.40625q0.28125 -0.265625 0.421875 -0.671875q0.15625 -0.390625 0.15625 -0.90625l0 -0.671875q-0.390625 0.453125 -0.9375 0.6875q-0.53125 0.234375 -1.25 0.234375q-0.71875 0 -1.3125 -0.296875q-0.578125 -0.3125 -0.984375 -0.84375q-0.40625 -0.546875 -0.625 -1.28125q-0.21875 -0.75 -0.21875 -1.59375l0 -0.15625zm1.34375 0.15625q0 0.578125 0.125 1.109375q0.125 0.515625 0.375 0.90625q0.265625 0.390625 0.671875 0.625q0.40625 0.234375 0.96875 0.234375q0.34375 0 0.625 -0.078125q0.28125 -0.09375 0.5 -0.25q0.234375 -0.15625 0.40625 -0.359375q0.171875 -0.21875 0.3125 -0.46875l0 -3.640625q-0.140625 -0.25 -0.3125 -0.453125q-0.171875 -0.203125 -0.40625 -0.34375q-0.21875 -0.15625 -0.5 -0.234375q-0.28125 -0.09375 -0.609375 -0.09375q-0.578125 0 -0.984375 0.234375q-0.40625 0.234375 -0.671875 0.640625q-0.25 0.390625 -0.375 0.921875q-0.125 0.515625 -0.125 1.09375l0 0.15625zm11.201447 4.015625q-0.84375 0 -1.546875 -0.28125q-0.6875 -0.28125 -1.1875 -0.796875q-0.5 -0.515625 -0.78125 -1.21875q-0.28125 -0.703125 -0.28125 -1.53125l0 -0.296875q0 -0.96875 0.3125 -1.71875q0.3125 -0.765625 0.8125 -1.28125q0.515625 -0.53125 1.15625 -0.8125q0.65625 -0.28125 1.328125 -0.28125q0.859375 0 1.5 0.296875q0.640625 0.296875 1.0625 0.828125q0.4375 0.515625 0.640625 1.234375q0.203125 0.703125 0.203125 1.53125l0 0.609375l-5.65625 0q0.015625 0.546875 0.203125 1.03125q0.1875 0.46875 0.515625 0.828125q0.328125 0.34375 0.78125 0.5625q0.453125 0.203125 1.0 0.203125q0.734375 0 1.296875 -0.296875q0.5625 -0.296875 0.9375 -0.78125l0.828125 0.640625q-0.203125 0.3125 -0.5 0.59375q-0.296875 0.265625 -0.6875 0.484375q-0.390625 0.203125 -0.875 0.328125q-0.484375 0.125 -1.0625 0.125zm-0.1875 -7.09375q-0.40625 0 -0.78125 0.15625q-0.359375 0.140625 -0.65625 0.4375q-0.28125 0.28125 -0.484375 0.703125q-0.203125 0.421875 -0.28125 0.96875l4.265625 0l0 -0.109375q-0.03125 -0.390625 -0.15625 -0.78125q-0.125 -0.390625 -0.375 -0.6875q-0.25 -0.3125 -0.625 -0.5q-0.375 -0.1875 -0.90625 -0.1875zm15.605988 -1.71875q0 -0.359375 0.078125 -0.734375q0.078125 -0.375 0.25 -0.75q0.171875 -0.375 0.40625 -0.703125q0.234375 -0.34375 0.53125 -0.609375l0.75 0.53125q-0.34375 0.515625 -0.53125 1.0625q-0.171875 0.546875 -0.171875 1.171875l0 1.09375l-1.3125 0l0 -1.0625zm2.0 0q0 -0.359375 0.078125 -0.734375q0.078125 -0.375 0.25 -0.75q0.171875 -0.375 0.40625 -0.703125q0.234375 -0.34375 0.53125 -0.609375l0.75 0.53125q-0.34375 0.515625 -0.53125 1.0625q-0.171875 0.546875 -0.171875 1.171875l0 1.09375l-1.3125 0l0 -1.0625zm10.545166 5.90625l-3.546875 0l-0.859375 2.765625l-1.359375 0l3.4375 -10.671875l1.140625 0l3.390625 10.671875l-1.359375 0l-0.84375 -2.765625zm-3.1875 -1.171875l2.828125 0l-1.40625 -4.625l-1.421875 4.625zm10.013947 -6.390625q0 0.34375 -0.09375 0.71875q-0.078125 0.375 -0.25 0.75q-0.15625 0.375 -0.390625 0.71875q-0.234375 0.328125 -0.546875 0.59375l-0.734375 -0.53125q0.34375 -0.515625 0.515625 -1.0625q0.171875 -0.546875 0.171875 -1.171875l0 -1.09375l1.328125 0l0 1.078125zm2.0 0q0 0.34375 -0.09375 0.71875q-0.078125 0.375 -0.25 0.75q-0.15625 0.375 -0.390625 0.71875q-0.234375 0.328125 -0.546875 0.59375l-0.734375 -0.53125q0.34375 -0.515625 0.515625 -1.0625q0.171875 -0.546875 0.171875 -1.171875l0 -1.09375l1.328125 0l0 1.078125z" fill-rule="nonzero"></path><path fill="#000000" fill-opacity="0.0" d="m274.50656 204.56299l215.68503 0l0 36.881897l-215.68503 0z" fill-rule="evenodd"></path><path fill="#000000" d="m286.25656 223.36174l0 4.28125l-1.34375 0l0 -10.671875l3.453125 0q0.71875 0.015625 1.359375 0.234375q0.640625 0.21875 1.125 0.625q0.484375 0.390625 0.765625 0.984375q0.28125 0.59375 0.28125 1.359375q0 0.78125 -0.28125 1.375q-0.28125 0.578125 -0.765625 0.984375q-0.484375 0.40625 -1.125 0.625q-0.640625 0.203125 -1.359375 0.203125l-2.109375 0zm0 -1.109375l2.109375 0q0.46875 0 0.859375 -0.140625q0.390625 -0.15625 0.6875 -0.421875q0.296875 -0.265625 0.453125 -0.640625q0.171875 -0.375 0.171875 -0.859375q0 -0.484375 -0.171875 -0.859375q-0.15625 -0.390625 -0.453125 -0.65625q-0.28125 -0.28125 -0.6875 -0.421875q-0.390625 -0.15625 -0.859375 -0.15625l-2.109375 0l0 4.15625zm7.5295715 -2.53125l4.046875 0l0 6.75l2.59375 0l0 1.171875l-6.640625 0l0 -1.171875l2.703125 0l0 -5.578125l-2.703125 0l0 -1.171875zm2.515625 -2.078125q0 -0.34375 0.203125 -0.5625q0.203125 -0.234375 0.609375 -0.234375q0.40625 0 0.609375 0.234375q0.203125 0.21875 0.203125 0.5625q0 0.328125 -0.203125 0.546875q-0.203125 0.21875 -0.609375 0.21875q-0.40625 0 -0.609375 -0.21875q-0.203125 -0.21875 -0.203125 -0.546875zm12.763916 6.125q0 0.84375 -0.21875 1.59375q-0.203125 0.734375 -0.59375 1.28125q-0.390625 0.53125 -0.984375 0.84375q-0.578125 0.296875 -1.328125 0.296875q-0.71875 0 -1.28125 -0.234375q-0.546875 -0.234375 -0.9375 -0.671875l0 3.8125l-1.359375 0l0 -10.96875l1.234375 0l0.078125 0.859375q0.390625 -0.484375 0.953125 -0.75q0.5625 -0.265625 1.296875 -0.265625q0.765625 0 1.34375 0.3125q0.59375 0.296875 0.984375 0.828125q0.390625 0.53125 0.59375 1.28125q0.21875 0.734375 0.21875 1.625l0 0.15625zm-1.359375 -0.15625q0 -0.578125 -0.140625 -1.09375q-0.125 -0.53125 -0.390625 -0.921875q-0.265625 -0.40625 -0.671875 -0.640625q-0.40625 -0.234375 -0.984375 -0.234375q-0.65625 0 -1.09375 0.3125q-0.4375 0.296875 -0.703125 0.765625l0 3.828125q0.265625 0.46875 0.703125 0.765625q0.4375 0.296875 1.109375 0.296875q0.5625 0 0.96875 -0.234375q0.421875 -0.25 0.671875 -0.640625q0.265625 -0.40625 0.390625 -0.9375q0.140625 -0.53125 0.140625 -1.109375l0 -0.15625zm6.9670715 4.171875q-0.84375 0 -1.546875 -0.28125q-0.6875 -0.28125 -1.1875 -0.796875q-0.5 -0.515625 -0.78125 -1.21875q-0.28125 -0.703125 -0.28125 -1.53125l0 -0.296875q0 -0.96875 0.3125 -1.71875q0.3125 -0.765625 0.8125 -1.28125q0.515625 -0.53125 1.15625 -0.8125q0.65625 -0.28125 1.328125 -0.28125q0.859375 0 1.5 0.296875q0.640625 0.296875 1.0625 0.828125q0.4375 0.515625 0.640625 1.234375q0.203125 0.703125 0.203125 1.53125l0 0.609375l-5.65625 0q0.015625 0.546875 0.203125 1.03125q0.1875 0.46875 0.515625 0.828125q0.328125 0.34375 0.78125 0.5625q0.453125 0.203125 1.0 0.203125q0.734375 0 1.296875 -0.296875q0.5625 -0.296875 0.9375 -0.78125l0.828125 0.640625q-0.203125 0.3125 -0.5 0.59375q-0.296875 0.265625 -0.6875 0.484375q-0.390625 0.203125 -0.875 0.328125q-0.484375 0.125 -1.0625 0.125zm-0.1875 -7.09375q-0.40625 0 -0.78125 0.15625q-0.359375 0.140625 -0.65625 0.4375q-0.28125 0.28125 -0.484375 0.703125q-0.203125 0.421875 -0.28125 0.96875l4.265625 0l0 -0.109375q-0.03125 -0.390625 -0.15625 -0.78125q-0.125 -0.390625 -0.375 -0.6875q-0.25 -0.3125 -0.625 -0.5q-0.375 -0.1875 -0.90625 -0.1875zm5.685791 -4.296875l4.046875 0l0 10.078125l2.59375 0l0 1.171875l-6.640625 0l0 -1.171875l2.703125 0l0 -8.90625l-2.703125 0l0 -1.171875zm8.795197 3.328125l4.046875 0l0 6.75l2.59375 0l0 1.171875l-6.640625 0l0 -1.171875l2.703125 0l0 -5.578125l-2.703125 0l0 -1.171875zm2.515625 -2.078125q0 -0.34375 0.203125 -0.5625q0.203125 -0.234375 0.609375 -0.234375q0.40625 0 0.609375 0.234375q0.203125 0.21875 0.203125 0.5625q0 0.328125 -0.203125 0.546875q-0.203125 0.21875 -0.609375 0.21875q-0.40625 0 -0.609375 -0.21875q-0.203125 -0.21875 -0.203125 -0.546875zm7.279541 2.078125l0.09375 1.171875q0.4375 -0.625 1.0625 -0.96875q0.640625 -0.34375 1.40625 -0.359375q0.625 0 1.125 0.1875q0.515625 0.171875 0.875 0.546875q0.359375 0.375 0.546875 0.953125q0.203125 0.5625 0.203125 1.359375l0 5.03125l-1.34375 0l0 -5.0q0 -0.53125 -0.125 -0.890625q-0.109375 -0.375 -0.34375 -0.59375q-0.234375 -0.234375 -0.578125 -0.328125q-0.328125 -0.109375 -0.75 -0.109375q-0.6875 0 -1.203125 0.34375q-0.515625 0.34375 -0.828125 0.890625l0 5.6875l-1.34375 0l0 -7.921875l1.203125 0zm11.092072 8.0625q-0.84375 0 -1.546875 -0.28125q-0.6875 -0.28125 -1.1875 -0.796875q-0.5 -0.515625 -0.78125 -1.21875q-0.28125 -0.703125 -0.28125 -1.53125l0 -0.296875q0 -0.96875 0.3125 -1.71875q0.3125 -0.765625 0.8125 -1.28125q0.515625 -0.53125 1.15625 -0.8125q0.65625 -0.28125 1.328125 -0.28125q0.859375 0 1.5 0.296875q0.640625 0.296875 1.0625 0.828125q0.4375 0.515625 0.640625 1.234375q0.203125 0.703125 0.203125 1.53125l0 0.609375l-5.65625 0q0.015625 0.546875 0.203125 1.03125q0.1875 0.46875 0.515625 0.828125q0.328125 0.34375 0.78125 0.5625q0.453125 0.203125 1.0 0.203125q0.734375 0 1.296875 -0.296875q0.5625 -0.296875 0.9375 -0.78125l0.828125 0.640625q-0.203125 0.3125 -0.5 0.59375q-0.296875 0.265625 -0.6875 0.484375q-0.390625 0.203125 -0.875 0.328125q-0.484375 0.125 -1.0625 0.125zm-0.1875 -7.09375q-0.40625 0 -0.78125 0.15625q-0.359375 0.140625 -0.65625 0.4375q-0.28125 0.28125 -0.484375 0.703125q-0.203125 0.421875 -0.28125 0.96875l4.265625 0l0 -0.109375q-0.03125 -0.390625 -0.15625 -0.78125q-0.125 -0.390625 -0.375 -0.6875q-0.25 -0.3125 -0.625 -0.5q-0.375 -0.1875 -0.90625 -0.1875zm17.652863 6.0q0.359375 0 0.703125 -0.109375q0.359375 -0.125 0.625 -0.328125q0.265625 -0.21875 0.421875 -0.5q0.171875 -0.28125 0.1875 -0.609375l1.28125 0q-0.015625 0.53125 -0.28125 1.015625q-0.265625 0.46875 -0.71875 0.84375q-0.4375 0.359375 -1.015625 0.578125q-0.578125 0.203125 -1.203125 0.203125q-0.90625 0 -1.578125 -0.3125q-0.671875 -0.328125 -1.125 -0.875q-0.453125 -0.546875 -0.6875 -1.25q-0.21875 -0.71875 -0.21875 -1.515625l0 -0.296875q0 -0.796875 0.21875 -1.5q0.234375 -0.71875 0.6875 -1.265625q0.453125 -0.546875 1.125 -0.875q0.671875 -0.328125 1.578125 -0.328125q0.703125 0 1.28125 0.234375q0.59375 0.21875 1.015625 0.609375q0.4375 0.375 0.671875 0.90625q0.25 0.53125 0.25 1.125l-1.28125 0q-0.015625 -0.359375 -0.171875 -0.671875q-0.140625 -0.328125 -0.40625 -0.5625q-0.25 -0.25 -0.609375 -0.375q-0.34375 -0.140625 -0.75 -0.140625q-0.640625 0 -1.0625 0.25q-0.421875 0.25 -0.6875 0.65625q-0.265625 0.40625 -0.390625 0.921875q-0.109375 0.5 -0.109375 1.015625l0 0.296875q0 0.53125 0.109375 1.046875q0.125 0.5 0.375 0.90625q0.265625 0.40625 0.6875 0.65625q0.4375 0.25 1.078125 0.25zm5.029541 -3.078125q0 -0.859375 0.25 -1.59375q0.25 -0.734375 0.71875 -1.28125q0.46875 -0.546875 1.125 -0.859375q0.671875 -0.3125 1.5 -0.3125q0.84375 0 1.515625 0.3125q0.671875 0.3125 1.140625 0.859375q0.46875 0.546875 0.703125 1.28125q0.25 0.734375 0.25 1.59375l0 0.15625q0 0.859375 -0.25 1.59375q-0.234375 0.734375 -0.703125 1.28125q-0.46875 0.53125 -1.140625 0.84375q-0.65625 0.296875 -1.5 0.296875q-0.84375 0 -1.515625 -0.296875q-0.65625 -0.3125 -1.125 -0.84375q-0.46875 -0.546875 -0.71875 -1.28125q-0.25 -0.734375 -0.25 -1.59375l0 -0.15625zm1.359375 0.15625q0 0.59375 0.140625 1.125q0.140625 0.515625 0.421875 0.921875q0.28125 0.40625 0.703125 0.640625q0.421875 0.234375 0.984375 0.234375q0.5625 0 0.984375 -0.234375q0.421875 -0.234375 0.703125 -0.640625q0.28125 -0.40625 0.421875 -0.921875q0.140625 -0.53125 0.140625 -1.125l0 -0.15625q0 -0.578125 -0.15625 -1.109375q-0.140625 -0.53125 -0.421875 -0.9375q-0.28125 -0.40625 -0.703125 -0.640625q-0.421875 -0.234375 -0.984375 -0.234375q-0.5625 0 -0.984375 0.234375q-0.40625 0.234375 -0.6875 0.640625q-0.28125 0.40625 -0.421875 0.9375q-0.140625 0.53125 -0.140625 1.109375l0 0.15625zm9.029572 -4.046875l0.09375 1.171875q0.4375 -0.625 1.0625 -0.96875q0.640625 -0.34375 1.40625 -0.359375q0.625 0 1.125 0.1875q0.515625 0.171875 0.875 0.546875q0.359375 0.375 0.546875 0.953125q0.203125 0.5625 0.203125 1.359375l0 5.03125l-1.34375 0l0 -5.0q0 -0.53125 -0.125 -0.890625q-0.109375 -0.375 -0.34375 -0.59375q-0.234375 -0.234375 -0.578125 -0.328125q-0.328125 -0.109375 -0.75 -0.109375q-0.6875 0 -1.203125 0.34375q-0.515625 0.34375 -0.828125 0.890625l0 5.6875l-1.34375 0l0 -7.921875l1.203125 0zm9.607666 7.921875l0 -6.875l-2.1875 0l0 -1.046875l2.1875 0l0 -0.5625q0 -0.765625 0.21875 -1.328125q0.234375 -0.578125 0.640625 -0.96875q0.40625 -0.390625 0.96875 -0.578125q0.578125 -0.203125 1.28125 -0.203125q0.484375 0 0.9375 0.078125q0.453125 0.078125 0.9375 0.203125l-0.15625 1.125q-0.296875 -0.109375 -0.703125 -0.1875q-0.390625 -0.078125 -0.859375 -0.078125q-0.9375 0.015625 -1.421875 0.5q-0.484375 0.46875 -0.484375 1.4375l0 0.5625l3.0625 0l0 1.046875l-3.0625 0l0 6.875l-1.359375 0zm6.9898376 -7.921875l4.046875 0l0 6.75l2.59375 0l0 1.171875l-6.640625 0l0 -1.171875l2.703125 0l0 -5.578125l-2.703125 0l0 -1.171875zm2.515625 -2.078125q0 -0.34375 0.203125 -0.5625q0.203125 -0.234375 0.609375 -0.234375q0.40625 0 0.609375 0.234375q0.203125 0.21875 0.203125 0.5625q0 0.328125 -0.203125 0.546875q-0.203125 0.21875 -0.609375 0.21875q-0.40625 0 -0.609375 -0.21875q-0.203125 -0.21875 -0.203125 -0.546875zm5.8264465 5.96875q0 -0.890625 0.203125 -1.625q0.21875 -0.75 0.625 -1.28125q0.421875 -0.53125 1.0 -0.828125q0.59375 -0.3125 1.328125 -0.3125q0.734375 0 1.28125 0.265625q0.5625 0.265625 0.953125 0.75l0.0625 -0.859375l1.234375 0l0 7.75q0 0.78125 -0.25 1.390625q-0.25 0.609375 -0.703125 1.03125q-0.4375 0.4375 -1.046875 0.65625q-0.609375 0.21875 -1.359375 0.21875q-0.3125 0 -0.703125 -0.078125q-0.390625 -0.0625 -0.796875 -0.21875q-0.40625 -0.15625 -0.796875 -0.421875q-0.375 -0.265625 -0.640625 -0.65625l0.703125 -0.8125q0.25 0.296875 0.515625 0.5q0.265625 0.21875 0.53125 0.34375q0.265625 0.125 0.53125 0.171875q0.28125 0.0625 0.546875 0.0625q0.484375 0 0.875 -0.140625q0.390625 -0.140625 0.65625 -0.40625q0.28125 -0.265625 0.421875 -0.671875q0.15625 -0.390625 0.15625 -0.90625l0 -0.671875q-0.390625 0.453125 -0.9375 0.6875q-0.53125 0.234375 -1.25 0.234375q-0.71875 0 -1.3125 -0.296875q-0.578125 -0.3125 -0.984375 -0.84375q-0.40625 -0.546875 -0.625 -1.28125q-0.21875 -0.75 -0.21875 -1.59375l0 -0.15625zm1.34375 0.15625q0 0.578125 0.125 1.109375q0.125 0.515625 0.375 0.90625q0.265625 0.390625 0.671875 0.625q0.40625 0.234375 0.96875 0.234375q0.34375 0 0.625 -0.078125q0.28125 -0.09375 0.5 -0.25q0.234375 -0.15625 0.40625 -0.359375q0.171875 -0.21875 0.3125 -0.46875l0 -3.640625q-0.140625 -0.25 -0.3125 -0.453125q-0.171875 -0.203125 -0.40625 -0.34375q-0.21875 -0.15625 -0.5 -0.234375q-0.28125 -0.09375 -0.609375 -0.09375q-0.578125 0 -0.984375 0.234375q-0.40625 0.234375 -0.671875 0.640625q-0.25 0.390625 -0.375 0.921875q-0.125 0.515625 -0.125 1.09375l0 0.15625zm12.842041 2.78125q-0.40625 0.59375 -1.0 0.921875q-0.59375 0.3125 -1.359375 0.3125q-0.625 0 -1.140625 -0.1875q-0.5 -0.1875 -0.859375 -0.59375q-0.359375 -0.421875 -0.5625 -1.046875q-0.1875 -0.640625 -0.1875 -1.53125l0 -4.703125l1.359375 0l0 4.71875q0 0.640625 0.09375 1.078125q0.109375 0.421875 0.3125 0.671875q0.203125 0.25 0.5 0.359375q0.296875 0.09375 0.6875 0.09375q0.828125 0 1.328125 -0.328125q0.515625 -0.34375 0.765625 -0.90625l0 -5.6875l1.375 0l0 7.921875l-1.234375 0l-0.078125 -1.09375zm8.842072 -6.984375q0.1875 0 0.390625 0.015625q0.203125 0.015625 0.390625 0.046875q0.1875 0.015625 0.34375 0.0625q0.15625 0.03125 0.265625 0.078125l-0.1875 1.3125q-0.390625 -0.078125 -0.75 -0.109375q-0.359375 -0.046875 -0.734375 -0.046875q-0.953125 0 -1.546875 0.4375q-0.59375 0.421875 -0.875 1.203125l0 5.078125l-1.359375 0l0 -7.921875l1.296875 0l0.0625 1.25q0.484375 -0.640625 1.15625 -1.015625q0.6875 -0.390625 1.546875 -0.390625zm8.810791 8.078125q-0.078125 -0.15625 -0.125 -0.375q-0.046875 -0.234375 -0.078125 -0.484375q-0.203125 0.203125 -0.453125 0.390625q-0.25 0.171875 -0.5625 0.3125q-0.296875 0.140625 -0.640625 0.21875q-0.34375 0.078125 -0.734375 0.078125q-0.625 0 -1.140625 -0.171875q-0.515625 -0.1875 -0.875 -0.5q-0.34375 -0.3125 -0.546875 -0.734375q-0.1875 -0.4375 -0.1875 -0.9375q0 -0.640625 0.25 -1.125q0.265625 -0.5 0.734375 -0.828125q0.484375 -0.328125 1.15625 -0.484375q0.671875 -0.171875 1.5 -0.171875l1.484375 0l0 -0.609375q0 -0.359375 -0.140625 -0.640625q-0.125 -0.296875 -0.375 -0.5q-0.234375 -0.203125 -0.59375 -0.3125q-0.34375 -0.109375 -0.765625 -0.109375q-0.40625 0 -0.734375 0.109375q-0.3125 0.09375 -0.53125 0.265625q-0.21875 0.171875 -0.34375 0.40625q-0.109375 0.21875 -0.109375 0.46875l-1.375 0q0.015625 -0.421875 0.234375 -0.84375q0.21875 -0.421875 0.625 -0.75q0.40625 -0.328125 0.984375 -0.53125q0.578125 -0.21875 1.3125 -0.21875q0.6875 0 1.265625 0.171875q0.578125 0.171875 1.0 0.5q0.421875 0.328125 0.65625 0.828125q0.25 0.5 0.25 1.171875l0 3.671875q0 0.40625 0.0625 0.84375q0.078125 0.4375 0.203125 0.765625l0 0.125l-1.40625 0zm-2.390625 -1.03125q0.390625 0 0.734375 -0.09375q0.34375 -0.109375 0.625 -0.28125q0.28125 -0.171875 0.484375 -0.375q0.203125 -0.21875 0.328125 -0.453125l0 -1.609375l-1.265625 0q-1.1875 0 -1.84375 0.359375q-0.65625 0.34375 -0.65625 1.09375q0 0.296875 0.09375 0.546875q0.109375 0.25 0.296875 0.4375q0.203125 0.171875 0.5 0.28125q0.296875 0.09375 0.703125 0.09375zm9.185822 -8.8125l0 1.921875l3.015625 0l0 1.046875l-3.015625 0l0 4.296875q0 0.46875 0.109375 0.765625q0.125 0.296875 0.328125 0.484375q0.203125 0.171875 0.46875 0.25q0.265625 0.078125 0.578125 0.078125q0.21875 0 0.453125 -0.03125q0.234375 -0.03125 0.453125 -0.0625q0.21875 -0.03125 0.40625 -0.0625q0.203125 -0.046875 0.328125 -0.078125l0.1875 0.953125q-0.171875 0.109375 -0.40625 0.1875q-0.234375 0.078125 -0.53125 0.125q-0.28125 0.0625 -0.609375 0.078125q-0.3125 0.03125 -0.625 0.03125q-0.53125 0 -0.984375 -0.140625q-0.453125 -0.15625 -0.796875 -0.484375q-0.328125 -0.328125 -0.53125 -0.84375q-0.1875 -0.515625 -0.1875 -1.25l0 -4.296875l-2.078125 0l0 -1.046875l2.078125 0l0 -1.921875l1.359375 0zm5.795166 1.921875l4.046875 0l0 6.75l2.59375 0l0 1.171875l-6.640625 0l0 -1.171875l2.703125 0l0 -5.578125l-2.703125 0l0 -1.171875zm2.515625 -2.078125q0 -0.34375 0.203125 -0.5625q0.203125 -0.234375 0.609375 -0.234375q0.40625 0 0.609375 0.234375q0.203125 0.21875 0.203125 0.5625q0 0.328125 -0.203125 0.546875q-0.203125 0.21875 -0.609375 0.21875q-0.40625 0 -0.609375 -0.21875q-0.203125 -0.21875 -0.203125 -0.546875zm5.6858215 5.96875q0 -0.859375 0.25 -1.59375q0.25 -0.734375 0.71875 -1.28125q0.46875 -0.546875 1.125 -0.859375q0.671875 -0.3125 1.5 -0.3125q0.84375 0 1.515625 0.3125q0.671875 0.3125 1.140625 0.859375q0.46875 0.546875 0.703125 1.28125q0.25 0.734375 0.25 1.59375l0 0.15625q0 0.859375 -0.25 1.59375q-0.234375 0.734375 -0.703125 1.28125q-0.46875 0.53125 -1.140625 0.84375q-0.65625 0.296875 -1.5 0.296875q-0.84375 0 -1.515625 -0.296875q-0.65625 -0.3125 -1.125 -0.84375q-0.46875 -0.546875 -0.71875 -1.28125q-0.25 -0.734375 -0.25 -1.59375l0 -0.15625zm1.359375 0.15625q0 0.59375 0.140625 1.125q0.140625 0.515625 0.421875 0.921875q0.28125 0.40625 0.703125 0.640625q0.421875 0.234375 0.984375 0.234375q0.5625 0 0.984375 -0.234375q0.421875 -0.234375 0.703125 -0.640625q0.28125 -0.40625 0.421875 -0.921875q0.140625 -0.53125 0.140625 -1.125l0 -0.15625q0 -0.578125 -0.15625 -1.109375q-0.140625 -0.53125 -0.421875 -0.9375q-0.28125 -0.40625 -0.703125 -0.640625q-0.421875 -0.234375 -0.984375 -0.234375q-0.5625 0 -0.984375 0.234375q-0.40625 0.234375 -0.6875 0.640625q-0.28125 0.40625 -0.421875 0.9375q-0.140625 0.53125 -0.140625 1.109375l0 0.15625zm9.029541 -4.046875l0.09375 1.171875q0.4375 -0.625 1.0625 -0.96875q0.640625 -0.34375 1.40625 -0.359375q0.625 0 1.125 0.1875q0.515625 0.171875 0.875 0.546875q0.359375 0.375 0.546875 0.953125q0.203125 0.5625 0.203125 1.359375l0 5.03125l-1.34375 0l0 -5.0q0 -0.53125 -0.125 -0.890625q-0.109375 -0.375 -0.34375 -0.59375q-0.234375 -0.234375 -0.578125 -0.328125q-0.328125 -0.109375 -0.75 -0.109375q-0.6875 0 -1.203125 0.34375q-0.515625 0.34375 -0.828125 0.890625l0 5.6875l-1.34375 0l0 -7.921875l1.203125 0z" fill-rule="nonzero"></path><path fill="#000000" fill-opacity="0.0" d="m274.50656 309.85434l235.55905 0l0 36.881866l-235.55905 0z" fill-rule="evenodd"></path><path fill="#000000" d="m290.6472 328.01245l-4.453125 0l0 3.765625l5.1875 0l0 1.15625l-6.546875 0l0 -10.671875l6.484375 0l0 1.171875l-5.125 0l0 3.421875l4.453125 0l0 1.15625zm6.2014465 -0.0625l2.125 -2.9375l1.578125 0l-2.953125 3.921875l3.03125 4.0l-1.5625 0l-2.1875 -3.015625l-2.1875 3.015625l-1.578125 0l3.03125 -4.0l-2.953125 -3.921875l1.5625 0l2.09375 2.9375zm12.217041 1.109375q0 0.84375 -0.21875 1.59375q-0.203125 0.734375 -0.59375 1.28125q-0.390625 0.53125 -0.984375 0.84375q-0.578125 0.296875 -1.328125 0.296875q-0.71875 0 -1.28125 -0.234375q-0.546875 -0.234375 -0.9375 -0.671875l0 3.8125l-1.359375 0l0 -10.96875l1.234375 0l0.078125 0.859375q0.390625 -0.484375 0.953125 -0.75q0.5625 -0.265625 1.296875 -0.265625q0.765625 0 1.34375 0.3125q0.59375 0.296875 0.984375 0.828125q0.390625 0.53125 0.59375 1.28125q0.21875 0.734375 0.21875 1.625l0 0.15625zm-1.359375 -0.15625q0 -0.578125 -0.140625 -1.09375q-0.125 -0.53125 -0.390625 -0.921875q-0.265625 -0.40625 -0.671875 -0.640625q-0.40625 -0.234375 -0.984375 -0.234375q-0.65625 0 -1.09375 0.3125q-0.4375 0.296875 -0.703125 0.765625l0 3.828125q0.265625 0.46875 0.703125 0.765625q0.4375 0.296875 1.109375 0.296875q0.5625 0 0.96875 -0.234375q0.421875 -0.25 0.671875 -0.640625q0.265625 -0.40625 0.390625 -0.9375q0.140625 -0.53125 0.140625 -1.109375l0 -0.15625zm6.9670715 4.171875q-0.84375 0 -1.546875 -0.28125q-0.6875 -0.28125 -1.1875 -0.796875q-0.5 -0.515625 -0.78125 -1.21875q-0.28125 -0.703125 -0.28125 -1.53125l0 -0.296875q0 -0.96875 0.3125 -1.71875q0.3125 -0.765625 0.8125 -1.28125q0.515625 -0.53125 1.15625 -0.8125q0.65625 -0.28125 1.328125 -0.28125q0.859375 0 1.5 0.296875q0.640625 0.296875 1.0625 0.828125q0.4375 0.515625 0.640625 1.234375q0.203125 0.703125 0.203125 1.53125l0 0.609375l-5.65625 0q0.015625 0.546875 0.203125 1.03125q0.1875 0.46875 0.515625 0.828125q0.328125 0.34375 0.78125 0.5625q0.453125 0.203125 1.0 0.203125q0.734375 0 1.296875 -0.296875q0.5625 -0.296875 0.9375 -0.78125l0.828125 0.640625q-0.203125 0.3125 -0.5 0.59375q-0.296875 0.265625 -0.6875 0.484375q-0.390625 0.203125 -0.875 0.328125q-0.484375 0.125 -1.0625 0.125zm-0.1875 -7.09375q-0.40625 0 -0.78125 0.15625q-0.359375 0.140625 -0.65625 0.4375q-0.28125 0.28125 -0.484375 0.703125q-0.203125 0.421875 -0.28125 0.96875l4.265625 0l0 -0.109375q-0.03125 -0.390625 -0.15625 -0.78125q-0.125 -0.390625 -0.375 -0.6875q-0.25 -0.3125 -0.625 -0.5q-0.375 -0.1875 -0.90625 -0.1875zm8.857666 6.0q0.359375 0 0.703125 -0.109375q0.359375 -0.125 0.625 -0.328125q0.265625 -0.21875 0.421875 -0.5q0.171875 -0.28125 0.1875 -0.609375l1.28125 0q-0.015625 0.53125 -0.28125 1.015625q-0.265625 0.46875 -0.71875 0.84375q-0.4375 0.359375 -1.015625 0.578125q-0.578125 0.203125 -1.203125 0.203125q-0.90625 0 -1.578125 -0.3125q-0.671875 -0.328125 -1.125 -0.875q-0.453125 -0.546875 -0.6875 -1.25q-0.21875 -0.71875 -0.21875 -1.515625l0 -0.296875q0 -0.796875 0.21875 -1.5q0.234375 -0.71875 0.6875 -1.265625q0.453125 -0.546875 1.125 -0.875q0.671875 -0.328125 1.578125 -0.328125q0.703125 0 1.28125 0.234375q0.59375 0.21875 1.015625 0.609375q0.4375 0.375 0.671875 0.90625q0.25 0.53125 0.25 1.125l-1.28125 0q-0.015625 -0.359375 -0.171875 -0.671875q-0.140625 -0.328125 -0.40625 -0.5625q-0.25 -0.25 -0.609375 -0.375q-0.34375 -0.140625 -0.75 -0.140625q-0.640625 0 -1.0625 0.25q-0.421875 0.25 -0.6875 0.65625q-0.265625 0.40625 -0.390625 0.921875q-0.109375 0.5 -0.109375 1.015625l0 0.296875q0 0.53125 0.109375 1.046875q0.125 0.5 0.375 0.90625q0.265625 0.40625 0.6875 0.65625q0.4375 0.25 1.078125 0.25zm8.623322 -8.890625l0 1.921875l3.015625 0l0 1.046875l-3.015625 0l0 4.296875q0 0.46875 0.109375 0.765625q0.125 0.296875 0.328125 0.484375q0.203125 0.171875 0.46875 0.25q0.265625 0.078125 0.578125 0.078125q0.21875 0 0.453125 -0.03125q0.234375 -0.03125 0.453125 -0.0625q0.21875 -0.03125 0.40625 -0.0625q0.203125 -0.046875 0.328125 -0.078125l0.1875 0.953125q-0.171875 0.109375 -0.40625 0.1875q-0.234375 0.078125 -0.53125 0.125q-0.28125 0.0625 -0.609375 0.078125q-0.3125 0.03125 -0.625 0.03125q-0.53125 0 -0.984375 -0.140625q-0.453125 -0.15625 -0.796875 -0.484375q-0.328125 -0.328125 -0.53125 -0.84375q-0.1875 -0.515625 -0.1875 -1.25l0 -4.296875l-2.078125 0l0 -1.046875l2.078125 0l0 -1.921875l1.359375 0zm9.092041 9.984375q-0.84375 0 -1.546875 -0.28125q-0.6875 -0.28125 -1.1875 -0.796875q-0.5 -0.515625 -0.78125 -1.21875q-0.28125 -0.703125 -0.28125 -1.53125l0 -0.296875q0 -0.96875 0.3125 -1.71875q0.3125 -0.765625 0.8125 -1.28125q0.515625 -0.53125 1.15625 -0.8125q0.65625 -0.28125 1.328125 -0.28125q0.859375 0 1.5 0.296875q0.640625 0.296875 1.0625 0.828125q0.4375 0.515625 0.640625 1.234375q0.203125 0.703125 0.203125 1.53125l0 0.609375l-5.65625 0q0.015625 0.546875 0.203125 1.03125q0.1875 0.46875 0.515625 0.828125q0.328125 0.34375 0.78125 0.5625q0.453125 0.203125 1.0 0.203125q0.734375 0 1.296875 -0.296875q0.5625 -0.296875 0.9375 -0.78125l0.828125 0.640625q-0.203125 0.3125 -0.5 0.59375q-0.296875 0.265625 -0.6875 0.484375q-0.390625 0.203125 -0.875 0.328125q-0.484375 0.125 -1.0625 0.125zm-0.1875 -7.09375q-0.40625 0 -0.78125 0.15625q-0.359375 0.140625 -0.65625 0.4375q-0.28125 0.28125 -0.484375 0.703125q-0.203125 0.421875 -0.28125 0.96875l4.265625 0l0 -0.109375q-0.03125 -0.390625 -0.15625 -0.78125q-0.125 -0.390625 -0.375 -0.6875q-0.25 -0.3125 -0.625 -0.5q-0.375 -0.1875 -0.90625 -0.1875zm5.2170715 2.921875q0 -0.890625 0.21875 -1.625q0.234375 -0.75 0.640625 -1.28125q0.421875 -0.53125 1.0 -0.828125q0.59375 -0.3125 1.3125 -0.3125q0.71875 0 1.25 0.25q0.53125 0.234375 0.90625 0.6875l0 -4.109375l1.359375 0l0 11.25l-1.25 0l-0.046875 -0.828125q-0.40625 0.46875 -0.953125 0.71875q-0.546875 0.25 -1.28125 0.25q-0.71875 0 -1.296875 -0.296875q-0.578125 -0.3125 -1.0 -0.84375q-0.40625 -0.546875 -0.640625 -1.28125q-0.21875 -0.75 -0.21875 -1.59375l0 -0.15625zm1.359375 0.15625q0 0.578125 0.125 1.109375q0.125 0.515625 0.375 0.90625q0.265625 0.390625 0.671875 0.625q0.40625 0.234375 0.96875 0.234375q0.34375 0 0.609375 -0.078125q0.28125 -0.09375 0.5 -0.234375q0.234375 -0.15625 0.40625 -0.359375q0.1875 -0.203125 0.3125 -0.46875l0 -3.671875q-0.25 -0.484375 -0.703125 -0.796875q-0.453125 -0.3125 -1.109375 -0.3125q-0.578125 0 -0.984375 0.234375q-0.40625 0.234375 -0.671875 0.640625q-0.25 0.390625 -0.375 0.921875q-0.125 0.515625 -0.125 1.09375l0 0.15625zm21.699738 3.875q-0.078125 -0.15625 -0.125 -0.375q-0.046875 -0.234375 -0.078125 -0.484375q-0.203125 0.203125 -0.453125 0.390625q-0.25 0.171875 -0.5625 0.3125q-0.296875 0.140625 -0.640625 0.21875q-0.34375 0.078125 -0.734375 0.078125q-0.625 0 -1.140625 -0.171875q-0.515625 -0.1875 -0.875 -0.5q-0.34375 -0.3125 -0.546875 -0.734375q-0.1875 -0.4375 -0.1875 -0.9375q0 -0.640625 0.25 -1.125q0.265625 -0.5 0.734375 -0.828125q0.484375 -0.328125 1.15625 -0.484375q0.671875 -0.171875 1.5 -0.171875l1.484375 0l0 -0.609375q0 -0.359375 -0.140625 -0.640625q-0.125 -0.296875 -0.375 -0.5q-0.234375 -0.203125 -0.59375 -0.3125q-0.34375 -0.109375 -0.765625 -0.109375q-0.40625 0 -0.734375 0.109375q-0.3125 0.09375 -0.53125 0.265625q-0.21875 0.171875 -0.34375 0.40625q-0.109375 0.21875 -0.109375 0.46875l-1.375 0q0.015625 -0.421875 0.234375 -0.84375q0.21875 -0.421875 0.625 -0.75q0.40625 -0.328125 0.984375 -0.53125q0.578125 -0.21875 1.3125 -0.21875q0.6875 0 1.265625 0.171875q0.578125 0.171875 1.0 0.5q0.421875 0.328125 0.65625 0.828125q0.25 0.5 0.25 1.171875l0 3.671875q0 0.40625 0.0625 0.84375q0.078125 0.4375 0.203125 0.765625l0 0.125l-1.40625 0zm-2.390625 -1.03125q0.390625 0 0.734375 -0.09375q0.34375 -0.109375 0.625 -0.28125q0.28125 -0.171875 0.484375 -0.375q0.203125 -0.21875 0.328125 -0.453125l0 -1.609375l-1.265625 0q-1.1875 0 -1.84375 0.359375q-0.65625 0.34375 -0.65625 1.09375q0 0.296875 0.09375 0.546875q0.109375 0.25 0.296875 0.4375q0.203125 0.171875 0.5 0.28125q0.296875 0.09375 0.703125 0.09375zm11.170166 -7.046875q0.1875 0 0.390625 0.015625q0.203125 0.015625 0.390625 0.046875q0.1875 0.015625 0.34375 0.0625q0.15625 0.03125 0.265625 0.078125l-0.1875 1.3125q-0.390625 -0.078125 -0.75 -0.109375q-0.359375 -0.046875 -0.734375 -0.046875q-0.953125 0 -1.546875 0.4375q-0.59375 0.421875 -0.875 1.203125l0 5.078125l-1.359375 0l0 -7.921875l1.296875 0l0.0625 1.25q0.484375 -0.640625 1.15625 -1.015625q0.6875 -0.390625 1.546875 -0.390625zm6.8108215 -1.765625l0 1.921875l3.015625 0l0 1.046875l-3.015625 0l0 4.296875q0 0.46875 0.109375 0.765625q0.125 0.296875 0.328125 0.484375q0.203125 0.171875 0.46875 0.25q0.265625 0.078125 0.578125 0.078125q0.21875 0 0.453125 -0.03125q0.234375 -0.03125 0.453125 -0.0625q0.21875 -0.03125 0.40625 -0.0625q0.203125 -0.046875 0.328125 -0.078125l0.1875 0.953125q-0.171875 0.109375 -0.40625 0.1875q-0.234375 0.078125 -0.53125 0.125q-0.28125 0.0625 -0.609375 0.078125q-0.3125 0.03125 -0.625 0.03125q-0.53125 0 -0.984375 -0.140625q-0.453125 -0.15625 -0.796875 -0.484375q-0.328125 -0.328125 -0.53125 -0.84375q-0.1875 -0.515625 -0.1875 -1.25l0 -4.296875l-2.078125 0l0 -1.046875l2.078125 0l0 -1.921875l1.359375 0zm5.795166 1.921875l4.046875 0l0 6.75l2.59375 0l0 1.171875l-6.640625 0l0 -1.171875l2.703125 0l0 -5.578125l-2.703125 0l0 -1.171875zm2.515625 -2.078125q0 -0.34375 0.203125 -0.5625q0.203125 -0.234375 0.609375 -0.234375q0.40625 0 0.609375 0.234375q0.203125 0.21875 0.203125 0.5625q0 0.328125 -0.203125 0.546875q-0.203125 0.21875 -0.609375 0.21875q-0.40625 0 -0.609375 -0.21875q-0.203125 -0.21875 -0.203125 -0.546875zm8.092072 10.0l0 -6.875l-2.1875 0l0 -1.046875l2.1875 0l0 -0.5625q0 -0.765625 0.21875 -1.328125q0.234375 -0.578125 0.640625 -0.96875q0.40625 -0.390625 0.96875 -0.578125q0.578125 -0.203125 1.28125 -0.203125q0.484375 0 0.9375 0.078125q0.453125 0.078125 0.9375 0.203125l-0.15625 1.125q-0.296875 -0.109375 -0.703125 -0.1875q-0.390625 -0.078125 -0.859375 -0.078125q-0.9375 0.015625 -1.421875 0.5q-0.484375 0.46875 -0.484375 1.4375l0 0.5625l3.0625 0l0 1.046875l-3.0625 0l0 6.875l-1.359375 0zm11.989838 0q-0.078125 -0.15625 -0.125 -0.375q-0.046875 -0.234375 -0.078125 -0.484375q-0.203125 0.203125 -0.453125 0.390625q-0.25 0.171875 -0.5625 0.3125q-0.296875 0.140625 -0.640625 0.21875q-0.34375 0.078125 -0.734375 0.078125q-0.625 0 -1.140625 -0.171875q-0.515625 -0.1875 -0.875 -0.5q-0.34375 -0.3125 -0.546875 -0.734375q-0.1875 -0.4375 -0.1875 -0.9375q0 -0.640625 0.25 -1.125q0.265625 -0.5 0.734375 -0.828125q0.484375 -0.328125 1.15625 -0.484375q0.671875 -0.171875 1.5 -0.171875l1.484375 0l0 -0.609375q0 -0.359375 -0.140625 -0.640625q-0.125 -0.296875 -0.375 -0.5q-0.234375 -0.203125 -0.59375 -0.3125q-0.34375 -0.109375 -0.765625 -0.109375q-0.40625 0 -0.734375 0.109375q-0.3125 0.09375 -0.53125 0.265625q-0.21875 0.171875 -0.34375 0.40625q-0.109375 0.21875 -0.109375 0.46875l-1.375 0q0.015625 -0.421875 0.234375 -0.84375q0.21875 -0.421875 0.625 -0.75q0.40625 -0.328125 0.984375 -0.53125q0.578125 -0.21875 1.3125 -0.21875q0.6875 0 1.265625 0.171875q0.578125 0.171875 1.0 0.5q0.421875 0.328125 0.65625 0.828125q0.25 0.5 0.25 1.171875l0 3.671875q0 0.40625 0.0625 0.84375q0.078125 0.4375 0.203125 0.765625l0 0.125l-1.40625 0zm-2.390625 -1.03125q0.390625 0 0.734375 -0.09375q0.34375 -0.109375 0.625 -0.28125q0.28125 -0.171875 0.484375 -0.375q0.203125 -0.21875 0.328125 -0.453125l0 -1.609375l-1.265625 0q-1.1875 0 -1.84375 0.359375q-0.65625 0.34375 -0.65625 1.09375q0 0.296875 0.09375 0.546875q0.109375 0.25 0.296875 0.4375q0.203125 0.171875 0.5 0.28125q0.296875 0.09375 0.703125 0.09375zm9.357666 0.078125q0.359375 0 0.703125 -0.109375q0.359375 -0.125 0.625 -0.328125q0.265625 -0.21875 0.421875 -0.5q0.171875 -0.28125 0.1875 -0.609375l1.28125 0q-0.015625 0.53125 -0.28125 1.015625q-0.265625 0.46875 -0.71875 0.84375q-0.4375 0.359375 -1.015625 0.578125q-0.578125 0.203125 -1.203125 0.203125q-0.90625 0 -1.578125 -0.3125q-0.671875 -0.328125 -1.125 -0.875q-0.453125 -0.546875 -0.6875 -1.25q-0.21875 -0.71875 -0.21875 -1.515625l0 -0.296875q0 -0.796875 0.21875 -1.5q0.234375 -0.71875 0.6875 -1.265625q0.453125 -0.546875 1.125 -0.875q0.671875 -0.328125 1.578125 -0.328125q0.703125 0 1.28125 0.234375q0.59375 0.21875 1.015625 0.609375q0.4375 0.375 0.671875 0.90625q0.25 0.53125 0.25 1.125l-1.28125 0q-0.015625 -0.359375 -0.171875 -0.671875q-0.140625 -0.328125 -0.40625 -0.5625q-0.25 -0.25 -0.609375 -0.375q-0.34375 -0.140625 -0.75 -0.140625q-0.640625 0 -1.0625 0.25q-0.421875 0.25 -0.6875 0.65625q-0.265625 0.40625 -0.390625 0.921875q-0.109375 0.5 -0.109375 1.015625l0 0.296875q0 0.53125 0.109375 1.046875q0.125 0.5 0.375 0.90625q0.265625 0.40625 0.6875 0.65625q0.4375 0.25 1.078125 0.25zm8.623322 -8.890625l0 1.921875l3.015625 0l0 1.046875l-3.015625 0l0 4.296875q0 0.46875 0.109375 0.765625q0.125 0.296875 0.328125 0.484375q0.203125 0.171875 0.46875 0.25q0.265625 0.078125 0.578125 0.078125q0.21875 0 0.453125 -0.03125q0.234375 -0.03125 0.453125 -0.0625q0.21875 -0.03125 0.40625 -0.0625q0.203125 -0.046875 0.328125 -0.078125l0.1875 0.953125q-0.171875 0.109375 -0.40625 0.1875q-0.234375 0.078125 -0.53125 0.125q-0.28125 0.0625 -0.609375 0.078125q-0.3125 0.03125 -0.625 0.03125q-0.53125 0 -0.984375 -0.140625q-0.453125 -0.15625 -0.796875 -0.484375q-0.328125 -0.328125 -0.53125 -0.84375q-0.1875 -0.515625 -0.1875 -1.25l0 -4.296875l-2.078125 0l0 -1.046875l2.078125 0l0 -1.921875l1.359375 0z" fill-rule="nonzero"></path><path fill="#000000" d="m286.11594 346.6062q0 -1.046875 0.15625 -1.96875q0.171875 -0.921875 0.453125 -1.703125q0.28125 -0.796875 0.640625 -1.4375q0.359375 -0.65625 0.765625 -1.15625q0.40625 -0.515625 0.796875 -0.875q0.40625 -0.359375 0.78125 -0.5625l0.28125 0.890625q-0.453125 0.34375 -0.90625 0.9375q-0.453125 0.59375 -0.8125 1.4375q-0.34375 0.84375 -0.578125 1.953125q-0.21875 1.09375 -0.21875 2.46875l0 0.109375q0 1.359375 0.21875 2.46875q0.234375 1.109375 0.578125 1.953125q0.359375 0.859375 0.8125 1.453125q0.453125 0.609375 0.90625 0.96875l-0.28125 0.828125q-0.375 -0.203125 -0.78125 -0.5625q-0.40625 -0.34375 -0.8125 -0.859375q-0.390625 -0.5 -0.75 -1.15625q-0.359375 -0.640625 -0.640625 -1.421875q-0.28125 -0.796875 -0.453125 -1.71875q-0.15625 -0.921875 -0.15625 -1.96875l0 -0.078125zm8.076447 -3.59375l0.046875 0.75q0.234375 -0.421875 0.625 -0.65625q0.390625 -0.234375 0.953125 -0.25q1.09375 0 1.453125 0.859375q0.234375 -0.390625 0.625 -0.609375q0.390625 -0.234375 0.9375 -0.25q0.859375 0 1.328125 0.546875q0.46875 0.53125 0.46875 1.609375l0 5.921875l-1.28125 0l0 -5.9375q0 -0.984375 -0.921875 -0.984375q-0.234375 0 -0.421875 0.0625q-0.171875 0.0625 -0.296875 0.1875q-0.109375 0.109375 -0.171875 0.265625q-0.0625 0.140625 -0.078125 0.3125l0 6.09375l-1.296875 0l0 -5.9375q0 -0.484375 -0.21875 -0.734375q-0.203125 -0.25 -0.671875 -0.25q-0.421875 0 -0.65625 0.171875q-0.234375 0.171875 -0.34375 0.4375l0 6.3125l-1.28125 0l0 -7.921875l1.203125 0zm13.388916 7.921875q-0.078125 -0.15625 -0.125 -0.375q-0.046875 -0.234375 -0.078125 -0.484375q-0.203125 0.203125 -0.453125 0.390625q-0.25 0.171875 -0.5625 0.3125q-0.296875 0.140625 -0.640625 0.21875q-0.34375 0.078125 -0.734375 0.078125q-0.625 0 -1.140625 -0.171875q-0.515625 -0.1875 -0.875 -0.5q-0.34375 -0.3125 -0.546875 -0.734375q-0.1875 -0.4375 -0.1875 -0.9375q0 -0.640625 0.25 -1.125q0.265625 -0.5 0.734375 -0.828125q0.484375 -0.328125 1.15625 -0.484375q0.671875 -0.171875 1.5 -0.171875l1.484375 0l0 -0.609375q0 -0.359375 -0.140625 -0.640625q-0.125 -0.296875 -0.375 -0.5q-0.234375 -0.203125 -0.59375 -0.3125q-0.34375 -0.109375 -0.765625 -0.109375q-0.40625 0 -0.734375 0.109375q-0.3125 0.09375 -0.53125 0.265625q-0.21875 0.171875 -0.34375 0.40625q-0.109375 0.21875 -0.109375 0.46875l-1.375 0q0.015625 -0.421875 0.234375 -0.84375q0.21875 -0.421875 0.625 -0.75q0.40625 -0.328125 0.984375 -0.53125q0.578125 -0.21875 1.3125 -0.21875q0.6875 0 1.265625 0.171875q0.578125 0.171875 1.0 0.5q0.421875 0.328125 0.65625 0.828125q0.25 0.5 0.25 1.171875l0 3.671875q0 0.40625 0.0625 0.84375q0.078125 0.4375 0.203125 0.765625l0 0.125l-1.40625 0zm-2.390625 -1.03125q0.390625 0 0.734375 -0.09375q0.34375 -0.109375 0.625 -0.28125q0.28125 -0.171875 0.484375 -0.375q0.203125 -0.21875 0.328125 -0.453125l0 -1.609375l-1.265625 0q-1.1875 0 -1.84375 0.359375q-0.65625 0.34375 -0.65625 1.09375q0 0.296875 0.09375 0.546875q0.109375 0.25 0.296875 0.4375q0.203125 0.171875 0.5 0.28125q0.296875 0.09375 0.703125 0.09375zm9.185822 -8.8125l0 1.921875l3.015625 0l0 1.046875l-3.015625 0l0 4.296875q0 0.46875 0.109375 0.765625q0.125 0.296875 0.328125 0.484375q0.203125 0.171875 0.46875 0.25q0.265625 0.078125 0.578125 0.078125q0.21875 0 0.453125 -0.03125q0.234375 -0.03125 0.453125 -0.0625q0.21875 -0.03125 0.40625 -0.0625q0.203125 -0.046875 0.328125 -0.078125l0.1875 0.953125q-0.171875 0.109375 -0.40625 0.1875q-0.234375 0.078125 -0.53125 0.125q-0.28125 0.0625 -0.609375 0.078125q-0.3125 0.03125 -0.625 0.03125q-0.53125 0 -0.984375 -0.140625q-0.453125 -0.15625 -0.796875 -0.484375q-0.328125 -0.328125 -0.53125 -0.84375q-0.1875 -0.515625 -0.1875 -1.25l0 -4.296875l-2.078125 0l0 -1.046875l2.078125 0l0 -1.921875l1.359375 0zm8.967041 8.890625q0.359375 0 0.703125 -0.109375q0.359375 -0.125 0.625 -0.328125q0.265625 -0.21875 0.421875 -0.5q0.171875 -0.28125 0.1875 -0.609375l1.28125 0q-0.015625 0.53125 -0.28125 1.015625q-0.265625 0.46875 -0.71875 0.84375q-0.4375 0.359375 -1.015625 0.578125q-0.578125 0.203125 -1.203125 0.203125q-0.90625 0 -1.578125 -0.3125q-0.671875 -0.328125 -1.125 -0.875q-0.453125 -0.546875 -0.6875 -1.25q-0.21875 -0.71875 -0.21875 -1.515625l0 -0.296875q0 -0.796875 0.21875 -1.5q0.234375 -0.71875 0.6875 -1.265625q0.453125 -0.546875 1.125 -0.875q0.671875 -0.328125 1.578125 -0.328125q0.703125 0 1.28125 0.234375q0.59375 0.21875 1.015625 0.609375q0.4375 0.375 0.671875 0.90625q0.25 0.53125 0.25 1.125l-1.28125 0q-0.015625 -0.359375 -0.171875 -0.671875q-0.140625 -0.328125 -0.40625 -0.5625q-0.25 -0.25 -0.609375 -0.375q-0.34375 -0.140625 -0.75 -0.140625q-0.640625 0 -1.0625 0.25q-0.421875 0.25 -0.6875 0.65625q-0.265625 0.40625 -0.390625 0.921875q-0.109375 0.5 -0.109375 1.015625l0 0.296875q0 0.53125 0.109375 1.046875q0.125 0.5 0.375 0.90625q0.265625 0.40625 0.6875 0.65625q0.4375 0.25 1.078125 0.25zm6.7639465 -5.796875q0.421875 -0.625 1.046875 -0.96875q0.625 -0.34375 1.40625 -0.359375q0.625 0 1.125 0.1875q0.515625 0.171875 0.875 0.5625q0.359375 0.375 0.546875 0.96875q0.203125 0.578125 0.203125 1.375l0 4.984375l-1.359375 0l0 -5.0q0 -0.984375 -0.46875 -1.453125q-0.46875 -0.46875 -1.328125 -0.46875q-0.65625 0 -1.1875 0.328125q-0.53125 0.3125 -0.859375 0.84375l0 5.75l-1.34375 0l0 -11.25l1.34375 0l0 4.5zm7.654541 -1.171875l4.046875 0l0 6.75l2.59375 0l0 1.171875l-6.640625 0l0 -1.171875l2.703125 0l0 -5.578125l-2.703125 0l0 -1.171875zm2.515625 -2.078125q0 -0.34375 0.203125 -0.5625q0.203125 -0.234375 0.609375 -0.234375q0.40625 0 0.609375 0.234375q0.203125 0.21875 0.203125 0.5625q0 0.328125 -0.203125 0.546875q-0.203125 0.21875 -0.609375 0.21875q-0.40625 0 -0.609375 -0.21875q-0.203125 -0.21875 -0.203125 -0.546875zm7.2795715 2.078125l0.09375 1.171875q0.4375 -0.625 1.0625 -0.96875q0.640625 -0.34375 1.40625 -0.359375q0.625 0 1.125 0.1875q0.515625 0.171875 0.875 0.546875q0.359375 0.375 0.546875 0.953125q0.203125 0.5625 0.203125 1.359375l0 5.03125l-1.34375 0l0 -5.0q0 -0.53125 -0.125 -0.890625q-0.109375 -0.375 -0.34375 -0.59375q-0.234375 -0.234375 -0.578125 -0.328125q-0.328125 -0.109375 -0.75 -0.109375q-0.6875 0 -1.203125 0.34375q-0.515625 0.34375 -0.828125 0.890625l0 5.6875l-1.34375 0l0 -7.921875l1.203125 0zm7.342041 3.890625q0 -0.890625 0.203125 -1.625q0.21875 -0.75 0.625 -1.28125q0.421875 -0.53125 1.0 -0.828125q0.59375 -0.3125 1.328125 -0.3125q0.734375 0 1.28125 0.265625q0.5625 0.265625 0.953125 0.75l0.0625 -0.859375l1.234375 0l0 7.75q0 0.78125 -0.25 1.390625q-0.25 0.609375 -0.703125 1.03125q-0.4375 0.4375 -1.046875 0.65625q-0.609375 0.21875 -1.359375 0.21875q-0.3125 0 -0.703125 -0.078125q-0.390625 -0.0625 -0.796875 -0.21875q-0.40625 -0.15625 -0.796875 -0.421875q-0.375 -0.265625 -0.640625 -0.65625l0.703125 -0.8125q0.25 0.296875 0.515625 0.5q0.265625 0.21875 0.53125 0.34375q0.265625 0.125 0.53125 0.171875q0.28125 0.0625 0.546875 0.0625q0.484375 0 0.875 -0.140625q0.390625 -0.140625 0.65625 -0.40625q0.28125 -0.265625 0.421875 -0.671875q0.15625 -0.390625 0.15625 -0.90625l0 -0.671875q-0.390625 0.453125 -0.9375 0.6875q-0.53125 0.234375 -1.25 0.234375q-0.71875 0 -1.3125 -0.296875q-0.578125 -0.3125 -0.984375 -0.84375q-0.40625 -0.546875 -0.625 -1.28125q-0.21875 -0.75 -0.21875 -1.59375l0 -0.15625zm1.34375 0.15625q0 0.578125 0.125 1.109375q0.125 0.515625 0.375 0.90625q0.265625 0.390625 0.671875 0.625q0.40625 0.234375 0.96875 0.234375q0.34375 0 0.625 -0.078125q0.28125 -0.09375 0.5 -0.25q0.234375 -0.15625 0.40625 -0.359375q0.171875 -0.21875 0.3125 -0.46875l0 -3.640625q-0.140625 -0.25 -0.3125 -0.453125q-0.171875 -0.203125 -0.40625 -0.34375q-0.21875 -0.15625 -0.5 -0.234375q-0.28125 -0.09375 -0.609375 -0.09375q-0.578125 0 -0.984375 0.234375q-0.40625 0.234375 -0.671875 0.640625q-0.25 0.390625 -0.375 0.921875q-0.125 0.515625 -0.125 1.09375l0 0.15625zm21.699738 3.875q-0.078125 -0.15625 -0.125 -0.375q-0.046875 -0.234375 -0.078125 -0.484375q-0.203125 0.203125 -0.453125 0.390625q-0.25 0.171875 -0.5625 0.3125q-0.296875 0.140625 -0.640625 0.21875q-0.34375 0.078125 -0.734375 0.078125q-0.625 0 -1.140625 -0.171875q-0.515625 -0.1875 -0.875 -0.5q-0.34375 -0.3125 -0.546875 -0.734375q-0.1875 -0.4375 -0.1875 -0.9375q0 -0.640625 0.25 -1.125q0.265625 -0.5 0.734375 -0.828125q0.484375 -0.328125 1.15625 -0.484375q0.671875 -0.171875 1.5 -0.171875l1.484375 0l0 -0.609375q0 -0.359375 -0.140625 -0.640625q-0.125 -0.296875 -0.375 -0.5q-0.234375 -0.203125 -0.59375 -0.3125q-0.34375 -0.109375 -0.765625 -0.109375q-0.40625 0 -0.734375 0.109375q-0.3125 0.09375 -0.53125 0.265625q-0.21875 0.171875 -0.34375 0.40625q-0.109375 0.21875 -0.109375 0.46875l-1.375 0q0.015625 -0.421875 0.234375 -0.84375q0.21875 -0.421875 0.625 -0.75q0.40625 -0.328125 0.984375 -0.53125q0.578125 -0.21875 1.3125 -0.21875q0.6875 0 1.265625 0.171875q0.578125 0.171875 1.0 0.5q0.421875 0.328125 0.65625 0.828125q0.25 0.5 0.25 1.171875l0 3.671875q0 0.40625 0.0625 0.84375q0.078125 0.4375 0.203125 0.765625l0 0.125l-1.40625 0zm-2.390625 -1.03125q0.390625 0 0.734375 -0.09375q0.34375 -0.109375 0.625 -0.28125q0.28125 -0.171875 0.484375 -0.375q0.203125 -0.21875 0.328125 -0.453125l0 -1.609375l-1.265625 0q-1.1875 0 -1.84375 0.359375q-0.65625 0.34375 -0.65625 1.09375q0 0.296875 0.09375 0.546875q0.109375 0.25 0.296875 0.4375q0.203125 0.171875 0.5 0.28125q0.296875 0.09375 0.703125 0.09375zm11.170197 -7.046875q0.1875 0 0.390625 0.015625q0.203125 0.015625 0.390625 0.046875q0.1875 0.015625 0.34375 0.0625q0.15625 0.03125 0.265625 0.078125l-0.1875 1.3125q-0.390625 -0.078125 -0.75 -0.109375q-0.359375 -0.046875 -0.734375 -0.046875q-0.953125 0 -1.546875 0.4375q-0.59375 0.421875 -0.875 1.203125l0 5.078125l-1.359375 0l0 -7.921875l1.296875 0l0.0625 1.25q0.484375 -0.640625 1.15625 -1.015625q0.6875 -0.390625 1.546875 -0.390625zm6.810791 -1.765625l0 1.921875l3.015625 0l0 1.046875l-3.015625 0l0 4.296875q0 0.46875 0.109375 0.765625q0.125 0.296875 0.328125 0.484375q0.203125 0.171875 0.46875 0.25q0.265625 0.078125 0.578125 0.078125q0.21875 0 0.453125 -0.03125q0.234375 -0.03125 0.453125 -0.0625q0.21875 -0.03125 0.40625 -0.0625q0.203125 -0.046875 0.328125 -0.078125l0.1875 0.953125q-0.171875 0.109375 -0.40625 0.1875q-0.234375 0.078125 -0.53125 0.125q-0.28125 0.0625 -0.609375 0.078125q-0.3125 0.03125 -0.625 0.03125q-0.53125 0 -0.984375 -0.140625q-0.453125 -0.15625 -0.796875 -0.484375q-0.328125 -0.328125 -0.53125 -0.84375q-0.1875 -0.515625 -0.1875 -1.25l0 -4.296875l-2.078125 0l0 -1.046875l2.078125 0l0 -1.921875l1.359375 0zm5.7951965 1.921875l4.046875 0l0 6.75l2.59375 0l0 1.171875l-6.640625 0l0 -1.171875l2.703125 0l0 -5.578125l-2.703125 0l0 -1.171875zm2.515625 -2.078125q0 -0.34375 0.203125 -0.5625q0.203125 -0.234375 0.609375 -0.234375q0.40625 0 0.609375 0.234375q0.203125 0.21875 0.203125 0.5625q0 0.328125 -0.203125 0.546875q-0.203125 0.21875 -0.609375 0.21875q-0.40625 0 -0.609375 -0.21875q-0.203125 -0.21875 -0.203125 -0.546875zm8.092041 10.0l0 -6.875l-2.1875 0l0 -1.046875l2.1875 0l0 -0.5625q0 -0.765625 0.21875 -1.328125q0.234375 -0.578125 0.640625 -0.96875q0.40625 -0.390625 0.96875 -0.578125q0.578125 -0.203125 1.28125 -0.203125q0.484375 0 0.9375 0.078125q0.453125 0.078125 0.9375 0.203125l-0.15625 1.125q-0.296875 -0.109375 -0.703125 -0.1875q-0.390625 -0.078125 -0.859375 -0.078125q-0.9375 0.015625 -1.421875 0.5q-0.484375 0.46875 -0.484375 1.4375l0 0.5625l3.0625 0l0 1.046875l-3.0625 0l0 6.875l-1.359375 0zm11.989838 0q-0.078125 -0.15625 -0.125 -0.375q-0.046875 -0.234375 -0.078125 -0.484375q-0.203125 0.203125 -0.453125 0.390625q-0.25 0.171875 -0.5625 0.3125q-0.296875 0.140625 -0.640625 0.21875q-0.34375 0.078125 -0.734375 0.078125q-0.625 0 -1.140625 -0.171875q-0.515625 -0.1875 -0.875 -0.5q-0.34375 -0.3125 -0.546875 -0.734375q-0.1875 -0.4375 -0.1875 -0.9375q0 -0.640625 0.25 -1.125q0.265625 -0.5 0.734375 -0.828125q0.484375 -0.328125 1.15625 -0.484375q0.671875 -0.171875 1.5 -0.171875l1.484375 0l0 -0.609375q0 -0.359375 -0.140625 -0.640625q-0.125 -0.296875 -0.375 -0.5q-0.234375 -0.203125 -0.59375 -0.3125q-0.34375 -0.109375 -0.765625 -0.109375q-0.40625 0 -0.734375 0.109375q-0.3125 0.09375 -0.53125 0.265625q-0.21875 0.171875 -0.34375 0.40625q-0.109375 0.21875 -0.109375 0.46875l-1.375 0q0.015625 -0.421875 0.234375 -0.84375q0.21875 -0.421875 0.625 -0.75q0.40625 -0.328125 0.984375 -0.53125q0.578125 -0.21875 1.3125 -0.21875q0.6875 0 1.265625 0.171875q0.578125 0.171875 1.0 0.5q0.421875 0.328125 0.65625 0.828125q0.25 0.5 0.25 1.171875l0 3.671875q0 0.40625 0.0625 0.84375q0.078125 0.4375 0.203125 0.765625l0 0.125l-1.40625 0zm-2.390625 -1.03125q0.390625 0 0.734375 -0.09375q0.34375 -0.109375 0.625 -0.28125q0.28125 -0.171875 0.484375 -0.375q0.203125 -0.21875 0.328125 -0.453125l0 -1.609375l-1.265625 0q-1.1875 0 -1.84375 0.359375q-0.65625 0.34375 -0.65625 1.09375q0 0.296875 0.09375 0.546875q0.109375 0.25 0.296875 0.4375q0.203125 0.171875 0.5 0.28125q0.296875 0.09375 0.703125 0.09375zm9.357697 0.078125q0.359375 0 0.703125 -0.109375q0.359375 -0.125 0.625 -0.328125q0.265625 -0.21875 0.421875 -0.5q0.171875 -0.28125 0.1875 -0.609375l1.28125 0q-0.015625 0.53125 -0.28125 1.015625q-0.265625 0.46875 -0.71875 0.84375q-0.4375 0.359375 -1.015625 0.578125q-0.578125 0.203125 -1.203125 0.203125q-0.90625 0 -1.578125 -0.3125q-0.671875 -0.328125 -1.125 -0.875q-0.453125 -0.546875 -0.6875 -1.25q-0.21875 -0.71875 -0.21875 -1.515625l0 -0.296875q0 -0.796875 0.21875 -1.5q0.234375 -0.71875 0.6875 -1.265625q0.453125 -0.546875 1.125 -0.875q0.671875 -0.328125 1.578125 -0.328125q0.703125 0 1.28125 0.234375q0.59375 0.21875 1.015625 0.609375q0.4375 0.375 0.671875 0.90625q0.25 0.53125 0.25 1.125l-1.28125 0q-0.015625 -0.359375 -0.171875 -0.671875q-0.140625 -0.328125 -0.40625 -0.5625q-0.25 -0.25 -0.609375 -0.375q-0.34375 -0.140625 -0.75 -0.140625q-0.640625 0 -1.0625 0.25q-0.421875 0.25 -0.6875 0.65625q-0.265625 0.40625 -0.390625 0.921875q-0.109375 0.5 -0.109375 1.015625l0 0.296875q0 0.53125 0.109375 1.046875q0.125 0.5 0.375 0.90625q0.265625 0.40625 0.6875 0.65625q0.4375 0.25 1.078125 0.25zm8.623291 -8.890625l0 1.921875l3.015625 0l0 1.046875l-3.015625 0l0 4.296875q0 0.46875 0.109375 0.765625q0.125 0.296875 0.328125 0.484375q0.203125 0.171875 0.46875 0.25q0.265625 0.078125 0.578125 0.078125q0.21875 0 0.453125 -0.03125q0.234375 -0.03125 0.453125 -0.0625q0.21875 -0.03125 0.40625 -0.0625q0.203125 -0.046875 0.328125 -0.078125l0.1875 0.953125q-0.171875 0.109375 -0.40625 0.1875q-0.234375 0.078125 -0.53125 0.125q-0.28125 0.0625 -0.609375 0.078125q-0.3125 0.03125 -0.625 0.03125q-0.53125 0 -0.984375 -0.140625q-0.453125 -0.15625 -0.796875 -0.484375q-0.328125 -0.328125 -0.53125 -0.84375q-0.1875 -0.515625 -0.1875 -1.25l0 -4.296875l-2.078125 0l0 -1.046875l2.078125 0l0 -1.921875l1.359375 0zm15.715363 1.171875q0 -0.359375 0.078125 -0.734375q0.078125 -0.375 0.25 -0.75q0.171875 -0.375 0.40625 -0.703125q0.234375 -0.34375 0.53125 -0.609375l0.75 0.53125q-0.34375 0.515625 -0.53125 1.0625q-0.171875 0.546875 -0.171875 1.171875l0 1.09375l-1.3125 0l0 -1.0625zm2.0 0q0 -0.359375 0.078125 -0.734375q0.078125 -0.375 0.25 -0.75q0.171875 -0.375 0.40625 -0.703125q0.234375 -0.34375 0.53125 -0.609375l0.75 0.53125q-0.34375 0.515625 -0.53125 1.0625q-0.171875 0.546875 -0.171875 1.171875l0 1.09375l-1.3125 0l0 -1.0625zm9.857697 8.671875l-1.359375 0l0 -8.9375l-2.78125 1.0625l0 -1.234375l4.03125 -1.5625l0.109375 0l0 10.671875zm7.513916 -10.328125q0 0.34375 -0.09375 0.71875q-0.078125 0.375 -0.25 0.75q-0.15625 0.375 -0.390625 0.71875q-0.234375 0.328125 -0.546875 0.59375l-0.734375 -0.53125q0.34375 -0.515625 0.515625 -1.0625q0.171875 -0.546875 0.171875 -1.171875l0 -1.09375l1.328125 0l0 1.078125zm2.0 0q0 0.34375 -0.09375 0.71875q-0.078125 0.375 -0.25 0.75q-0.15625 0.375 -0.390625 0.71875q-0.234375 0.328125 -0.546875 0.59375l-0.734375 -0.53125q0.34375 -0.515625 0.515625 -1.0625q0.171875 -0.546875 0.171875 -1.171875l0 -1.09375l1.328125 0l0 1.078125zm8.623322 6.078125q0 1.046875 -0.171875 1.96875q-0.15625 0.921875 -0.4375 1.71875q-0.28125 0.78125 -0.640625 1.421875q-0.359375 0.65625 -0.765625 1.15625q-0.390625 0.515625 -0.796875 0.859375q-0.40625 0.359375 -0.78125 0.5625l-0.28125 -0.828125q0.453125 -0.328125 0.90625 -0.9375q0.453125 -0.609375 0.796875 -1.46875q0.359375 -0.84375 0.578125 -1.953125q0.234375 -1.125 0.234375 -2.484375l0 -0.109375q0 -1.375 -0.234375 -2.484375q-0.234375 -1.125 -0.609375 -1.984375q-0.375 -0.859375 -0.8125 -1.453125q-0.4375 -0.609375 -0.859375 -0.9375l0.28125 -0.828125q0.375 0.203125 0.78125 0.5625q0.40625 0.359375 0.796875 0.875q0.40625 0.5 0.765625 1.15625q0.359375 0.640625 0.640625 1.4375q0.28125 0.78125 0.4375 1.703125q0.171875 0.921875 0.171875 1.96875l0 0.078125z" fill-rule="nonzero"></path><path fill="#000000" fill-opacity="0.0" d="m274.50656 384.563l215.68503 0l0 36.881897l-215.68503 0z" fill-rule="evenodd"></path><path fill="#000000" d="m289.86594 404.87738l-3.546875 0l-0.859375 2.765625l-1.359375 0l3.4375 -10.671875l1.140625 0l3.390625 10.671875l-1.359375 0l-0.84375 -2.765625zm-3.1875 -1.171875l2.828125 0l-1.40625 -4.625l-1.421875 4.625zm12.092072 -4.140625q0.1875 0 0.390625 0.015625q0.203125 0.015625 0.390625 0.046875q0.1875 0.015625 0.34375 0.0625q0.15625 0.03125 0.265625 0.078125l-0.1875 1.3125q-0.390625 -0.078125 -0.75 -0.109375q-0.359375 -0.046875 -0.734375 -0.046875q-0.953125 0 -1.546875 0.4375q-0.59375 0.421875 -0.875 1.203125l0 5.078125l-1.359375 0l0 -7.921875l1.296875 0l0.0625 1.25q0.484375 -0.640625 1.15625 -1.015625q0.6875 -0.390625 1.546875 -0.390625zm6.810791 -1.765625l0 1.921875l3.015625 0l0 1.046875l-3.015625 0l0 4.296875q0 0.46875 0.109375 0.765625q0.125 0.296875 0.328125 0.484375q0.203125 0.171875 0.46875 0.25q0.265625 0.078125 0.578125 0.078125q0.21875 0 0.453125 -0.03125q0.234375 -0.03125 0.453125 -0.0625q0.21875 -0.03125 0.40625 -0.0625q0.203125 -0.046875 0.328125 -0.078125l0.1875 0.953125q-0.171875 0.109375 -0.40625 0.1875q-0.234375 0.078125 -0.53125 0.125q-0.28125 0.0625 -0.609375 0.078125q-0.3125 0.03125 -0.625 0.03125q-0.53125 0 -0.984375 -0.140625q-0.453125 -0.15625 -0.796875 -0.484375q-0.328125 -0.328125 -0.53125 -0.84375q-0.1875 -0.515625 -0.1875 -1.25l0 -4.296875l-2.078125 0l0 -1.046875l2.078125 0l0 -1.921875l1.359375 0zm5.7951965 1.921875l4.046875 0l0 6.75l2.59375 0l0 1.171875l-6.640625 0l0 -1.171875l2.703125 0l0 -5.578125l-2.703125 0l0 -1.171875zm2.515625 -2.078125q0 -0.34375 0.203125 -0.5625q0.203125 -0.234375 0.609375 -0.234375q0.40625 0 0.609375 0.234375q0.203125 0.21875 0.203125 0.5625q0 0.328125 -0.203125 0.546875q-0.203125 0.21875 -0.609375 0.21875q-0.40625 0 -0.609375 -0.21875q-0.203125 -0.21875 -0.203125 -0.546875zm8.092041 10.0l0 -6.875l-2.1875 0l0 -1.046875l2.1875 0l0 -0.5625q0 -0.765625 0.21875 -1.328125q0.234375 -0.578125 0.640625 -0.96875q0.40625 -0.390625 0.96875 -0.578125q0.578125 -0.203125 1.28125 -0.203125q0.484375 0 0.9375 0.078125q0.453125 0.078125 0.9375 0.203125l-0.15625 1.125q-0.296875 -0.109375 -0.703125 -0.1875q-0.390625 -0.078125 -0.859375 -0.078125q-0.9375 0.015625 -1.421875 0.5q-0.484375 0.46875 -0.484375 1.4375l0 0.5625l3.0625 0l0 1.046875l-3.0625 0l0 6.875l-1.359375 0zm11.989838 0q-0.078125 -0.15625 -0.125 -0.375q-0.046875 -0.234375 -0.078125 -0.484375q-0.203125 0.203125 -0.453125 0.390625q-0.25 0.171875 -0.5625 0.3125q-0.296875 0.140625 -0.640625 0.21875q-0.34375 0.078125 -0.734375 0.078125q-0.625 0 -1.140625 -0.171875q-0.515625 -0.1875 -0.875 -0.5q-0.34375 -0.3125 -0.546875 -0.734375q-0.1875 -0.4375 -0.1875 -0.9375q0 -0.640625 0.25 -1.125q0.265625 -0.5 0.734375 -0.828125q0.484375 -0.328125 1.15625 -0.484375q0.671875 -0.171875 1.5 -0.171875l1.484375 0l0 -0.609375q0 -0.359375 -0.140625 -0.640625q-0.125 -0.296875 -0.375 -0.5q-0.234375 -0.203125 -0.59375 -0.3125q-0.34375 -0.109375 -0.765625 -0.109375q-0.40625 0 -0.734375 0.109375q-0.3125 0.09375 -0.53125 0.265625q-0.21875 0.171875 -0.34375 0.40625q-0.109375 0.21875 -0.109375 0.46875l-1.375 0q0.015625 -0.421875 0.234375 -0.84375q0.21875 -0.421875 0.625 -0.75q0.40625 -0.328125 0.984375 -0.53125q0.578125 -0.21875 1.3125 -0.21875q0.6875 0 1.265625 0.171875q0.578125 0.171875 1.0 0.5q0.421875 0.328125 0.65625 0.828125q0.25 0.5 0.25 1.171875l0 3.671875q0 0.40625 0.0625 0.84375q0.078125 0.4375 0.203125 0.765625l0 0.125l-1.40625 0zm-2.390625 -1.03125q0.390625 0 0.734375 -0.09375q0.34375 -0.109375 0.625 -0.28125q0.28125 -0.171875 0.484375 -0.375q0.203125 -0.21875 0.328125 -0.453125l0 -1.609375l-1.265625 0q-1.1875 0 -1.84375 0.359375q-0.65625 0.34375 -0.65625 1.09375q0 0.296875 0.09375 0.546875q0.109375 0.25 0.296875 0.4375q0.203125 0.171875 0.5 0.28125q0.296875 0.09375 0.703125 0.09375zm9.357697 0.078125q0.359375 0 0.703125 -0.109375q0.359375 -0.125 0.625 -0.328125q0.265625 -0.21875 0.421875 -0.5q0.171875 -0.28125 0.1875 -0.609375l1.28125 0q-0.015625 0.53125 -0.28125 1.015625q-0.265625 0.46875 -0.71875 0.84375q-0.4375 0.359375 -1.015625 0.578125q-0.578125 0.203125 -1.203125 0.203125q-0.90625 0 -1.578125 -0.3125q-0.671875 -0.328125 -1.125 -0.875q-0.453125 -0.546875 -0.6875 -1.25q-0.21875 -0.71875 -0.21875 -1.515625l0 -0.296875q0 -0.796875 0.21875 -1.5q0.234375 -0.71875 0.6875 -1.265625q0.453125 -0.546875 1.125 -0.875q0.671875 -0.328125 1.578125 -0.328125q0.703125 0 1.28125 0.234375q0.59375 0.21875 1.015625 0.609375q0.4375 0.375 0.671875 0.90625q0.25 0.53125 0.25 1.125l-1.28125 0q-0.015625 -0.359375 -0.171875 -0.671875q-0.140625 -0.328125 -0.40625 -0.5625q-0.25 -0.25 -0.609375 -0.375q-0.34375 -0.140625 -0.75 -0.140625q-0.640625 0 -1.0625 0.25q-0.421875 0.25 -0.6875 0.65625q-0.265625 0.40625 -0.390625 0.921875q-0.109375 0.5 -0.109375 1.015625l0 0.296875q0 0.53125 0.109375 1.046875q0.125 0.5 0.375 0.90625q0.265625 0.40625 0.6875 0.65625q0.4375 0.25 1.078125 0.25zm8.623291 -8.890625l0 1.921875l3.015625 0l0 1.046875l-3.015625 0l0 4.296875q0 0.46875 0.109375 0.765625q0.125 0.296875 0.328125 0.484375q0.203125 0.171875 0.46875 0.25q0.265625 0.078125 0.578125 0.078125q0.21875 0 0.453125 -0.03125q0.234375 -0.03125 0.453125 -0.0625q0.21875 -0.03125 0.40625 -0.0625q0.203125 -0.046875 0.328125 -0.078125l0.1875 0.953125q-0.171875 0.109375 -0.40625 0.1875q-0.234375 0.078125 -0.53125 0.125q-0.28125 0.0625 -0.609375 0.078125q-0.3125 0.03125 -0.625 0.03125q-0.53125 0 -0.984375 -0.140625q-0.453125 -0.15625 -0.796875 -0.484375q-0.328125 -0.328125 -0.53125 -0.84375q-0.1875 -0.515625 -0.1875 -1.25l0 -4.296875l-2.078125 0l0 -1.046875l2.078125 0l0 -1.921875l1.359375 0zm15.715363 1.171875q0 -0.359375 0.078125 -0.734375q0.078125 -0.375 0.25 -0.75q0.171875 -0.375 0.40625 -0.703125q0.234375 -0.34375 0.53125 -0.609375l0.75 0.53125q-0.34375 0.515625 -0.53125 1.0625q-0.171875 0.546875 -0.171875 1.171875l0 1.09375l-1.3125 0l0 -1.0625zm2.0 0q0 -0.359375 0.078125 -0.734375q0.078125 -0.375 0.25 -0.75q0.171875 -0.375 0.40625 -0.703125q0.234375 -0.34375 0.53125 -0.609375l0.75 0.53125q-0.34375 0.515625 -0.53125 1.0625q-0.171875 0.546875 -0.171875 1.171875l0 1.09375l-1.3125 0l0 -1.0625zm9.857697 8.671875l-1.359375 0l0 -8.9375l-2.78125 1.0625l0 -1.234375l4.03125 -1.5625l0.109375 0l0 10.671875zm7.513916 -10.328125q0 0.34375 -0.09375 0.71875q-0.078125 0.375 -0.25 0.75q-0.15625 0.375 -0.390625 0.71875q-0.234375 0.328125 -0.546875 0.59375l-0.734375 -0.53125q0.34375 -0.515625 0.515625 -1.0625q0.171875 -0.546875 0.171875 -1.171875l0 -1.09375l1.328125 0l0 1.078125zm2.0 0q0 0.34375 -0.09375 0.71875q-0.078125 0.375 -0.25 0.75q-0.15625 0.375 -0.390625 0.71875q-0.234375 0.328125 -0.546875 0.59375l-0.734375 -0.53125q0.34375 -0.515625 0.515625 -1.0625q0.171875 -0.546875 0.171875 -1.171875l0 -1.09375l1.328125 0l0 1.078125z" fill-rule="nonzero"></path></g></svg>

