<?xml version="1.0" encoding="utf-8"?>
<!-- Generator: Adobe Illustrator 23.0.0, SVG Export Plug-In . SVG Version: 6.00 Build 0)  -->
<svg version="1.1" id="Layer_1" xmlns="http://www.w3.org/2000/svg" xmlns:xlink="http://www.w3.org/1999/xlink" x="0px" y="0px"
	 viewBox="0 0 100 134" style="enable-background:new 0 0 100 134;" xml:space="preserve">
<style type="text/css">
	.st0{fill:#453F3F;}
	.st1{fill-rule:evenodd;clip-rule:evenodd;fill:#453F3F;}
</style>
<path class="st0" d="M50,1C23,1,1,23,1,50c0,27,22,49,49,49c27,0,49-22,49-49C99,23,77,1,50,1z M12.5,24.3C20.9,12,35,4.5,50,4.5
	c14.9,0,29,7.5,37.4,19.7c0.2,0.2,0.2,0.5,0.2,0.8c0,0.8-0.6,1.4-1.4,1.4H13.6c-0.7-0.1-1.3-0.7-1.3-1.4
	C12.3,24.7,12.3,24.5,12.5,24.3z M34.5,55.1c0-0.2,0.1-0.5,0.2-0.7l14.4-21.1c0.1-0.1,0.1-0.2,0.2-0.4c0.3-0.3,0.7-0.5,1.2-0.5
	c0.5,0,0.9,0.2,1.2,0.5c0.1,0.1,0.2,0.2,0.2,0.4l20.2,30.5c0,0,0,0.1,0,0.1c0.1,0.2,0.1,0.4,0.1,0.5c0,0.7-0.5,1.2-1.2,1.2
	c-0.1,0-0.1,0-0.2,0c0,0-0.1,0-0.1,0l-35.4-9.3v0C34.9,56.1,34.5,55.6,34.5,55.1z M8.4,31.6C8.4,31.6,8.4,31.5,8.4,31.6
	c0.2-0.4,0.6-1,1.1-1.3c0.6-0.4,1.4-0.4,1.9-0.4h33.3c0.4,0,1.1,0.1,1.4,0.5c0.3,0.4,0,1-0.1,1.3c0,0.1,0,0.1-0.1,0.1
	c0,0.1-0.1,0.1-0.1,0.1L15.4,76.4c-0.3,0.4-0.7,0.7-1.3,0.7c-0.5,0-1-0.3-1.2-0.7c-5.5-7.7-8.5-17-8.5-26.4
	C4.5,43.6,5.8,37.4,8.4,31.6z M81.9,82.4C81.9,82.5,81.9,82.5,81.9,82.4C73.4,90.8,61.8,95.5,50,95.5c-11.8,0-23.3-4.7-31.8-13
	c0,0,0,0,0-0.1c-0.2-0.2-0.7-1-0.7-1.8c0-0.7,0.3-1.4,0.5-1.6c0.1-0.1,0.1-0.1,0.1-0.1l0.2-0.3l11.4-16.8c0,0,0.1-0.1,0.2-0.2
	c0,0,0-0.1,0.1-0.1c0.3-0.4,1.1-1.2,2.2-1.5c1.2-0.4,2.6-0.2,3.2-0.1c0.1,0,0.1,0,0.2,0c0.1,0,0.1,0,0.1,0L75,70.3
	c1.3,0.4,2.3,1.3,2.8,2l4.1,6.2l0.2,0.3c0,0,0,0.1,0.1,0.1c0.1,0.3,0.5,0.9,0.4,1.6C82.6,81.5,82.1,82.2,81.9,82.4z M85.8,77.2
	c-0.5,0-0.8-0.2-1.1-0.6l0,0L55.1,31.8v0c-0.1-0.2-0.6-1-0.2-1.5c0.3-0.4,1-0.5,1.4-0.5h32.3c0.6,0,1.3,0,1.9,0.4
	c0.5,0.3,0.9,0.9,1.1,1.3c0,0,0,0.1,0,0.1c2.6,5.8,3.9,12,3.9,18.4c0,9.6-3.1,19-8.8,26.8C86.5,77,86.2,77.2,85.8,77.2z"/>
<title>Brand/Logo &amp; Wordmark</title>
<desc>Created with Sketch.</desc>
<g>
	<path class="st1" d="M82.4,119.9c-1.2-0.9-2.4-1.4-3.8-1.4c-1.4,0-2.5,0.4-3.4,1.2c-0.9,0.9-1.4,2.2-1.4,4c0,1.8,0.6,3.4,1.9,4.7
		c1.3,1.4,2.8,2.1,4.6,2.1c1.4,0,2.5-0.4,3.2-1.1c0.8-0.8,1.2-2.1,1.2-3.9C84.8,123,84,121.2,82.4,119.9z M85,129.2
		c-0.9,1.1-2.2,2.1-3.8,2.9c-0.5,0.3-1,0.5-1.5,0.6c-0.5,0.2-0.8,0.2-1.1,0.2c-2,0-3.6-0.8-5-2.5c-1.3-1.6-1.9-3.3-1.9-5.1
		c0-2,0.6-3.8,1.8-5.3c0.9-1.3,2.2-2.3,3.7-3.1c0.7-0.3,1.3-0.6,1.8-0.7c0.5-0.2,1-0.3,1.4-0.3c0.6,0,1.3,0.2,2.2,0.6
		c1.2,0.5,2.2,1.3,3,2.3c1,1.4,1.5,3,1.5,4.8C87,125.7,86.3,127.6,85,129.2z M63.7,117.4c-0.3,0.2-0.7,0.3-1.3,0.3l-1.9,0V133h-2.6
		V118c-0.2-0.2-0.5-0.3-0.8-0.3l-1.1-0.1l-2,0.1c0-0.6,0.2-1.1,0.6-1.4l0.7-0.3h9C64.3,116.6,64.1,117.1,63.7,117.4z M45.5,132
		c0,0.1,0,0.2-0.1,0.3c0,0.1,0,0.1,0,0.2l-0.1,0.6h-7.7v-16.8l0.7-0.1L39,116l0.7,0c0.1,0,0.3,0.1,0.5,0.2v14.7l0.3,0.4h5
		C45.6,131.6,45.6,131.8,45.5,132z M19.1,120.9l-1.1,3l-0.6,1.7l3.5,0L19.1,120.9z M23.8,133l-2.2-5.6h-3.9c-0.7,0-1.2,0.3-1.4,0.8
		c-0.3,0.5-0.8,2.1-1.6,4.8H13c0.1-0.4,0.3-1,0.5-1.5c0.4-1.1,0.8-2.1,1.1-3c1-2.7,1.8-4.8,2.3-6.3c0.8-2.5,1.2-4.4,1.2-5.6l1-0.3
		l1-0.3l6.9,17L23.8,133z"/>
</g>
</svg>
