<?xml version="1.0" encoding="utf-8"?>
<!-- Generator: Adobe Illustrator 21.0.2, SVG Export Plug-In . SVG Version: 6.00 Build 0)  -->
<svg version="1.1" id="Layer_1" xmlns="http://www.w3.org/2000/svg" xmlns:xlink="http://www.w3.org/1999/xlink" x="0px" y="0px"
	 viewBox="0 0 175.3 60.4" style="enable-background:new 0 0 175.3 60.4;" xml:space="preserve">
<style type="text/css">
	.st0{fill:#1AC604;}
	.st1{fill:#6817FF;}
</style>
<g>
	<g>
		<g>
			<path class="st0" d="M28.3,18c1.9,2.2,3.4,4.7,4.5,7.4c-5,5.2-11.4,8.9-18.6,10.7c-1.8-2.3-3.1-4.9-4.1-7.6
				C20.3,26.8,26,20.8,28.3,18z"/>
			<path class="st1" d="M14.4,0c-1.8,2.3-3.2,4.9-4.2,7.6c8.5,1.5,14.2,5.8,18.1,10.5c1.9-2.2,3.4-4.7,4.5-7.4
				C27.9,5.5,21.5,1.8,14.4,0z"/>
			<path d="M1.5,28.8c-2-6.9-2-14.1,0-21.4c1.9-0.2,4.9-0.4,8.7,0.2c-2.8,7.5-2.3,14.9-0.1,21C7.2,29,4.2,29.1,1.5,28.8z"/>
		</g>
		<g>
			<path d="M44.1,19.6c0-7.6,5-12,10.9-12c2.9,0,5.3,1.4,6.9,3l-2.7,3.3c-1.2-1.1-2.4-1.8-4.1-1.8c-3.1,0-5.6,2.8-5.6,7.4
				c0,4.7,2.2,7.5,5.6,7.5c1.9,0,3.3-0.9,4.4-2.2l2.7,3.2c-1.9,2.2-4.4,3.4-7.4,3.4C49,31.4,44.1,27.3,44.1,19.6z"/>
			<path d="M64.2,25.5V6.3h5.2v19.5c0,1.1,0.5,1.5,0.9,1.5c0.2,0,0.3,0,0.6,0l0.6,3.8c-0.6,0.2-1.5,0.4-2.6,0.4
				C65.4,31.4,64.2,29,64.2,25.5z"/>
			<path d="M72.6,26.1c0-3.7,2.9-5.7,9.8-6.4c-0.1-1.6-0.8-2.5-2.7-2.5c-1.5,0-2.9,0.6-4.6,1.6l-1.9-3.4c2.2-1.3,4.7-2.3,7.5-2.3
				c4.4,0,6.9,2.5,6.9,7.9v10h-4.2l-0.3-1.8H83c-1.5,1.3-3.1,2.2-5.1,2.2C74.6,31.4,72.6,29,72.6,26.1z M82.5,25.9v-3.1
				c-3.7,0.5-4.8,1.6-4.8,2.9c0,1.1,0.8,1.7,2,1.7C80.8,27.4,81.6,26.8,82.5,25.9z"/>
			<path d="M91.2,13.5h4.2l0.3,3.1h0.1c1.3-2.3,3.2-3.5,5-3.5c1,0,1.6,0.1,2.1,0.3l-0.8,4.4c-0.6-0.2-1.2-0.3-1.9-0.3
				c-1.3,0-2.9,0.8-3.8,3.2V31h-5.2V13.5z"/>
			<path d="M104.1,8.2c0-1.6,1.3-2.7,3-2.7c1.8,0,3,1.1,3,2.7s-1.2,2.7-3,2.7C105.3,11,104.1,9.8,104.1,8.2z M104.5,13.5h5.2V31
				h-5.2V13.5z"/>
			<path d="M111.4,13.5h5.2l2.2,8.2c0.4,1.7,0.9,3.6,1.4,5.4h0.1c0.4-1.8,0.9-3.7,1.3-5.4l2.3-8.2h5L123.3,31h-6L111.4,13.5z"/>
			<path d="M129.8,26.1c0-3.7,2.9-5.7,9.8-6.4c-0.1-1.6-0.8-2.5-2.7-2.5c-1.5,0-2.9,0.6-4.6,1.6l-1.9-3.4c2.2-1.3,4.7-2.3,7.5-2.3
				c4.4,0,6.9,2.5,6.9,7.9v10h-4.2l-0.3-1.8h-0.1c-1.5,1.3-3.1,2.2-5.1,2.2C131.8,31.4,129.8,29,129.8,26.1z M139.7,25.9v-3.1
				c-3.7,0.5-4.8,1.6-4.8,2.9c0,1.1,0.8,1.7,2,1.7C138,27.4,138.7,26.8,139.7,25.9z"/>
			<path d="M148.9,24.6v-7.1h-2.4v-3.8l2.7-0.2l0.6-4.6h4.3v4.6h4.2v4.1H154v7c0,2,0.9,2.8,2.2,2.8c0.6,0,1.2-0.2,1.7-0.3l0.8,3.8
				c-0.9,0.3-2.2,0.6-3.9,0.6C150.5,31.4,148.9,28.7,148.9,24.6z"/>
			<path d="M159.6,22.2c0-5.7,4.1-9.1,8.2-9.1c5,0,7.4,3.6,7.4,8.4c0,0.9-0.1,1.9-0.2,2.3h-10.5c0.4,2.5,2.2,3.7,4.5,3.7
				c1.3,0,2.5-0.4,3.8-1.2l1.7,3.1c-1.8,1.2-4.1,2-6.2,2C163.5,31.4,159.6,28,159.6,22.2z M170.9,20.3c0-2-0.8-3.3-2.9-3.3
				c-1.6,0-3,1.1-3.4,3.3H170.9z"/>
			<path d="M50.3,38.3h3.5l5.5,16.9h-3.1l-1.3-4.6h-5.7l-1.3,4.5h-3L50.3,38.3z M49.9,48.3h4.3l-0.6-2.1c-0.5-1.8-1-3.7-1.5-5.6H52
				c-0.4,1.9-0.9,3.8-1.5,5.6L49.9,48.3z"/>
			<path d="M60.5,42.5H63l0.2,1.7h0.1c1.1-1.1,2.4-2,4.2-2c2.7,0,3.9,1.8,3.9,5v7.9h-3v-7.5c0-2.1-0.6-2.9-2-2.9
				c-1.1,0-1.8,0.5-2.9,1.6v8.9h-3L60.5,42.5L60.5,42.5z"/>
			<path d="M73.3,51.8c0-2.7,2.2-4.1,7.4-4.7c0-1.3-0.6-2.5-2.3-2.5c-1.2,0-2.4,0.6-3.6,1.2l-1.1-2c1.4-0.9,3.2-1.7,5.2-1.7
				c3.1,0,4.7,2,4.7,5.5v7.5h-2.4L81,53.7h-0.1c-1.1,1-2.4,1.7-3.9,1.7C74.8,55.5,73.3,54,73.3,51.8z M80.7,51.8v-2.8
				c-3.5,0.4-4.6,1.3-4.6,2.6c0,1.1,0.8,1.6,1.8,1.6C79,53.2,79.8,52.7,80.7,51.8z"/>
			<path d="M86.3,51.9V37h3v15.1c0,0.7,0.3,1,0.6,1c0.1,0,0.2,0,0.4,0l0.4,2.2c-0.3,0.1-0.9,0.2-1.6,0.2
				C87.1,55.5,86.3,54.1,86.3,51.9z"/>
			<path d="M91.4,60.1l0.5-2.3c0.2,0.1,0.6,0.2,0.9,0.2c1.3,0,2.1-0.9,2.5-2.2l0.2-0.8l-5-12.5h3l2.2,6.2c0.3,1.1,0.7,2.3,1.1,3.6
				h0.1c0.3-1.2,0.6-2.4,1-3.6l1.9-6.2h2.9l-4.6,13.2c-1.1,2.8-2.3,4.6-5.1,4.6C92.4,60.4,91.9,60.3,91.4,60.1z"/>
			<path d="M105.2,50.9v-6h-1.8v-2.2l2-0.1l0.3-3.5h2.5v3.5h3.2v2.3h-3.2v6c0,1.5,0.6,2.2,1.8,2.2c0.4,0,1-0.1,1.3-0.3l0.5,2.2
				c-0.7,0.2-1.6,0.4-2.6,0.4C106.3,55.5,105.2,53.6,105.2,50.9z"/>
			<path d="M112.8,38.6c0-1,0.8-1.7,1.8-1.7s1.8,0.7,1.8,1.7c0,1-0.8,1.7-1.8,1.7S112.8,39.6,112.8,38.6z M113.2,42.5h3v12.7h-3
				V42.5z"/>
			<path d="M118.1,48.9c0-4.2,3-6.7,6.4-6.7c1.6,0,2.8,0.6,3.7,1.4l-1.5,2c-0.7-0.6-1.3-0.9-2.1-0.9c-2.1,0-3.5,1.7-3.5,4.2
				s1.4,4.2,3.4,4.2c1,0,1.9-0.5,2.6-1.1l1.2,2c-1.2,1-2.7,1.6-4.1,1.6C120.7,55.5,118.1,53.1,118.1,48.9z"/>
			<path d="M129.2,53.7l1.4-1.9c1.1,0.9,2.2,1.4,3.5,1.4c1.4,0,2-0.6,2-1.5c0-1.1-1.4-1.5-2.7-2.1c-1.7-0.6-3.6-1.6-3.6-3.7
				c0-2.2,1.8-3.8,4.6-3.8c1.8,0,3.2,0.7,4.2,1.5l-1.4,1.8c-0.9-0.6-1.8-1.1-2.8-1.1c-1.3,0-1.9,0.6-1.9,1.4c0,1,1.3,1.4,2.6,1.9
				c1.7,0.6,3.6,1.5,3.6,3.9c0,2.2-1.7,3.9-4.9,3.9C132.2,55.5,130.4,54.7,129.2,53.7z"/>
		</g>
	</g>
</g>
</svg>
