<svg xmlns="http://www.w3.org/2000/svg" viewBox="0 0 420.818 70.561"><path d="M61.01 45.806c-.651 7.798-3.576 13.909-8.772 18.325-5.329 4.289-12.347 6.43-21.051 6.43-10.136 0-17.868-3.049-23.195-9.16C2.663 55.551 0 46.911 0 35.476 0 23.781 2.729 15.01 8.187 9.161 13.772 3.055 21.831 0 32.356 0c8.577 0 15.399 2.147 20.467 6.436 4.806 4.158 7.536 10.008 8.187 17.542h-8.382c-3.119 0-5.329-1.366-6.627-4.093a19.238 19.238 0 0 0-3.314-4.485c-2.6-1.949-6.042-2.923-10.331-2.923-5.978 0-10.592 1.948-13.838 5.849-3.119 3.897-4.678 9.614-4.678 17.15 0 7.281 1.56 12.864 4.678 16.765 2.988 4.027 7.471 6.042 13.449 6.042 4.157 0 7.602-1.04 10.331-3.119 2.467-1.948 4.222-5.067 5.264-9.358H61.01zm11.353 18.516c-2.73-2.336-4.679-5.486-5.849-9.452-1.169-3.962-1.754-8.09-1.754-12.376 0-3.507.487-7.018 1.462-10.527.974-3.507 2.502-6.43 4.581-8.771 3.377-3.898 7.727-6.203 13.061-6.919 5.325-.712 10.134-.293 14.424 1.267 4.936 1.948 8.574 5.329 10.912 10.134 2.21 4.289 3.315 9.296 3.315 15.01 0 4.162-.458 7.735-1.363 10.724-.913 2.988-2.084 5.521-3.512 7.601-3.119 4.29-7.081 6.954-11.89 7.989-4.285 1.171-8.61 1.267-12.96.293-4.355-.975-7.828-2.63-10.427-4.973zm9.356-34.302c-2.73 2.992-3.966 7.438-3.704 13.354.258 5.914 1.363 10.038 3.312 12.375.782 1.039 2.145 1.918 4.093 2.63 1.953.716 3.931.781 5.945.196 2.014-.585 3.805-2.045 5.365-4.386 1.56-2.337 2.402-6.106 2.533-11.305 0-4.679-.752-8.186-2.241-10.527-1.499-2.337-3.219-3.831-5.168-4.481-1.948-.646-3.896-.683-5.849-.097-1.948.585-3.382 1.332-4.286 2.241zm80.16 38.981h-6.824c-1.948 0-3.542-.61-4.774-1.853-1.236-1.23-1.852-2.826-1.852-4.774V35.868c0-3.119-.944-5.394-2.827-6.823-1.885-1.428-3.996-2.145-6.336-2.145-2.339 0-4.419.717-6.236 2.145-1.821 1.429-2.73 3.704-2.73 6.823v33.133h-13.644V38.594c0-8.832 2.306-14.746 6.919-17.735 4.611-2.987 9.713-4.612 15.302-4.874 5.716 0 10.98 1.493 15.789 4.482 4.805 2.991 7.213 9.032 7.213 18.127v30.407zm27.14 0c-4.288.263-8.936.196-13.938-.191-5.003-.39-7.505-3.574-7.505-9.555V1.949h7.018c1.687 0 3.183.65 4.482 1.948 1.297 1.302 1.949 2.861 1.949 4.679v8.772h7.993v2.729c0 1.947-.653 3.543-1.951 4.774-1.3 1.236-2.859 1.852-4.677 1.852h-1.365v28.848c0 2.215 1.299 3.316 3.899 3.316h4.094v10.134zm36.302-2.141a24.08 24.08 0 0 1-8.676 2.63c-3.053.323-5.748.485-8.088.485-4.678 0-8.771-1.268-12.281-3.8-3.508-2.534-5.262-6.724-5.262-12.572 0-5.456 1.588-9.356 4.774-11.694 3.183-2.341 7.243-3.9 12.185-4.679.647 0 1.428-.096 2.338-.292a31.865 31.865 0 0 1 3.119-.489c5.717-.777 8.574-2.464 8.574-5.067 0-1.947-1.006-3.215-3.019-3.8-2.017-.586-3.869-.879-5.555-.879-1.822 0-3.444.264-4.873.782-1.433.52-2.471 1.494-3.119 2.922h-13.061c.518-4.027 2.339-7.338 5.458-9.94 3.51-2.989 8.509-4.482 15.009-4.482 7.275 0 12.734 1.236 16.375 3.704 3.766 2.6 5.652 6.238 5.652 10.916V48.34c0 5.202-.946 9.26-2.826 12.183-1.886 2.925-4.128 5.04-6.724 6.337zm-3.119-23.976c-1.822.908-4.355 1.756-7.604 2.533l-4.48.975c-2.34.65-4.031 1.498-5.07 2.533-.91 1.433-1.365 2.861-1.365 4.29 0 1.948.585 3.508 1.756 4.678 1.169 1.039 2.857 1.559 5.067 1.559 3.638 0 6.495-1.04 8.577-3.119 2.077-2.078 3.119-4.936 3.119-8.574v-4.875zm45.463-40.935h10.915l24.366 67.052h-14.62l-4.482-13.838h-26.12l-4.289 13.838h-14.619l22.223-62.565c1.167-2.989 3.375-4.487 6.626-4.487zm3.117 13.45l-9.355 28.458h18.713l-9.358-28.458zm37.279 53.602V58.67l27.873-30.795h-19.686c-1.821 0-3.381-.616-4.679-1.853-1.3-1.232-1.948-2.761-1.948-4.583v-4.285h42.492v11.108L324.63 57.696h28.458v11.305h-45.027zm94.389-51.847v30.407c0 9.226-2.407 15.271-7.212 18.129-4.81 2.856-10.073 4.285-15.789 4.285-5.589-.258-10.69-1.817-15.302-4.674-4.613-2.857-6.92-8.772-6.92-17.74V17.154h13.645v33.138c0 3.119.908 5.391 2.73 6.818 1.817 1.434 3.896 2.145 6.235 2.145 2.34 0 4.451-.711 6.337-2.145 1.882-1.428 2.825-3.699 2.825-6.818V23.781c0-1.816.616-3.376 1.853-4.678 1.231-1.298 2.826-1.949 4.773-1.949h6.825zm4.723-15.205h7.018c1.817 0 3.377.62 4.676 1.853 1.298 1.236 1.951 2.764 1.951 4.581v60.618h-13.645V1.949z" fill="#2687e9"/></svg>