<svg xmlns="http://www.w3.org/2000/svg" viewBox="0 0 836 272" width="836" height="272">
    <path fill="#4285F4" d="M108 124.67V96h96c.98 5.05 1.55 11.07 1.55 17.58 0 21.5-5.89 48.13-24.83 67.07-18.43 19.2-41.99 29.44-73.22 29.44C49.64 210.1 1 162.99 1 105.13 1 47.27 49.64.17 107.5.17c32 0 54.79 12.54 71.94 28.93l-20.22 20.22c-12.29-11.52-28.93-20.48-51.71-20.48-42.24 0-75.27 34.05-75.27 76.29s33.03 76.29 75.27 76.29c27.39 0 43.01-11.01 52.99-20.99 8.14-8.13 13.49-19.8 15.57-35.76H108z"/>
    <path fill="#EA4335" d="M351.84 142.51c0 38.91-30.46 67.59-67.84 67.59s-67.84-28.67-67.84-67.59c0-39.17 30.46-67.59 67.84-67.59s67.84 28.42 67.84 67.59zm-29.69 0c0-24.32-17.66-40.96-38.14-40.96s-38.15 16.64-38.15 40.96c0 24.06 17.66 40.96 38.15 40.96 20.47 0 38.14-16.9 38.14-40.96z"/>
    <path fill="#FBBC05" d="M499.84 142.51c0 38.91-30.46 67.59-67.84 67.59s-67.84-28.67-67.84-67.59c0-39.17 30.46-67.59 67.84-67.59s67.84 28.42 67.84 67.59zm-29.69 0c0-24.32-17.66-40.96-38.14-40.96s-38.15 16.64-38.15 40.96c0 24.06 17.66 40.96 38.15 40.96 20.47 0 38.14-16.9 38.14-40.96z"/>
    <path fill="#4285F4" d="M641.7 79.02v121.35c0 49.92-29.44 70.4-64.26 70.4-32.77 0-52.48-22.02-59.91-39.94l25.86-10.75c4.61 11.01 15.87 24.07 34.05 24.07 22.27 0 36.1-13.83 36.1-39.68v-9.73h-1.02c-6.66 8.19-19.46 15.36-35.59 15.36-33.79 0-64.77-29.44-64.77-67.33 0-38.15 30.98-67.84 64.77-67.84 16.13 0 28.93 7.17 35.59 15.11h1.02V79.02h28.16zm-26.11 63.75c0-23.81-15.87-41.22-36.1-41.22-20.48 0-37.63 17.41-37.63 41.22 0 23.55 17.15 40.71 37.63 40.71 20.22-.01 36.1-17.16 36.1-40.71z"/>
    <path fill="#34A853" d="M692 8v198h-29.7V8H692z"/>
    <path fill="#EA4335" d="M806.68 164.78l23.04 15.36c-7.43 11.01-25.35 29.95-56.32 29.95-38.4 0-67.07-29.7-67.07-67.59 0-40.2 28.93-67.59 63.75-67.59 35.07 0 52.23 27.91 57.86 43.01l3.07 7.68-90.37 37.38c6.91 13.57 17.67 20.48 32.77 20.48 15.09.01 25.59-7.41 33.27-18.68zm-70.92-24.32l60.42-25.09c-3.33-8.45-13.31-14.34-25.09-14.34-15.1.01-36.09 13.32-35.33 39.43z"/>
    <path fill="none" d="M0 0h836v272H0z"/>
</svg>
