<?xml version="1.0" encoding="iso-8859-1"?>
<!-- Generator: Adobe Illustrator 20.0.0, SVG Export Plug-In . SVG Version: 6.00 Build 0)  -->
<svg version="1.1" id="Layer_1" xmlns="http://www.w3.org/2000/svg" xmlns:xlink="http://www.w3.org/1999/xlink" x="0px" y="0px"
	 viewBox="200 140 600 400" style="enable-background:new 0 0 1000 612;" xml:space="preserve">
<g>
	<path style="fill:#485159;stroke:#485159;stroke-width:0.25;" d="M443.219,435.701c-0.263,0-0.409-0.236-0.643-0.557l-8.409-11.619
		l-6.247,6.339v4.813c0,0.555-0.087,1.023-0.557,1.023c-0.464,0-0.524-0.468-0.524-1.023V416.43c0-0.552,0.06-1.02,0.524-1.02
		c0.469,0,0.557,0.468,0.557,1.02v11.854l12.204-12.379c0.206-0.202,0.467-0.495,0.729-0.495c0.322,0,0.498,0.205,0.498,0.437
		c0,0.32-0.265,0.672-0.498,0.907l-5.926,6.07l8.525,11.826c0.147,0.205,0.293,0.38,0.293,0.673
		C443.745,435.526,443.54,435.701,443.219,435.701z"/>
	<path style="fill:#485159;stroke:#485159;stroke-width:0.25;" d="M463.039,435.555h-13.781c-0.29,0-0.435-0.147-0.435-0.437
		v-19.124c0-0.29,0.145-0.437,0.435-0.437h13.111c0.698,0,0.875,0.263,0.875,0.522c0,0.266-0.177,0.557-0.875,0.557h-12.466v7.913
		h6.802c0.7,0,0.877,0.263,0.877,0.525c0,0.263-0.177,0.557-0.877,0.557h-6.802v8.842h13.136c0.73,0,0.875,0.266,0.875,0.528
		C463.914,435.264,463.74,435.555,463.039,435.555z"/>
	<path style="fill:#485159;stroke:#485159;stroke-width:0.25;" d="M486.277,435.701c-0.408,0-0.467-0.09-0.761-0.468l-13.749-18.099
		v17.516c0,0.584,0,1.052-0.554,1.052c-0.525,0-0.525-0.498-0.525-1.082v-17.866c0-1.17,0-1.344,0.641-1.344
		c0.553,0,0.643,0.232,1.023,0.73l13.312,17.634v-17.197c0-0.935,0-1.314,0.556-1.314c0.525,0,0.525,0.406,0.525,1.314v17.957
		C486.744,435.176,486.744,435.701,486.277,435.701z"/>
	<path style="fill:#485159;stroke:#485159;stroke-width:0.25;" d="M506.652,435.555h-13.282c-0.789,0-1.198,0-1.198-0.525
		c0-0.175,0.293-0.669,0.527-0.994l13.807-17.401h-11.853c-1.547,0-1.984,0-1.984-0.557c0-0.522,0.437-0.522,1.984-0.522h12.115
		c0.438,0,1.082,0.027,1.082,0.468c0,0.405-0.32,0.872-0.616,1.255l-13.573,17.193h12.991c0.7,0,1.312,0,1.312,0.557
		C507.964,435.555,507.352,435.555,506.652,435.555z"/>
	<path style="fill:#485159;stroke:#485159;stroke-width:0.25;" d="M529.655,435.701c-0.437,0-0.61-0.468-0.787-0.818l-2.481-5.401
		h-11.739l-2.829,5.694c-0.117,0.203-0.233,0.525-0.555,0.525c-0.295,0-0.586-0.147-0.586-0.498c0-0.202,0.207-0.525,0.325-0.757
		l9.136-18.511c0.233-0.47,0.38-0.672,0.675-0.672c0.289,0,0.434,0.202,0.64,0.672l8.467,18.653c0.06,0.178,0.233,0.498,0.233,0.676
		C530.154,435.408,530.094,435.701,529.655,435.701z M520.78,416.959l-5.606,11.441h10.776L520.78,416.959z"/>
	<path style="fill:#485159;stroke:#485159;stroke-width:0.25;" d="M550.879,435.701c-0.408,0-0.467-0.09-0.76-0.468l-13.75-18.099
		v17.516c0,0.584,0,1.052-0.554,1.052c-0.524,0-0.524-0.498-0.524-1.082v-17.866c0-1.17,0-1.344,0.639-1.344
		c0.556,0,0.642,0.232,1.022,0.73l13.315,17.634v-17.197c0-0.935,0-1.314,0.55-1.314c0.527,0,0.527,0.406,0.527,1.314v17.957
		C551.344,435.176,551.344,435.701,550.879,435.701z"/>
</g>
<g>
	<path style="fill:#485159;" d="M509.892,133.972c0,0-12.097,65.493-12.097,130.184c0,64.684,10.591,131.983,10.591,131.983
		s10.422-77.202,10.413-123.934C518.801,225.484,509.892,133.972,509.892,133.972z"/>
	<path style="fill:#C9CACC;" d="M472.831,236.117c0,0-10.766,39.144-10.766,77.385c0,38.233,9.417,82.638,9.417,82.638
		s9.261-50.263,9.261-77.878C480.744,290.638,472.831,236.117,472.831,236.117z"/>
	<path style="fill:#C9CACC;" d="M436.581,278.399c0,0-9.881,31.661-9.881,63.085c0,31.418,8.646,54.655,8.646,54.655
		s8.506-31.872,8.503-54.575C443.849,318.872,436.581,278.399,436.581,278.399z"/>
	<path style="fill:#C9CACC;" d="M544.056,284.856c0,0-10.102,29.851-10.102,59.636c0,29.774,8.841,51.647,8.841,51.647
		s8.691-30.049,8.688-51.566C551.483,323.061,544.056,284.856,544.056,284.856z"/>
</g>
<g>
</g>
<g>
</g>
<g>
</g>
<g>
</g>
<g>
</g>
<g>
</g>
</svg>
