<?xml version="1.0" encoding="utf-8"?>
<!-- Generator: Adobe Illustrator 17.1.0, SVG Export Plug-In . SVG Version: 6.00 Build 0)  -->
<!DOCTYPE svg PUBLIC "-//W3C//DTD SVG 1.1//EN" "http://www.w3.org/Graphics/SVG/1.1/DTD/svg11.dtd">
<svg version="1.1" id="Lager_1" xmlns="http://www.w3.org/2000/svg" xmlns:xlink="http://www.w3.org/1999/xlink" x="0px" y="0px"
	 viewBox="0 0 90 120" enable-background="new 0 0 90 120" xml:space="preserve">
<g>
	<g>
		<polygon fill="#010202" points="7.1,113.5 3.6,107.6 3.6,107.6 2.9,107.6 2.9,117.5 3.5,117.5 3.5,108.5 6.9,114.2 6.9,114.2 
			7.3,114.2 10.7,108.5 10.7,117.5 11.3,117.5 11.3,107.6 10.6,107.6 		"/>
		<polygon fill="#010202" points="13.8,117.5 19.7,117.5 19.7,117 14.3,117 14.3,112.6 18.6,112.6 18.6,112.1 14.3,112.1 
			14.3,108.1 19.7,108.1 19.7,107.6 13.8,107.6 		"/>
		<path fill="#010202" d="M25.3,107.6h-3.5v9.9h3.5c2,0,3.3-1.3,3.3-3.2v-3.6C28.6,108.8,27.3,107.6,25.3,107.6z M28,114.4
			c0,1.2-0.7,2.6-2.8,2.6h-2.9v-8.9h2.9c1.7,0,2.8,1,2.8,2.7V114.4z"/>
		<rect x="30.8" y="107.6" fill="#010202" width="0.5" height="9.9"/>
		<path fill="#010202" d="M37.3,107.6h-0.5l-3.7,9.9h0.6l1.3-3.5h4.1l1.3,3.5h0.6L37.3,107.6L37.3,107.6z M35.1,113.5l1.9-5.2
			l1.9,5.2H35.1z"/>
		<path fill="#010202" d="M48.3,113h2.8v1.8c0,1.4-1.1,2.3-2.9,2.3c-1.8,0-3-1.1-3-2.9v-3.5c0-1.7,1.2-2.9,3-2.9
			c1.8,0,2.9,0.9,2.9,2.3v0.6h0.5v-0.7c0-1.6-1.4-2.7-3.3-2.7c-2.1,0-3.6,1.4-3.6,3.4v3.7c0,2,1.4,3.2,3.6,3.2
			c2.1,0,3.4-1.1,3.4-2.7v-2.5h-3.4V113z"/>
		<path fill="#010202" d="M60.4,110.4c0-1.7-1.2-2.8-3.2-2.8h-3.1v9.9h0.5v-4.2H57l3.2,4.2l0,0h0.7l-3.2-4.2
			C59.3,113.1,60.4,112.1,60.4,110.4z M56.9,112.8h-2.3v-4.7h2.3c1.8,0,2.8,0.8,2.8,2.3C59.8,112.1,58.9,112.8,56.9,112.8z"/>
		<path fill="#010202" d="M65.9,107.4c-2.2,0-3.6,1.4-3.6,3.5v3.5c0,2,1.4,3.2,3.6,3.2c2.1,0,3.6-1.4,3.6-3.5v-3.5
			C69.5,108.7,68.1,107.4,65.9,107.4z M68.9,114.2c0,1.8-1.2,2.9-3,2.9c-1.9,0-3-1.1-3-2.9V111c0-1.8,1.2-3,3-3c1.9,0,3.1,1,3.1,2.7
			V114.2z"/>
		<path fill="#010202" d="M78.1,114.4c0,0.8-0.2,1.5-0.7,2c-0.5,0.5-1.3,0.8-2.2,0.8c-0.9,0-3-0.3-3-2.9v-6.6h-0.5v6.8
			c0,2.4,1.9,3.3,3.4,3.3c1.1,0,2-0.3,2.7-1c0.6-0.6,0.9-1.4,0.8-2.3v-6.8h-0.5V114.4z"/>
		<path fill="#010202" d="M84.2,107.6H81v9.9h0.5v-4.1h2.2c2.1,0,3.4-1.2,3.4-3C87.2,108.8,86,107.6,84.2,107.6z M83.6,112.9h-2.1
			v-4.8h2.5c1.5,0,2.5,1,2.5,2.4C86.7,112.1,85.6,112.9,83.6,112.9z"/>
	</g>
	<g>
		<path fill="#010202" d="M2.5,100.9l1.9-0.8c0.4,1.1,1.5,1.7,2.7,1.7c1.2,0,2.2-0.4,2.2-1.5c0-0.8-0.7-1.2-1.6-1.5l-1.9-0.5
			c-1.5-0.4-2.7-1.1-2.7-3.1c0-2.1,1.9-3.4,4.1-3.4c1.9,0,3.3,0.6,4,2.3L9.5,95c-0.5-1-1.3-1.3-2.4-1.3c-0.9,0-1.8,0.4-1.8,1.4
			c0,0.8,0.8,1.2,1.7,1.4L8.9,97c1.4,0.3,2.6,1.1,2.6,3.2c0,2.1-1.9,3.5-4.4,3.5C5,103.7,3.1,102.8,2.5,100.9z"/>
		<path fill="#010202" d="M12.8,99.8v-3.6c0-2.7,2.1-4.2,4.6-4.2c2.2,0,4.3,1.2,4.3,3.8V96h-2v-0.2c0-1.5-1.3-2.1-2.3-2.1
			c-1.1,0-2.4,0.6-2.4,2.2v3.6c0,1.4,1.2,2.2,2.5,2.2c1,0,2.3-0.6,2.3-2.1v-0.2h2v0.4c0,2.5-2.1,3.8-4.3,3.8
			C15,103.7,12.8,102.3,12.8,99.8z"/>
		<path fill="#010202" d="M23.4,92.1h2.1v4.6h4.6v-4.6h2.1v11.4h-2.1v-4.9h-4.6v4.9h-2.1V92.1z"/>
		<path fill="#010202" d="M34.7,92.1h2.1v11.4h-2.1V92.1z"/>
		<path fill="#010202" d="M39.4,92.1h4.9c2.2,0,3.5,1,3.5,2.9c0,1-0.4,1.9-1.6,2.4v0c1.3,0.4,2,1.5,2,2.7c0,2.1-1.7,3.3-3.6,3.3
			h-5.2V92.1z M44,96.8c1.1,0,1.7-0.5,1.7-1.5c0-1-0.7-1.4-1.8-1.4h-2.4v2.9H44z M44.2,101.7c1.1,0,1.9-0.6,1.9-1.6
			s-0.7-1.5-1.8-1.5h-2.7v3.1H44.2z"/>
		<path fill="#010202" d="M48.9,100.9l1.9-0.8c0.4,1.1,1.5,1.7,2.7,1.7c1.1,0,2.2-0.4,2.2-1.5c0-0.8-0.7-1.2-1.6-1.5l-1.9-0.5
			c-1.5-0.4-2.7-1.1-2.7-3.1c0-2.1,1.9-3.4,4.1-3.4c1.9,0,3.3,0.6,4,2.3L56,95c-0.5-1-1.3-1.3-2.4-1.3c-0.9,0-1.8,0.4-1.8,1.4
			c0,0.8,0.8,1.2,1.7,1.4l1.9,0.5c1.4,0.3,2.6,1.1,2.6,3.2c0,2.1-1.9,3.5-4.4,3.5C51.5,103.7,49.5,102.8,48.9,100.9z"/>
		<path fill="#010202" d="M62,93.9h-3.3v-1.8h8.7v1.8h-3.3v9.6H62V93.9z"/>
		<path fill="#010202" d="M68.6,92.1h7.9V94h-5.8v2.8h5.1v1.9h-5.1v3h5.8v1.9h-8V92.1z"/>
		<path fill="#010202" d="M78.3,92.1h4.4c2.5,0,4.5,1.6,4.5,4.2v3c0,2.7-2.2,4.2-4.5,4.2h-4.5V92.1z M82.7,101.6
			c1.1,0,2.4-0.6,2.4-2.2v-3.3c0-1.4-1.2-2.2-2.5-2.2h-2.2v7.7H82.7z"/>
	</g>
	<g>
		<g>
			<g>
				<path fill="#055092" d="M28.1,52.3c-4.6,0-8.1,3.6-8.1,9.7c0,6.1,4.4,16,18.5,16c9,0,17.1-5.8,18.2-15.8H36.9
					C36.9,55.1,32.8,52.3,28.1,52.3z M87.2,57.8V2.1H2.5v84.7h84.7l0-24.6h-10c-4.8,12.6-19.8,20.7-36.6,20.7
					c-17.5,0-25.7-9.9-25.7-22.4c0-10.6,7.6-18,18.5-18c3.5,0,15.1,1.3,16.7,15.3h6.7C56,45.8,45.7,35,45.7,23.9
					C45.7,10.8,55.8,6,67.3,6c5,0,8,0.7,11,1.7V16h-5c0-4.7-1.3-6.8-4.2-6.8c-2.3,0-3.8,1.8-3.8,4.3c0,3.6,1.9,6.9,3.9,11l2.9,6
					c3.5,7.4,6.7,16.3,6.7,23c0,1.5-0.2,3-0.4,4.3H87.2z"/>
			</g>
		</g>
		<path fill="#FFFFFF" d="M78.4,57.8c0.2-1.3,0.4-2.8,0.4-4.3c0-6.7-3.3-15.6-6.7-23l-2.9-6c-1.9-4-3.9-7.4-3.9-11
			c0-2.5,1.4-4.3,3.8-4.3c3,0,4.2,2.1,4.2,6.8h5V7.7c-3-1.1-6-1.7-11-1.7c-11.6,0-21.7,4.8-21.7,17.9C45.7,35,56,45.8,56.8,57.8
			h-6.7c-1.5-14-13.2-15.3-16.7-15.3c-10.9,0-18.5,7.4-18.5,18c0,12.4,8.2,22.4,25.7,22.4c16.8,0,31.8-8.1,36.6-20.7h10v-4.3H78.4z
			 M38.5,78C24.5,78,20,68.1,20,62c0-6.2,3.5-9.7,8.1-9.7c4.7,0,8.8,2.9,8.8,9.9h19.8C55.6,72.2,47.5,78,38.5,78z"/>
	</g>
</g>
</svg>
