<?xml version="1.0" encoding="UTF-8" standalone="no"?>
<svg
   xmlns:dc="http://purl.org/dc/elements/1.1/"
   xmlns:cc="http://creativecommons.org/ns#"
   xmlns:rdf="http://www.w3.org/1999/02/22-rdf-syntax-ns#"
   xmlns:svg="http://www.w3.org/2000/svg"
   xmlns="http://www.w3.org/2000/svg"
   viewBox="0 0 2188.3467 397.05334"
   height="397.05334"
   width="2188.3467"
   xml:space="preserve"
   id="svg2"
   version="1.1"><metadata
     id="metadata8"><rdf:RDF><cc:Work
         rdf:about=""><dc:format>image/svg+xml</dc:format><dc:type
           rdf:resource="http://purl.org/dc/dcmitype/StillImage" /></cc:Work></rdf:RDF></metadata><defs
     id="defs6" /><g
     transform="matrix(1.3333333,0,0,-1.3333333,0,397.05333)"
     id="g10"><g
       transform="scale(0.1)"
       id="g12"><path
         id="path14"
         style="fill:#040606;fill-opacity:1;fill-rule:nonzero;stroke:none"
         d="m 1807.96,1379.99 c -11.34,22.92 -27.12,56.07 -51.73,87.12 -16.03,20.22 -38.56,34.06 -65.75,34.06 -42.59,0 -71.67,-30.9 -71.67,-73.96 0,-14.77 4.97,-28.14 11.33,-40.59 3.48,-6.83 10.04,-20.24 13.52,-27.2 2.25,-4.51 2.16,-9.02 -1.71,-11.11 -4.55,-2.57 -8.85,-0.32 -11.24,3.64 -3.7,6.13 -15.18,24.45 -15.18,24.45 -13.86,21.61 -37.31,37.41 -64.9,37.41 -43.61,0 -77.53,-36.13 -77.53,-79.37 0,-12.4 3.06,-24.05 8.14,-34.5 2.04,-4.2 5.97,-12.66 8.02,-16.84 2.24,-4.55 2.29,-9.13 -1.64,-11.53 -4.07,-2.48 -8.51,-0.11 -10.92,3.6 -2.97,4.57 -9.01,13.64 -12.17,18.06 -13.07,18.25 -33.98,29.27 -57.43,29.27 -38.83,0 -70.94,-29.19 -70.94,-73.74 0,-13.96 5.99,-31.33 12.34,-45.41 31.5,-69.86 46.89,-137.95 46.89,-242.721 0,-247.059 -193.21,-447.32 -426.753,-447.32 -309.352,0 -424.418,238 -446.481,308.793 -2.64,8.488 -11.687,13.207 -20.183,10.589 L 41.8945,691.102 C 33.3398,688.461 28.3906,679.398 31.043,670.852 132.633,343.352 456.641,0 963.457,0 c 419.973,0 768.983,281.359 896.993,661.121 79.91,237.07 55.35,500.729 -52.49,718.869" /><path
         id="path16"
         style="fill:#040606;fill-opacity:1;fill-rule:nonzero;stroke:none"
         d="m 953.797,1444.29 c -24.762,0 -44.66,20.07 -44.66,44.63 0,24.76 20.07,44.66 44.625,44.66 24.761,0 44.664,-20.07 44.664,-44.63 0,-24.76 -20.074,-44.66 -44.629,-44.66" /><path
         id="path18"
         style="fill:#040606;fill-opacity:1;fill-rule:nonzero;stroke:none"
         d="m 953.797,1826.95 c -24.762,0 -44.66,20.08 -44.66,44.63 0,24.76 20.07,44.66 44.625,44.66 24.761,0 44.664,-20.07 44.664,-44.63 0,-24.75 -20.074,-44.66 -44.629,-44.66" /><path
         id="path20"
         style="fill:#040606;fill-opacity:1;fill-rule:nonzero;stroke:none"
         d="m 953.797,1635.62 c -24.762,0 -44.66,20.07 -44.66,44.63 0,24.76 20.07,44.66 44.625,44.66 24.761,0 44.664,-20.08 44.664,-44.63 0,-24.76 -20.074,-44.66 -44.629,-44.66" /><path
         id="path22"
         style="fill:#040606;fill-opacity:1;fill-rule:nonzero;stroke:none"
         d="m 1305.62,1419.8 c -9.47,9.85 -22.35,20.42 -33.59,28.2 -26.24,18.17 -50.4,33.2 -79.35,46.53 -18.52,8.53 -27.24,12.98 -50.07,19.43 -17,4.8 -33.17,6.93 -48.51,0.56 -23.97,-9.94 -37.22,-35.39 -29.5,-63.05 5.91,-21.15 23.02,-29.58 41.33,-38.37 29.36,-14.1 43.93,-21.61 68.88,-37 19.45,-11.99 36.02,-23.04 55.78,-37.15 23.44,-16.74 53.11,-19.48 74.05,-0.95 23.67,20.96 24.05,57.79 0.98,81.8" /><path
         id="path24"
         style="fill:#040606;fill-opacity:1;fill-rule:nonzero;stroke:none"
         d="m 1465.32,1531.49 c -30,30.66 -63.93,57.08 -96.71,73.91 -10.91,5.59 -19.03,9.62 -33.36,12.98 -21.14,4.96 -43.24,-1.51 -57.04,-18.23 -14.97,-18.14 -16.5,-42.97 -4.6,-63.27 9.96,-17 23.07,-25.47 38.49,-36.66 23.13,-16.81 39.18,-29.55 60.79,-47.78 14.05,-11.86 25.98,-24.68 45.3,-27.32 25.03,-3.43 50.09,9.72 61.51,32.25 12.37,24.42 4.76,54.56 -14.38,74.12" /><path
         id="path26"
         style="fill:#040606;fill-opacity:1;fill-rule:nonzero;stroke:none"
         d="m 1185.63,1694.28 c -13.49,5.77 -24.64,10.38 -43.93,15.32 -14.27,3.65 -31.32,5.74 -46.07,2.28 -33.46,-7.85 -49.32,-48.11 -30.16,-76.7 7.76,-11.59 17.94,-16.63 32.05,-21.63 11.35,-4.02 19.75,-7.06 33.3,-12.02 10.03,-3.68 21.6,-8.26 30.77,-10.02 16.53,-3.16 33.93,2.07 46.03,13.76 28.44,27.46 18.89,71.5 -21.99,89.01" /><path
         id="path28"
         style="fill:#040606;fill-opacity:1;fill-rule:nonzero;stroke:none"
         d="m 1139.28,1897.83 c -7.38,2.05 -16.75,4.08 -25.86,4.83 -11.55,0.94 -24.59,-0.62 -35.06,-7.69 -20.5,-13.85 -27.44,-41.84 -15.61,-63.62 5.74,-10.57 15.4,-18.83 26.76,-22.79 10.37,-3.62 22.38,-7.47 33.33,-8.72 24.33,-2.76 47.44,13.17 53.57,36.84 7.11,27.45 -9.8,53.55 -37.13,61.15" /><path
         id="path30"
         style="fill:#040606;fill-opacity:1;fill-rule:nonzero;stroke:none"
         d="m 1378.02,1817.66 c -12.99,8.09 -24.49,14.19 -38.85,19.61 -15.73,5.94 -30.93,10.36 -46.03,11.37 -35.55,2.39 -64.68,-30.4 -58.33,-65.42 3.09,-17.05 14.37,-31.97 29.85,-39.72 12.22,-6.13 21.55,-10.79 34.76,-17.49 12.88,-6.54 26.31,-14.56 40.33,-18.32 17.08,-4.58 35.65,-0.8 49.61,10.03 33.23,25.78 26.28,76.52 -11.34,99.94" /><path
         id="path32"
         style="fill:#040606;fill-opacity:1;fill-rule:nonzero;stroke:none"
         d="m 1631.5,1631.47 c -13.43,16.47 -26.77,30.09 -41.1,42.65 -15.28,13.4 -25.71,21.88 -43.88,33.13 -15.69,9.72 -33.86,14.89 -52.67,11.34 -19.2,-3.61 -35.59,-17.3 -42.65,-35.51 -7.87,-20.28 -3.26,-43.85 11.63,-59.7 10.96,-11.67 20.95,-19.39 32.99,-30.02 15.12,-13.34 29.58,-26.47 43.71,-40.86 12.73,-12.98 26.6,-22.95 45.64,-23.65 22.75,-0.84 44.4,11.97 54.64,32.3 11.29,22.42 9.1,48.92 -8.31,70.32" /><path
         id="path34"
         style="fill:#040606;fill-opacity:1;fill-rule:nonzero;stroke:none"
         d="m 99.5977,1597.89 c 11.3403,-22.93 27.1213,-56.08 51.7303,-87.13 16.024,-20.22 38.559,-34.07 65.746,-34.07 42.594,0 71.676,30.91 71.676,73.96 0,14.78 -4.977,28.14 -11.332,40.61 -3.48,6.81 -10.039,20.22 -13.52,27.19 -2.253,4.51 -2.16,9.03 1.711,11.12 4.547,2.56 8.848,0.3 11.235,-3.65 3.707,-6.13 15.179,-24.45 15.179,-24.45 13.86,-21.62 37.317,-37.41 64.899,-37.41 43.621,0 77.531,36.13 77.531,79.37 0,12.41 -3.055,24.06 -8.137,34.51 -2.035,4.19 -5.964,12.64 -8.019,16.83 -2.242,4.55 -2.285,9.13 1.637,11.53 4.07,2.48 8.511,0.11 10.925,-3.6 2.969,-4.57 9.004,-13.65 12.168,-18.07 13.067,-18.25 33.981,-29.26 57.43,-29.26 38.828,0 70.938,29.2 70.938,73.75 0,13.94 -5.993,31.32 -12.34,45.39 -31.504,69.87 -46.895,137.96 -46.895,242.73 0,247.06 193.215,447.32 426.754,447.32 309.356,0 424.426,-238.01 446.476,-308.79 2.65,-8.49 11.7,-13.21 20.19,-10.59 l 460.08,141.59 c 8.56,2.63 13.5,11.69 10.85,20.24 -101.58,327.51 -425.59,670.86 -932.408,670.86 -419.977,0 -768.981,-281.36 -896.9926,-661.12 -79.918,-237.07 -55.3594,-500.73 52.4883,-718.86" /><path
         id="path36"
         style="fill:#040606;fill-opacity:1;fill-rule:nonzero;stroke:none"
         d="m 953.758,1150.91 c 24.758,0 44.664,-20.06 44.664,-44.63 0,-24.75 -20.078,-44.65 -44.629,-44.65 -24.762,0 -44.664,20.06 -44.664,44.63 0,24.75 20.074,44.65 44.629,44.65" /><path
         id="path38"
         style="fill:#040606;fill-opacity:1;fill-rule:nonzero;stroke:none"
         d="m 953.758,1342.25 c 24.758,0 44.664,-20.08 44.664,-44.63 0,-24.76 -20.078,-44.67 -44.629,-44.67 -24.762,0 -44.664,20.08 -44.664,44.63 0,24.77 20.074,44.67 44.629,44.67" /><path
         id="path40"
         style="fill:#040606;fill-opacity:1;fill-rule:nonzero;stroke:none"
         d="m 601.938,1558.07 c 9.468,-9.86 22.347,-20.42 33.582,-28.2 26.246,-18.18 50.402,-33.2 79.351,-46.52 18.527,-8.54 27.246,-12.99 50.074,-19.44 16.996,-4.8 33.168,-6.93 48.516,-0.56 23.965,9.94 37.215,35.39 29.492,63.04 -5.902,21.15 -23.019,29.59 -41.324,38.38 -29.359,14.1 -43.93,21.61 -68.887,37 -19.445,12 -36.015,23.04 -55.773,37.15 -23.446,16.73 -53.114,19.48 -74.051,0.95 -23.672,-20.96 -24.051,-57.78 -0.98,-81.8" /><path
         id="path42"
         style="fill:#040606;fill-opacity:1;fill-rule:nonzero;stroke:none"
         d="m 442.234,1446.37 c 30.004,-30.65 63.938,-57.07 96.715,-73.89 10.906,-5.6 19.028,-9.63 33.356,-12.99 21.144,-4.96 43.246,1.51 57.039,18.23 14.976,18.14 16.5,42.96 4.601,63.27 -9.957,17 -23.074,25.46 -38.492,36.66 -23.129,16.8 -39.176,29.54 -60.785,47.78 -14.055,11.86 -25.984,24.68 -45.305,27.32 -25.023,3.42 -50.082,-9.72 -61.504,-32.25 -12.379,-24.43 -4.765,-54.57 14.375,-74.13" /><path
         id="path44"
         style="fill:#040606;fill-opacity:1;fill-rule:nonzero;stroke:none"
         d="m 721.926,1283.59 c 13.492,-5.77 24.64,-10.38 43.926,-15.31 14.281,-3.66 31.32,-5.76 46.07,-2.29 33.457,7.85 49.32,48.11 30.168,76.69 -7.77,11.6 -17.942,16.64 -32.051,21.64 -11.355,4.03 -19.754,7.05 -33.309,12.02 -10.023,3.68 -21.593,8.26 -30.761,10.01 -16.543,3.18 -33.934,-2.07 -46.035,-13.75 -28.434,-27.47 -18.883,-71.5 21.992,-89.01" /><path
         id="path46"
         style="fill:#040606;fill-opacity:1;fill-rule:nonzero;stroke:none"
         d="m 768.27,1080.03 c 7.378,-2.05 16.75,-4.08 25.871,-4.82 11.543,-0.95 24.589,0.62 35.058,7.69 20.5,13.84 27.438,41.84 15.61,63.62 -5.743,10.58 -15.403,18.82 -26.762,22.79 -10.371,3.63 -22.379,7.46 -33.332,8.71 -24.328,2.77 -47.442,-13.16 -53.574,-36.83 -7.106,-27.45 9.8,-53.55 37.129,-61.16" /><path
         id="path48"
         style="fill:#040606;fill-opacity:1;fill-rule:nonzero;stroke:none"
         d="m 529.531,1160.21 c 12.992,-8.09 24.485,-14.19 38.856,-19.62 15.726,-5.93 30.929,-10.35 46.027,-11.37 35.555,-2.38 64.68,30.4 58.328,65.43 -3.09,17.04 -14.363,31.97 -29.844,39.72 -12.222,6.12 -21.554,10.79 -34.765,17.49 -12.879,6.53 -26.309,14.56 -40.328,18.32 -17.078,4.58 -35.649,0.8 -49.61,-10.03 -33.23,-25.78 -26.281,-76.53 11.336,-99.94" /><path
         id="path50"
         style="fill:#040606;fill-opacity:1;fill-rule:nonzero;stroke:none"
         d="m 276.059,1346.4 c 13.421,-16.48 26.773,-30.1 41.097,-42.65 15.278,-13.4 25.715,-21.88 43.879,-33.14 15.688,-9.72 33.856,-14.88 52.668,-11.34 19.199,3.63 35.598,17.31 42.656,35.51 7.868,20.28 3.254,43.86 -11.632,59.71 -10.957,11.67 -20.95,19.38 -32.989,30.02 -15.117,13.34 -29.582,26.47 -43.707,40.86 -12.734,12.98 -26.605,22.95 -45.648,23.65 -22.746,0.84 -44.403,-11.97 -54.637,-32.31 -11.293,-22.42 -9.105,-48.91 8.313,-70.31" /><path
         id="path52"
         style="fill:#040606;fill-opacity:1;fill-rule:nonzero;stroke:none"
         d="m 5283.5,1955.62 c -176.5,0 -379.26,-60.07 -499.42,-202.76 v 1009.1 c 0,8.85 -7.17,16.02 -16.02,16.02 h -467.38 c -8.85,0 -16.02,-7.17 -16.02,-16.02 V 75.3516 c 0,-8.8633 7.17,-16.0313 16.02,-16.0313 h 467.38 c 8.85,0 16.02,7.168 16.02,16.0313 V 1144.53 c -1.92,206.2 117.11,368.33 345.46,368.2 240.33,-0.13 341.72,-169.17 341.72,-375.7 V 75.3516 c 0,-8.8633 7.17,-16.0313 16.02,-16.0313 h 467.38 c 8.84,0 16.02,7.168 16.02,16.0313 V 1223.39 c 0,405.54 -217.8,732.23 -687.18,732.23" /><path
         id="path54"
         style="fill:#040606;fill-opacity:1;fill-rule:nonzero;stroke:none"
         d="m 6650.85,2823.03 c -170.06,1.32 -310.3,-138.1 -310.3,-311.64 0,-165.24 138.94,-304.17 307.92,-304.17 186.21,0 328.78,161.46 305.4,343.27 -19.59,152.28 -149.49,271.36 -303.02,272.54" /><path
         id="path56"
         style="fill:#040606;fill-opacity:1;fill-rule:nonzero;stroke:none"
         d="m 6884.04,1906.82 h -467.38 c -8.84,0 -16.02,-7.17 -16.02,-16.02 V 75.3516 c 0,-8.8633 7.18,-16.0313 16.02,-16.0313 h 467.38 c 8.85,0 16.02,7.168 16.02,16.0313 V 1890.8 c 0,8.85 -7.17,16.02 -16.02,16.02" /><path
         id="path58"
         style="fill:#040606;fill-opacity:1;fill-rule:nonzero;stroke:none"
         d="m 8276.44,457.238 c -251.6,0 -465.93,195.391 -465.93,529.582 0,337.96 214.33,525.8 465.93,525.8 255.35,0 458.11,-187.84 458.11,-525.8 0,-337.961 -202.76,-529.582 -458.11,-529.582 z m 105.14,1498.382 c -274.12,0 -476.9,-120.16 -559.51,-251.58 v 1057.92 c 0,8.85 -7.18,16.02 -16.03,16.02 h -459.85 c -8.85,0 -16.03,-7.17 -16.03,-16.02 V 75.3516 c 0,-8.8633 7.18,-16.0313 16.03,-16.0313 h 452.35 c 8.85,0 16.02,7.168 16.02,16.0313 V 284.621 C 7912.19,126.91 8107.46,14.25 8362.81,14.25 c 525.69,0 871.16,416.828 871.16,976.32 0,548.24 -311.67,965.05 -852.39,965.05" /><path
         id="path60"
         style="fill:#040606;fill-opacity:1;fill-rule:nonzero;stroke:none"
         d="m 12224.8,486.98 c -32.6,-5.89 -86.4,-10.851 -135.2,-10.851 -142.7,0 -217.8,52.57 -217.8,214.051 v 773.54 h 355.7 c 8.9,0 16.1,7.17 16.1,16.02 v 411.06 c 0,8.85 -7.2,16.02 -16.1,16.02 h -355.7 v 535.97 c 0,8.85 -7.2,16.02 -16,16.02 H 11394 c -8.9,0 -16,-7.15 -16.1,-16 l -0.7,-535.99 H 11058 c -8.9,0 -16.1,-7.17 -16.1,-16.02 v -411.06 c 0,-8.85 7.2,-16.02 16.1,-16.02 h 318.2 V 603.809 c 0,-356.731 225.3,-570.7895 585.7,-570.7895 135.8,0 223.2,22.6094 271.1,40.8594 6.4,2.4297 10.6,8.5195 10.6,15.3594 V 471.09 c 0,9.98 -9,17.672 -18.8,15.89" /><g
         transform="scale(1.00691)"
         id="g62"><path
           id="path64"
           style="fill:#040606;fill-opacity:1;fill-rule:nonzero;stroke:none"
           d="m 15362.7,454.101 c -261,0 -455,197.775 -455,525.949 0,328.17 201.4,518.47 455,518.47 253.5,0 457,-186.55 457,-514.746 0,-331.898 -203.5,-529.673 -457,-529.673 z m 921.4,2304.829 h -461.7 c -8.8,0 -15.9,-7.13 -15.9,-15.91 V 1711 c -52.2,96.96 -201.4,227.48 -518.4,227.48 -518.3,0 -880.1,-421.4 -880.1,-958.43 0,-555.673 372.9,-965.8978 895,-965.8978 246.2,0 432.6,111.8868 514.6,257.3238 l 1,-196.7229 c 0,-8.7675 7.2,-15.8398 15.9,-15.8398 h 449.6 c 8.8,0 15.9,7.1188 15.9,15.9213 V 390.812 2743.02 c 0,8.78 -7.1,15.91 -15.9,15.91" /></g><path
         id="path66"
         style="fill:#040606;fill-opacity:1;fill-rule:nonzero;stroke:none"
         d="m 12955.8,1193.35 c 11.2,168.97 154,364.23 413.1,364.23 285.3,0 405.5,-180.23 413,-364.23 z m 405.5,769.79 c -473.1,0 -908.7,-383.02 -908.7,-972.581 0,-623.329 446.9,-987.57072 953.8,-987.57072 378.3,0 644.6,184.88272 777.4,431.01172 4.4,8.23 0.7,18.539 -7.9,22.27 l -374.4,162.699 c -7.2,3.14 -15.5,0.461 -19.8,-6.16 -71.4,-110.321 -189.2,-181.739 -371.5,-181.739 -247.9,0 -454.4,176.481 -465.7,420.559 h 1306.8 c 8.4,0 15.4,6.351 16,14.699 2,26.672 6.5,84.094 6.5,139.252 0,593.32 -341.7,957.56 -912.5,957.56" /><path
         id="path68"
         style="fill:#040606;fill-opacity:1;fill-rule:nonzero;stroke:none"
         d="m 10377.3,1183.6 -262.9,56.32 c -101.4,18.79 -168.97,69.83 -168.97,159.95 0,105.14 105.17,184 236.57,184 180.2,0 263.7,-101.95 293.4,-199.67 2.6,-8.77 12.4,-13.24 21,-9.93 l 372,144.15 c 8,3.08 12.3,11.88 9.5,19.96 -66,192.57 -261.4,424.76 -699.7,424.76 -398.01,0 -690.9,-274.13 -690.9,-604.57 0,-259.1 161.48,-480.34 518.2,-559.191 l 244.1,-56.34 c 142.7,-30.051 199,-90.418 199,-173.027 0,-97.641 -78.8,-184.012 -244.1,-184.012 -209.27,0 -317.99,124.84 -336.17,264.52 -1.21,9.351 -10.04,15.3 -19.24,13.269 l -396.32,-86.898 c -8.09,-1.782 -13.64,-9.422 -12.5,-17.629 29.6,-211.903 224.83,-556.27372 768.03,-556.27372 484.4,0 717.2,307.90972 717.2,608.31272 0,270.379 -184,497.199 -548.2,572.299" /><path
         id="path70"
         style="fill:#040606;fill-opacity:1;fill-rule:nonzero;stroke:none"
         d="M 3990.27,631.191 3581.3,767.52 c -8.69,2.902 -17.83,-1.879 -20.71,-10.579 -45.97,-139.05 -173.46,-295.839 -419.41,-295.839 -255.35,0 -473.13,187.75 -473.13,521.957 0,334.191 214.02,518.201 469.37,518.201 212.62,0 328.32,-116.1 385.39,-246.3 3.38,-7.71 11.97,-11.64 19.92,-8.9 l 419.01,144.57 c 8.41,2.9 12.98,12.11 9.99,20.48 -102.03,286.17 -380.85,552.03 -845.58,552.03 -536.97,0 -957.55,-409.31 -957.55,-980.081 0,-567.008 428.08,-980.07072 972.58,-980.07072 484.06,0 771.77,305.42172 859.54,608.58172 2.39,8.239 -2.31,16.899 -10.45,19.621" /></g></g></svg>