<?xml version="1.0" encoding="UTF-8"?>
<svg width="125px" height="125px" viewBox="0 0 125 125" version="1.1" xmlns="http://www.w3.org/2000/svg" xmlns:xlink="http://www.w3.org/1999/xlink">
    <!-- Generator: Sketch 44.1 (41455) - http://www.bohemiancoding.com/sketch -->
    <title>automated-releases</title>
    <desc>Created with Sketch.</desc>
    <defs></defs>
    <g id="Home-page" stroke="none" stroke-width="1" fill="none" fill-rule="evenodd">
        <g id="Desktop" transform="translate(-804.000000, -854.000000)" fill="#149CB5">
            <g id="Group-7" transform="translate(75.000000, 854.000000)">
                <g id="Group-6" transform="translate(729.000000, 0.000000)">
                    <path d="M100.105932,118.644068 C89.8852401,118.644068 81.5677966,110.326624 81.5677966,100.105932 C81.5677966,89.8852401 89.8852401,81.5677966 100.105932,81.5677966 C110.326624,81.5677966 118.644068,89.8852401 118.644068,100.105932 C118.644068,110.326624 110.326624,118.644068 100.105932,118.644068 Z M24.8940678,80.5084746 C14.6733757,80.5084746 6.3559322,72.1910311 6.3559322,61.970339 C6.3559322,51.7496469 14.6733757,43.4322034 24.8940678,43.4322034 C35.1147599,43.4322034 43.4322034,51.7496469 43.4322034,61.970339 C43.4322034,72.1910311 35.1147599,80.5084746 24.8940678,80.5084746 Z M100.105932,6.3559322 C110.326624,6.3559322 118.644068,14.6733757 118.644068,24.8940678 C118.644068,35.1147599 110.326624,43.4322034 100.105932,43.4322034 C89.8852401,43.4322034 81.5677966,35.1147599 81.5677966,24.8940678 C81.5677966,14.6733757 89.8852401,6.3559322 100.105932,6.3559322 Z M100,75 C91.35,75 83.71875,79.41875 79.21875,86.11875 L48.58125,70.8 C49.5,68.2 50,65.4125 50,62.5 C50,59.5875 49.5,56.8 48.58125,54.2 L79.21875,38.88125 C83.70625,45.58125 91.35,50 100,50 C113.7875,50 125,38.7875 125,25 C125,11.2125 113.7875,0 100,0 C86.2125,0 75,11.2125 75,25 C75,27.90625 75.5,30.7 76.41875,33.29375 L45.78125,48.6125 C41.29375,41.9125 33.65,37.5 25,37.5 C11.2125,37.5 0,48.7125 0,62.5 C0,76.2875 11.2125,87.5 25,87.5 C33.65,87.5 41.2875,83.08125 45.78125,76.38125 L76.41875,91.7 C75.5,94.3 75,97.0875 75,100 C75,113.7875 86.2125,125 100,125 C113.7875,125 125,113.7875 125,100 C125,86.2125 113.7875,75 100,75 L100,75 Z" id="Fill-1"></path>
                </g>
            </g>
        </g>
    </g>
</svg>