<?xml version="1.0" encoding="UTF-8"?>
<svg width="90px" height="109px" viewBox="0 0 90 109" version="1.1" xmlns="http://www.w3.org/2000/svg" xmlns:xlink="http://www.w3.org/1999/xlink">
    <!-- Generator: Sketch 44.1 (41455) - http://www.bohemiancoding.com/sketch -->
    <title>best-practices</title>
    <desc>Created with Sketch.</desc>
    <defs></defs>
    <g id="Home-page" stroke="none" stroke-width="1" fill="none" fill-rule="evenodd">
        <g id="Desktop" transform="translate(-75.000000, -1049.000000)">
            <g id="Group-9" transform="translate(75.000000, 1049.000000)">
                <g id="Group-5">
                    <path d="M81.5625,103.263158 L8.4375,103.263158 C6.885,103.263158 5.625,101.972368 5.625,100.394737 L5.625,8.60526316 C5.625,7.02189474 6.885,5.73684211 8.4375,5.73684211 L56.25,5.73684211 L56.25,25.8157895 C56.25,30.5601579 60.035625,34.4210526 64.6875,34.4210526 L84.375,34.4210526 L84.375,100.394737 C84.375,101.972368 83.109375,103.263158 81.5625,103.263158 Z M83.210625,28.6842105 L64.6875,28.6842105 C63.140625,28.6842105 61.875,27.3991579 61.875,25.8157895 L61.875,6.92436842 L83.210625,28.6842105 Z M89.17875,26.6533684 L63.86625,0.837578947 C63.3375,0.298315789 62.623125,0 61.875,0 L8.4375,0 C3.785625,0 0,3.86089474 0,8.60526316 L0,100.394737 C0,105.139105 3.785625,109 8.4375,109 L81.5625,109 C86.214375,109 90,105.139105 90,100.394737 L90,28.6842105 C90,27.9212105 89.701875,27.1926316 89.17875,26.6533684 L89.17875,26.6533684 Z" id="Fill-1" fill="#149CB5"></path>
                    <path d="M36.5665437,89 C35.8464087,89 35.1262737,88.7223102 34.5749203,88.1725977 L23.3228105,76.8383199 C22.2257298,75.7332278 22.2257298,73.9367447 23.3228105,72.8316526 C24.4198912,71.7265605 26.2033506,71.7265605 27.3004313,72.8316526 L36.5609177,82.1597633 L62.6995687,55.8245687 C63.7966494,54.7251438 65.5801088,54.7251438 66.6771895,55.8245687 C67.7742702,56.9353279 67.7742702,58.731811 66.6771895,59.8369031 L38.546915,88.1725977 C37.9955617,88.7279773 37.2754266,89 36.5552916,89 L36.5665437,89" id="Fill-4" fill="#39546A"></path>
                </g>
            </g>
        </g>
    </g>
</svg>