<?xml version="1.0" encoding="UTF-8"?>
<svg width="130px" height="84px" viewBox="0 0 130 84" version="1.1" xmlns="http://www.w3.org/2000/svg" xmlns:xlink="http://www.w3.org/1999/xlink">
    <!-- Generator: Sketch 44.1 (41455) - http://www.bohemiancoding.com/sketch -->
    <title>cloud</title>
    <desc>Created with Sketch.</desc>
    <defs></defs>
    <g id="Home-page" stroke="none" stroke-width="1" fill="none" fill-rule="evenodd">
        <g id="Desktop" transform="translate(-77.000000, -680.000000)">
            <g id="Multi-Cloud" transform="translate(77.000000, 659.000000)">
                <g id="0075-cloud" transform="translate(0.000000, 21.000000)">
                    <g id="Group-10">
                        <path d="M42.5,15.2494792 C25.26875,15.2494792 11.25,29.2670611 11.25,46.4968753 C11.25,63.7266894 25.26875,77.7442713 42.5,77.7442713 L105.0375,77.7442713 C115.35625,77.7442713 123.75,69.3512207 123.75,59.0333306 C123.75,48.7154404 115.35625,40.3223898 105.0375,40.3223898 C102.825,40.3223898 100.66875,40.703608 98.625,41.4472961 C97.2625,41.9472544 95.7375,41.4410466 94.94375,40.2286476 C94.1375,39.0162486 94.2875,37.416382 95.28125,36.36022 C97.51875,34.0104158 98.75,30.9544205 98.75,27.7421882 C98.75,20.8490126 93.15,15.2432297 86.25,15.2432297 C82.23125,15.2432297 78.56875,17.0993251 76.19375,20.3303058 C74.75,22.2801433 73.90625,24.5674527 73.7625,26.9360053 C73.675,28.2608949 72.76875,29.3920507 71.49375,29.748271 C70.21875,30.1044913 68.85,29.6232814 68.0875,28.5421215 C67.4,27.5672027 66.65625,26.6235314 65.875,25.7486043 C59.94375,19.0741605 51.425,15.2432297 42.5,15.2432297 L42.5,15.2494792 Z M105.0375,83.9937505 L42.5,83.9937505 C21.825,83.9937505 5,67.176402 5,46.4968753 C5,25.823598 21.825,9 42.5,9 C52.5125,9 62.10625,13.0184151 69.125,20.0928256 C69.675,18.8804266 70.35,17.7180235 71.15625,16.6243646 C74.675,11.8497625 80.33125,9 86.25,9 C96.5875,9 105,17.411799 105,27.7484376 C105,29.9420048 104.625,32.0855762 103.8875,34.104158 C104.26875,34.0854095 104.64375,34.0791601 105.0375,34.0791601 C118.8,34.0791601 130,45.2782268 130,59.03958 C130,72.8009333 118.8,84 105.0375,84 L105.0375,83.9937505 L105.0375,83.9937505 Z" id="Fill-1" fill="#39546A"></path>
                        <path d="M37.5,6.24947921 C20.26875,6.24947921 6.25,20.2670611 6.25,37.4968753 C6.25,54.7266894 20.26875,68.7442713 37.5,68.7442713 L100.0375,68.7442713 C110.35625,68.7442713 118.75,60.3512207 118.75,50.0333306 C118.75,39.7154404 110.35625,31.3223898 100.0375,31.3223898 C97.825,31.3223898 95.66875,31.703608 93.625,32.4472961 C92.2625,32.9472544 90.7375,32.4410466 89.94375,31.2286476 C89.1375,30.0162486 89.2875,28.416382 90.28125,27.36022 C92.51875,25.0104158 93.75,21.9544205 93.75,18.7421882 C93.75,11.8490126 88.15,6.24322973 81.25,6.24322973 C77.23125,6.24322973 73.56875,8.09932506 71.19375,11.3303058 C69.75,13.2801433 68.90625,15.5674527 68.7625,17.9360053 C68.675,19.2608949 67.76875,20.3920507 66.49375,20.748271 C65.21875,21.1044913 63.85,20.6232814 63.0875,19.5421215 C62.4,18.5672027 61.65625,17.6235314 60.875,16.7486043 C54.94375,10.0741605 46.425,6.24322973 37.5,6.24322973 L37.5,6.24947921 Z M100.0375,74.9937505 L37.5,74.9937505 C16.825,74.9937505 0,58.176402 0,37.4968753 C0,16.823598 16.825,0 37.5,0 C47.5125,0 57.10625,4.01841513 64.125,11.0928256 C64.675,9.88042663 65.35,8.7180235 66.15625,7.62436464 C69.675,2.84976252 75.33125,0 81.25,0 C91.5875,0 100,8.41179902 100,18.7484376 C100,20.9420048 99.625,23.0855762 98.8875,25.104158 C99.26875,25.0854095 99.64375,25.0791601 100.0375,25.0791601 C113.8,25.0791601 125,36.2782268 125,50.03958 C125,63.8009333 113.8,75 100.0375,75 L100.0375,74.9937505 L100.0375,74.9937505 Z" id="Fill-1" fill="#149CB5"></path>
                    </g>
                </g>
            </g>
        </g>
    </g>
</svg>