<?xml version="1.0" encoding="UTF-8"?>
<svg width="125px" height="125px" viewBox="0 0 125 125" version="1.1" xmlns="http://www.w3.org/2000/svg" xmlns:xlink="http://www.w3.org/1999/xlink">
    <!-- Generator: Sketch 44.1 (41455) - http://www.bohemiancoding.com/sketch -->
    <title>community</title>
    <desc>Created with Sketch.</desc>
    <defs>
        <polygon id="path-1" points="40.8757364 0.00626431844 0.375552283 0.00626431844 0.375552283 112.757732 81.3759205 112.757732 81.3759205 0.00626431844"></polygon>
    </defs>
    <g id="Home-page" stroke="none" stroke-width="1" fill="none" fill-rule="evenodd">
        <g id="Desktop" transform="translate(-825.000000, -1237.000000)">
            <g id="Supported-Providers" transform="translate(-165.000000, 1240.000000)"></g>
            <g id="Group-7-Copy" transform="translate(75.000000, 1237.000000)">
                <g id="0295-group-work" transform="translate(750.000000, 0.000000)">
                    <g id="Group-4">
                        <mask id="mask-2" fill="white">
                            <use xlink:href="#path-1"></use>
                        </mask>
                        <g id="Clip-2"></g>
                        <path d="M50.3865979,37.5859107 C50.6244477,36.1200601 51.0500736,34.3096721 51.7886598,32.5243414 C53.8792342,27.500358 57.4156848,25.0572738 62.5920471,25.0572738 C71.5427099,25.0572738 74.0902062,33.0004296 74.8162739,37.5859107 L50.3803387,37.5859107 L50.3865979,37.5859107 Z M56.3328424,12.5286369 C56.3328424,9.07699742 59.1432253,6.26431844 62.5920471,6.26431844 C66.0408689,6.26431844 68.8512518,9.07699742 68.8512518,12.5286369 C68.8512518,15.9802763 66.0408689,18.7929553 62.5920471,18.7929553 C59.1432253,18.7929553 56.3328424,15.9802763 56.3328424,12.5286369 Z M81.3696613,40.5113474 C81.3446244,39.4714705 81.1318115,34.8170819 79.1664212,30.1188431 C77.8394698,26.8989834 75.9554492,24.3055556 73.595729,22.4199957 C72.9948454,21.9376432 72.3564065,21.5054052 71.69919,21.1170175 C73.8148012,18.8743915 75.1104566,15.85499 75.1104566,12.5349012 C75.1104566,5.62535796 69.5022091,0.00626431844 62.5920471,0.00626431844 C55.6881443,0.00626431844 50.0736377,5.62535796 50.0736377,12.5349012 C50.0736377,15.85499 51.3755523,18.8743915 53.4849043,21.1170175 C52.8276878,21.5054052 52.1955081,21.9376432 51.5883652,22.4199957 C49.2286451,24.3118199 47.3508837,26.9052477 46.0114138,30.1188431 C43.8394698,35.3370203 43.814433,40.505083 43.814433,40.7180699 C43.814433,42.4470218 45.2164948,43.8502291 46.9440353,43.8502291 L78.2400589,43.8502291 C78.2400589,43.8502291 78.2400589,43.8502291 78.2463181,43.8502291 C79.9738586,43.8502291 81.3759205,42.4470218 81.3759205,40.7180699 C81.3759205,40.6491624 81.3759205,40.5802549 81.3696613,40.5113474 L81.3696613,40.5113474 Z" id="Fill-1" fill="#149CB5" mask="url(#mask-2)"></path>
                        <path d="M6.57216495,106.493414 C6.81001473,105.027563 7.23564065,103.217175 7.9742268,101.42558 C10.0648012,96.4141251 13.6012518,93.9647766 18.7776141,93.9647766 C27.7220177,93.9647766 30.2757732,101.907932 31.0018409,106.493414 L6.56590574,106.493414 L6.57216495,106.493414 Z M12.5184094,81.4361397 C12.5184094,77.9845003 15.3287923,75.1718213 18.7776141,75.1718213 C22.2264359,75.1718213 25.0368189,77.9845003 25.0368189,81.4361397 C25.0368189,84.8877792 22.2264359,87.7004582 18.7776141,87.7004582 C15.3287923,87.7004582 12.5184094,84.8877792 12.5184094,81.4361397 Z M37.5552283,109.41885 C37.5301915,108.378973 37.3173785,103.730849 35.3582474,99.0326103 C34.0187776,95.8064863 32.1410162,93.2193227 29.781296,91.3274986 C29.1804124,90.845146 28.5419735,90.4191724 27.884757,90.0245203 C30.0003682,87.7881586 31.2960236,84.7624928 31.2960236,81.4424041 C31.2960236,74.5391251 25.6815169,68.9137672 18.7776141,68.9137672 C11.8737113,68.9137672 6.25920471,74.5391251 6.25920471,81.4424041 C6.25920471,84.7624928 7.56111929,87.7881586 9.67047128,90.0245203 C9.01325479,90.4191724 8.38107511,90.845146 7.77393225,91.3274986 C5.41421208,93.2193227 3.53645066,95.8127506 2.19698085,99.0326103 C0.0250368189,104.244523 0,109.412586 0,109.625573 C0,111.34826 1.40206186,112.757732 3.12960236,112.757732 L34.4256259,112.757732 C34.4256259,112.757732 34.4256259,112.757732 34.4318851,112.757732 C36.1594256,112.757732 37.5614875,111.34826 37.5614875,109.625573 C37.5614875,109.556665 37.5614875,109.494022 37.5552283,109.41885 L37.5552283,109.41885 Z" id="Fill-3" fill="#149CB5" mask="url(#mask-2)"></path>
                    </g>
                    <path d="M94.1677246,106.497633 C94.404369,105.03277 94.827838,103.223601 95.5564536,101.433213 C97.6364334,96.4251336 101.16119,93.9774349 106.311319,93.9774349 C115.216622,93.9774349 117.751208,101.91524 118.473596,106.497633 L94.1614971,106.497633 L94.1677246,106.497633 Z M100.083835,81.4572369 C100.083835,78.0079223 102.879975,75.1971379 106.311319,75.1971379 C109.742663,75.1971379 112.538804,78.0079223 112.538804,81.4572369 C112.538804,84.9065515 109.742663,87.7173359 106.311319,87.7173359 C102.879975,87.7173359 100.083835,84.9065515 100.083835,81.4572369 Z M124.993773,109.421099 C124.968863,108.381923 124.757128,103.736929 122.801698,99.041855 C121.475244,95.817904 119.606998,93.2324831 117.259237,91.3419332 C116.661398,90.8599056 116.026195,90.4342189 115.372309,90.0398326 C117.477199,87.8049773 118.766288,84.7813495 118.766288,81.463497 C118.766288,74.5648679 113.186462,68.943299 106.311319,68.943299 C99.4361764,68.943299 93.8563504,74.5648679 93.8563504,81.463497 C93.8563504,84.7813495 95.1516672,87.8049773 97.2503294,90.0398326 C96.5902161,90.4342189 95.9674676,90.8599056 95.3634016,91.3419332 C93.01564,93.2324831 91.1473947,95.8241641 89.8209405,99.041855 C87.6537759,104.250257 87.628866,109.414839 87.628866,109.627682 C87.628866,111.34921 89.03005,112.757732 90.7426082,112.757732 L121.88003,112.757732 C121.88003,112.757732 121.88003,112.757732 121.886258,112.757732 C123.605043,112.757732 125,111.34921 125,109.627682 C125,109.558821 125,109.49622 124.993773,109.421099 L124.993773,109.421099 Z" id="Fill-5" fill="#149CB5"></path>
                    <path d="M62.5018236,125 C54.3345433,125 46.2238058,123.022105 39.0428816,119.259128 C37.509946,118.456774 36.9256713,116.572176 37.7361168,115.048326 C38.5465623,113.536916 40.4501669,112.964694 41.9831025,113.760828 C48.2593433,117.044881 55.3523121,118.780204 62.5018236,118.780204 C69.6576176,118.780204 76.7505864,117.044881 83.0205446,113.760828 C84.5534803,112.964694 86.4570849,113.536916 87.2612479,115.048326 C88.0716934,116.572176 87.4999837,118.456774 85.9607655,119.259128 C78.7861239,123.022105 70.6753864,125 62.5018236,125" id="Fill-6" fill="#39546A"></path>
                    <path d="M107.702262,65.7216495 C106.340773,65.7216495 105.072963,64.8129157 104.691996,63.421613 C101.794147,52.8928357 95.1053609,43.8681694 85.8559753,38.0021363 C84.4070506,37.0746012 83.969875,35.1443253 84.8879437,33.6778171 C85.8122577,32.2113088 87.7358302,31.7788769 89.2034909,32.7001449 C99.7644032,39.3997062 107.402485,49.7154011 110.712528,61.7482895 C111.16844,63.4153459 110.194163,65.1450736 108.532896,65.602574 C108.251854,65.6777796 107.970813,65.7153824 107.702262,65.7153824 L107.702262,65.7216495" id="Fill-7" fill="#39546A"></path>
                    <path d="M17.2972639,65.7153824 C17.0225096,65.7153824 16.7415108,65.6777796 16.4667565,65.602574 C14.8057415,65.1450736 13.8316124,63.4153459 14.2874549,61.7482895 C17.596996,49.7154011 25.2401625,39.3997062 35.7994718,32.7001449 C37.254421,31.7788769 39.1839459,32.2113088 40.1081196,33.6778171 C41.0322934,35.1443253 40.5951842,37.0746012 39.1339906,38.0021363 C29.8860088,43.8619023 23.1982381,52.8928357 20.307073,63.421613 C19.9261635,64.8129157 18.6710357,65.7216495 17.2972639,65.7216495 L17.2972639,65.7153824" id="Fill-8" fill="#39546A"></path>
                </g>
            </g>
        </g>
    </g>
</svg>