<?xml version="1.0" encoding="UTF-8"?>
<svg width="86px" height="52px" viewBox="0 0 86 52" version="1.1" xmlns="http://www.w3.org/2000/svg" xmlns:xlink="http://www.w3.org/1999/xlink">
    <!-- Generator: Sketch 44.1 (41455) - http://www.bohemiancoding.com/sketch -->
    <title>Netflix OSS Logo</title>
    <desc>Created with Sketch.</desc>
    <defs></defs>
    <g id="Home-page" stroke="none" stroke-width="1" fill="none" fill-rule="evenodd">
        <g id="Desktop" transform="translate(-862.000000, -2907.000000)">
            <g id="Footer" transform="translate(0.000000, 2890.000000)">
                <g id="Group-11" transform="translate(862.000000, 17.000000)">
                    <g id="Netflix-OSS-Logo">
                        <path d="M30,37.5559045 C30,37.5559045 30.0542986,34.6331658 33.5565611,34 L57,34 L57,38.1438442 L33.9556561,38.1438442 L33.9556561,40.9167714 L53.4461538,40.9167714 C53.4461538,40.9167714 56.4027149,41.0976759 57,44.3596106 L57,48.2094849 C57,48.2094849 56.8371041,51.5844849 53.5303167,52 L30,52 L30,47.8674623 L52.9873303,47.8674623 L52.9873303,45.0606156 L33.5457014,45.0606156 C33.5457014,45.0606156 30.8904977,45.0380025 30,41.5979899 L30,37.5559045 Z" id="Fill-1" fill="#FFFFFF"></path>
                        <path d="M3.9649211,47.8250628 L23.0106543,47.8250628 L23.0106543,38.1325377 L3.9649211,38.1325377 L3.9649211,47.8250628 Z M23.0866419,34 L3.38958689,34 C3.38958689,34 0,34.678392 0,37.6689698 L0,48.1953518 C0,48.1953518 0.455925219,52 3.52256508,52 L23.4123027,52 C23.4123027,52 27,51.2509422 27,48.1953518 L27,38.0081658 C27,38.0081658 26.609207,34 23.0866419,34 L23.0866419,34 Z" id="Fill-3" fill="#FFFFFF"></path>
                        <path d="M86,38.1438442 L86,34 L62.5538462,34 C59.0515837,34.6331658 59,37.5559045 59,37.5559045 L59,41.5979899 C59.8904977,45.0380025 62.5429864,45.0606156 62.5429864,45.0606156 L81.9846154,45.0606156 L81.9846154,47.8674623 L59,47.8674623 L59,52 L82.5303167,52 C85.8343891,51.5844849 86,48.2094849 86,48.2094849 L86,44.3596106 C85.4,41.0976759 82.4434389,40.9167714 82.4434389,40.9167714 L62.958371,40.9167714 L62.958371,38.1438442 L86,38.1438442 Z" id="Fill-5" fill="#FFFFFF"></path>
                        <path d="M86,0 L81.4457863,11.4136716 L86,24 C84.6553172,23.8111346 83.3078676,23.551797 81.9631848,23.3178295 L79.3817259,16.3833686 L76.7587644,22.756871 C75.4555841,22.5229035 74.1994401,22.4524313 72.9017936,22.2635659 L77.5224114,11.2727273 L73.3500212,0 L77.206992,0 L79.5643371,6.3030303 L82.0738583,0 L86,0 Z M66.7538817,21.7956307 C67.8965854,21.8661029 69.1112268,21.9365751 70.2732984,22.0775194 L70.2732984,0 L66.7538817,0 L66.7538817,21.7956307 Z M57.6233196,17.5081043 C59.6624784,17.5560254 61.7293057,17.7167019 63.7241952,17.8350951 L63.7241952,21.5391121 C60.5174311,21.3248767 57.3079001,21.1162791 54.0319651,21.0458069 L54.0319651,0 L57.6233196,0 L57.6233196,17.5081043 Z M45.2832265,8.52995067 L50.1998958,8.52995067 L50.1998958,12.2790698 L45.2832265,12.2790698 L45.2832265,20.7892882 L41.7638098,20.7892882 L41.7638098,0 L51.7908271,0 L51.7908271,3.7491191 L45.2832265,3.7491191 L45.2832265,8.52995067 Z M39.4535009,3.7491191 L35.7293382,3.7491191 L35.7293382,20.9978858 C34.5174636,20.9978858 33.305589,20.9978858 32.1379838,21.0458069 L32.1379838,3.7491191 L28.416588,3.7491191 L28.416588,0 L39.4535009,0 L39.4535009,3.7491191 Z M19.7563881,8.78928823 C21.1481072,8.78928823 23.2785717,8.71881607 24.5568504,8.71881607 L24.5568504,12.4679352 C22.9631522,12.4679352 21.1010709,12.4679352 19.7563881,12.5384073 L19.7563881,18.1169838 C21.8647179,17.9760395 23.9730478,17.789993 26.1062791,17.7167019 L26.1062791,21.3248767 L16.1678005,22.1451727 L16.1678005,0 L26.1062791,0 L26.1062791,3.7491191 L19.7563881,3.7491191 L19.7563881,8.78928823 Z M12.6898864,22.4524313 C11.4116077,22.6863989 10.1084275,22.756871 8.76374467,22.9457364 L4.66052537,10.384778 L4.66052537,23.4841438 C3.37947983,23.6250881 2.21464145,23.8111346 1,24 L1,0 L4.41151004,0 L9.07639725,13.615222 L9.07639725,0 L12.6898864,0 L12.6898864,22.4524313 Z" id="Fill-6" fill="#EC1B2E"></path>
                    </g>
                </g>
            </g>
        </g>
    </g>
</svg>