<?xml version="1.0" encoding="UTF-8" standalone="no"?>
<svg
   xmlns:dc="http://purl.org/dc/elements/1.1/"
   xmlns:cc="http://creativecommons.org/ns#"
   xmlns:rdf="http://www.w3.org/1999/02/22-rdf-syntax-ns#"
   xmlns:svg="http://www.w3.org/2000/svg"
   xmlns="http://www.w3.org/2000/svg"
   viewBox="0 0 221.36 75.293335"
   height="75.293335"
   width="221.36"
   xml:space="preserve"
   id="svg2"
   version="1.1"><metadata
     id="metadata8"><rdf:RDF><cc:Work
         rdf:about=""><dc:format>image/svg+xml</dc:format><dc:type
           rdf:resource="http://purl.org/dc/dcmitype/StillImage" /></cc:Work></rdf:RDF></metadata><defs
     id="defs6"><clipPath
       id="clipPath20"
       clipPathUnits="userSpaceOnUse"><path
         id="path18"
         d="M 0,0 H 1660 V 564.703 H 0 Z" /></clipPath></defs><g
     transform="matrix(1.3333333,0,0,-1.3333333,0,75.293333)"
     id="g10"><g
       transform="scale(0.1)"
       id="g12"><g
         id="g14"><g
           clip-path="url(#clipPath20)"
           id="g16"><path
             id="path22"
             style="fill:#ed1c24;fill-opacity:1;fill-rule:nonzero;stroke:none"
             d="m 1140.83,424.625 c 0.98,0 2.02,0.098 2.6,1.035 0.43,0.352 0.49,0.82 0.49,1.348 0,0.898 -0.51,1.601 -1.23,1.972 -0.84,0.333 -1.46,0.333 -2.99,0.333 h -0.84 v -4.688 h 1.97 m -1.13,7.266 c 2.15,0 3.15,-0.098 4.26,-0.411 2.79,-0.917 3.05,-3.574 3.05,-4.492 0,-0.215 -0.08,-0.738 -0.18,-1.328 -0.14,-0.625 -0.47,-1.933 -1.97,-2.793 -0.2,-0.117 -0.3,-0.215 -0.63,-0.367 l 3.69,-6.664 h -3.59 l -3.3,6.191 h -2.17 v -6.191 h -3.2 v 16.055 h 4.04 m 1.39,-22.813 c 7.91,0 14.28,6.348 14.28,14.277 0,7.93 -6.37,14.415 -14.28,14.415 -8.01,0 -14.38,-6.485 -14.38,-14.415 0,-7.929 6.37,-14.277 14.38,-14.277 m -11.35,14.336 c 0,6.231 5.02,11.289 11.35,11.289 6.29,0 11.27,-5.058 11.27,-11.289 0,-6.191 -4.98,-11.25 -11.27,-11.25 -6.33,0 -11.35,5.059 -11.35,11.25 m -99.57,-91.539 c -18.91,0 -34.842,12.691 -39.764,30.055 h 104.884 l 14.45,22.5 H 990.406 c 4.903,17.402 20.854,30.058 39.764,30.058 h 72.01 l 14.4,22.559 h -88.05 c -35.214,0 -63.788,-28.574 -63.788,-63.867 0,-35.254 28.574,-63.77 63.788,-63.77 h 75.74 l 14.4,22.465 h -88.5 M 730.035,309.41 h 75.742 l 14.336,22.465 h -88.398 c -22.91,0 -41.367,18.531 -41.367,41.305 0,22.871 18.457,41.308 41.367,41.308 h 71.953 l 14.512,22.559 h -88.145 c -35.273,0 -63.926,-28.574 -63.926,-63.867 0,-35.254 28.653,-63.77 63.926,-63.77 m -466.043,22.465 h -70.855 c -22.805,0 -41.282,18.531 -41.282,41.305 0,22.871 18.477,41.308 41.282,41.308 h 70.855 c 22.883,0 41.34,-18.437 41.34,-41.308 0,-22.774 -18.457,-41.305 -41.34,-41.305 M 191.504,309.41 h 74.187 c 35.293,0 63.711,28.516 63.711,63.77 0,35.293 -28.418,63.867 -63.711,63.867 h -74.187 c -35.254,0 -63.848,-28.574 -63.848,-63.867 0,-35.254 28.594,-63.77 63.848,-63.77 m 258.367,41.328 c 23.899,0 43.113,19.336 43.113,43.164 0,23.828 -19.214,43.145 -43.113,43.145 H 342.488 V 309.41 h 24.543 v 105.078 h 81.211 c 11.399,0 20.637,-9.199 20.637,-20.586 0,-11.367 -9.238,-20.722 -20.637,-20.722 l -69.211,0.058 73.305,-63.828 h 35.609 l -49.234,41.328 h 11.16 m 406.004,-18.789 v 105.098 h -24.59 v -115.43 c 0,-3.144 1.328,-6.23 3.633,-8.457 2.344,-2.422 5.566,-3.75 8.945,-3.75 H 955.68 l 14.57,22.539 H 855.875 M 555.484,354.41 h 65.469 l -34.59,55.82 -63.496,-100.82 h -29.004 l 77.305,120.996 c 3.301,4.903 8.965,7.871 15.156,7.871 6.055,0 11.621,-2.871 14.922,-7.652 L 678.785,309.41 h -28.926 l -13.632,22.539 h -66.289 l -14.454,22.461" /><path
             id="path24"
             style="fill:#100f0d;fill-opacity:1;fill-rule:nonzero;stroke:none"
             d="m 1518.44,171.359 c 0.14,6.989 -1.17,21.543 -18.05,21.543 -8.88,0 -19.65,-5.386 -19.94,-21.543 z m -38.58,-9.609 c -0.28,-15.137 5.98,-26.348 20.97,-26.348 8.87,0 16.01,4.657 17.18,15.141 h 13.68 c -0.44,-3.641 -1.02,-9.609 -6.26,-15.285 -3.21,-3.641 -10.48,-9.754 -25.19,-9.754 -23,0 -33.91,14.262 -33.91,37.414 0,14.406 2.91,26.348 14.41,34.348 6.98,4.953 15.72,5.386 19.94,5.386 32.75,0 32.02,-28.964 31.74,-40.902 z m -65.63,24.164 c 0,4.953 -0.3,10.047 -0.73,14.852 h 13.83 l 0.29,-14.125 c 2.62,10.191 11.35,13.543 17.47,14.418 4.08,0.578 7.13,0.433 9.46,0.285 v -13.395 c -0.72,0.293 -1.6,0.442 -2.62,0.586 -1.01,0.145 -2.33,0.145 -3.92,0.145 -16.17,0 -19.96,-9.606 -19.96,-22.125 v -38.867 h -13.82 z m -76.4,14.852 v -47.024 c 0,-7.129 1.6,-16.156 15.58,-16.156 6.83,0 13.24,2.328 17.17,8.152 3.06,4.367 3.06,10.043 3.06,13.684 v 41.344 h 14.12 v -59.399 c 0,-1.453 0.28,-9.601 0.43,-13.679 h -14.27 l -0.28,12.519 c -2.63,-5.098 -7.58,-13.246 -23.29,-13.246 -18.06,0 -26.5,10.336 -26.5,24.746 v 49.059 z m -75.84,0.293 h 12.96 v 15.281 l 13.53,4.363 v -19.644 h 16.3 v -10.051 h -16.3 v -43.813 c 0,-3.636 0,-9.757 9.76,-9.757 2.76,0 5.38,0.441 6.54,0.73 v -10.625 c -2.47,-0.438 -6.39,-0.875 -11.35,-0.875 -12.51,0 -18.48,3.641 -18.48,15.574 v 48.766 h -12.96 z m -26.18,-23.735 c -0.3,3.352 -1.31,15.285 -14.56,15.285 -18.92,0 -18.92,-21.976 -18.92,-27.507 0,-14.997 3.63,-28.973 18.19,-28.973 11.65,0 15.58,8.734 15.87,15.871 h 13.83 c -0.88,-14.27 -11.5,-26.207 -29.55,-26.207 -4.95,0 -16.31,1.02 -24.02,9.465 -4.37,5.094 -8.73,12.808 -8.73,27.945 0,30.426 18.63,39.449 33.18,39.449 4.81,0 15.72,-1.015 22.42,-9.023 5.39,-6.258 5.82,-12.227 6.12,-16.305 z m -118.04,23.442 v -47.024 c 0,-7.129 1.6,-16.156 15.58,-16.156 6.83,0 13.24,2.328 17.17,8.152 3.06,4.367 3.06,10.043 3.06,13.684 v 41.344 h 14.12 v -59.399 c 0,-1.453 0.29,-9.601 0.43,-13.679 h -14.27 l -0.28,12.519 c -2.63,-5.098 -7.58,-13.246 -23.29,-13.246 -18.06,0 -26.49,10.336 -26.49,24.746 v 49.059 z m -71.75,-14.852 c 0,4.953 -0.29,10.047 -0.73,14.852 h 13.83 l 0.29,-14.125 c 2.62,10.191 11.36,13.543 17.47,14.418 4.07,0.578 7.13,0.433 9.46,0.285 v -13.395 c -0.73,0.293 -1.6,0.442 -2.62,0.586 -1.02,0.145 -2.33,0.145 -3.93,0.145 -16.16,0 -19.94,-9.606 -19.94,-22.125 v -38.867 h -13.83 z m -65.055,15.145 h 12.957 v 15.281 l 13.538,4.363 v -19.644 h 16.31 v -10.051 h -16.31 v -43.813 c 0,-3.636 0,-9.757 9.75,-9.757 2.77,0 5.38,0.441 6.56,0.73 v -10.625 c -2.48,-0.438 -6.41,-0.875 -11.36,-0.875 -12.519,0 -18.488,3.641 -18.488,15.574 v 48.766 h -12.957 z m -59.524,-51.68 c -0.136,-5.535 2.774,-13.25 16.016,-13.25 5.676,0 9.902,1.019 12.813,4.66 1.457,1.895 2.324,4.367 2.324,6.84 0,7.133 -5.086,8.441 -16.004,10.918 -15.285,3.496 -28.098,6.555 -28.098,21.836 0,13.394 11.641,22.129 28.528,22.129 9.168,0 21.98,-2.621 26.347,-11.36 1.895,-4.07 1.895,-7.566 1.895,-10.625 h -13.977 c 0.442,11.067 -9.168,11.942 -14.121,11.942 -2.031,0 -14.844,0 -14.844,-10.485 0,-6.695 6.555,-8.296 10.332,-9.316 20.235,-4.805 24.602,-5.969 28.977,-10.043 4.07,-3.785 5.527,-8.883 5.527,-13.539 0,-8.152 -4.511,-15.141 -9.902,-18.488 -6.406,-3.93 -14.121,-4.946 -21.691,-4.946 -14.844,0 -28.672,6.114 -28.524,23.727 z m -56.601,14.266 c -5.535,0 -26.348,0 -26.348,-14.848 0,-4.66 2.91,-12.668 15.137,-12.668 6.992,0 12.226,2.769 15.578,7.863 3.055,4.949 3.203,9.024 3.496,19.211 -2.48,0.293 -4.512,0.442 -7.863,0.442 z m 9.465,-35.957 c -1.028,3.636 -1.309,7.132 -1.309,10.917 -6.555,-12.082 -16.457,-13.246 -22.57,-13.246 -16.738,0 -25.762,9.461 -25.762,21.543 0,5.825 2.031,15.141 12.813,21.403 7.851,4.363 19.503,4.8 25.324,4.8 3.496,0 5.683,-0.144 9.902,-0.437 0,9.023 0,12.953 -2.617,16.156 -2.773,3.645 -8.742,4.805 -12.668,4.805 -13.828,0 -14.559,-9.461 -14.707,-12.371 h -13.68 c 0.438,3.785 0.867,8.883 5.098,13.828 5.527,6.113 15.859,7.859 23.574,7.859 10.633,0 21.981,-3.347 25.918,-10.769 2.324,-4.367 2.469,-7.863 2.469,-11.211 l -0.574,-34.938 c 0,-1.164 0.136,-10.918 1.16,-18.339 z M 771.98,185.914 c 0,4.953 -0.292,10.047 -0.734,14.852 h 13.84 l 0.281,-14.125 c 2.629,10.191 11.36,13.543 17.473,14.418 4.082,0.578 7.137,0.433 9.461,0.285 v -13.395 c -0.723,0.293 -1.602,0.442 -2.617,0.586 -1.024,0.145 -2.332,0.145 -3.934,0.145 -16.152,0 -19.941,-9.606 -19.941,-22.125 V 127.688 H 771.98 Z m -18.183,36.688 c -2.324,0.144 -5.234,0.285 -8,0.285 -11.063,0 -11.063,-5.532 -11.063,-10.625 v -11.496 h 17.032 v -9.899 h -17.032 v -63.179 h -13.546 v 63.179 h -14.403 v 9.899 h 14.403 v 8.293 c 0,10.043 0.585,13.687 3.058,17.472 3.067,4.657 8.887,8 18.348,8 3.926,0 8.293,-0.578 11.203,-1.015 z m -127.57,-30.282 -0.145,8.446 h 13.68 l 0.148,-11.793 c 1.602,3.054 6.844,13.246 23.438,13.246 6.55,0 26.492,-2.477 26.492,-24.895 v -49.636 h -13.973 v 46.433 c 0,4.809 -0.578,9.172 -3.926,12.52 -3.496,3.351 -8.3,4.953 -12.961,4.953 -9.902,0 -19.07,-7.133 -19.07,-21.836 v -42.07 h -13.683 z m -42.411,40.469 h 14.559 V 127.688 h -14.559 z m -89.628,-47.168 c -2.911,3.785 -8.301,7.43 -16.016,7.43 -20.09,0 -20.09,-24.313 -20.09,-29.258 0,-12.961 3.352,-27.949 20.09,-27.949 21.543,0 21.543,23.722 21.543,29.402 0,10.625 -2.473,16.445 -5.527,20.375 z m 5.085,47.024 h 13.692 v -93.313 c 0,-1.602 0.285,-7.859 0.578,-11.644 h -13.684 l -0.293,11.644 c -1.16,-2.035 -2.761,-5.094 -6.55,-7.715 -5.969,-4.074 -13.098,-5.387 -18.047,-5.387 -9.758,0 -31.446,5.094 -31.446,37.122 0,27.8 15.868,39.886 33.047,39.886 15.723,0 20.957,-9.316 22.703,-12.371 z M 372.945,200.766 v -47.024 c 0,-7.129 1.602,-16.156 15.578,-16.156 6.836,0 13.243,2.328 17.176,8.152 3.059,4.367 3.059,10.043 3.059,13.684 v 41.344 h 14.121 v -59.399 c 0,-1.453 0.293,-9.601 0.43,-13.679 h -14.258 l -0.293,12.519 c -2.617,-5.098 -7.57,-13.246 -23.293,-13.246 -18.055,0 -26.492,10.336 -26.492,24.746 v 49.059 z m -69.851,-65.364 c 10.332,0 22.129,7.422 22.129,29.407 0,18.195 -8.45,27.8 -21.25,27.8 -8.743,0 -22.864,-5.527 -22.864,-28.382 0,-14.997 6.407,-28.825 21.985,-28.825 z m 0.879,67.25 c 29.257,0 35.8,-22.996 35.8,-38.281 0,-21.398 -12.082,-39.16 -36.972,-39.16 -24.16,0 -35.957,16.742 -35.957,38.141 0,18.05 8.445,39.3 37.129,39.3 z m -71.907,29.993 H 245.75 V 127.688 h -13.684 z m -36.218,-28.243 c -0.586,3.637 -2.481,18.2 -22.715,18.2 -25.324,0 -29.836,-25.914 -29.836,-43.379 0,-19.801 5.676,-41.2 29.687,-41.2 6.407,0 12.52,1.602 17.032,6.262 3.789,4.07 4.66,8.586 5.097,11.059 h 16.016 c -2.188,-20.668 -21.25,-29.258 -39.305,-29.258 -36.972,0 -44.101,32.605 -44.101,52.988 0,22.125 8.582,55.172 45.996,55.172 14.844,0 35.808,-5.973 37.703,-29.844 h -15.574" /></g></g></g></g></svg>