<svg xmlns="http://www.w3.org/2000/svg" viewBox="0 0 77.907 56.577"><path fill="#305568" d="M77.812 49.045a.397.397 0 00-.301-.137H.395a.397.397 0 00-.391.453c.012.074 1.176 7.215 10.203 7.215h57.492c9.031 0 10.191-7.141 10.203-7.215a.388.388 0 00-.09-.316zm-33.058 5.032H33.152v-2.668h11.602v2.668zm0 0M69.5 5.658H54.709a17.86 17.86 0 011.697 5.601H65.5v29.524H12.407V11.259h8.554a17.81 17.81 0 011.698-5.601H8.407c-.883 0-1.602.719-1.602 1.601v37.524c0 .883.719 1.602 1.602 1.602H69.5c.883 0 1.602-.719 1.602-1.602V7.259c0-.882-.719-1.601-1.602-1.601z"/><path fill="#FFF" d="M60.791 31.573L50.133 20.915a13.498 13.498 0 002.146-7.32c0-3.631-1.414-7.045-3.981-9.612C45.729 1.414 42.314 0 38.684 0s-7.045 1.414-9.612 3.982c-2.568 2.567-3.982 5.981-3.982 9.612s1.415 7.045 3.982 9.613 5.982 3.982 9.613 3.982c2.825 0 5.513-.866 7.778-2.456l10.584 10.584a2.645 2.645 0 003.744 0 2.645 2.645 0 000-3.744zM38.685 21.465a7.822 7.822 0 01-5.566-2.305c-3.068-3.069-3.068-8.062 0-11.131a7.822 7.822 0 015.565-2.305c2.103 0 4.078.818 5.565 2.305 3.068 3.069 3.068 8.062-.001 11.131a7.817 7.817 0 01-5.563 2.305z"/></svg>